<?xml version="1.0" encoding="utf-8"?>
<!-- Generator: Adobe Illustrator 24.3.0, SVG Export Plug-In . SVG Version: 6.00 Build 0)  -->
<svg version="1.1" id="Layer_1" xmlns="http://www.w3.org/2000/svg" xmlns:xlink="http://www.w3.org/1999/xlink" x="0px" y="0px"
	 viewBox="0 0 719 169" style="enable-background:new 0 0 719 169;" xml:space="preserve">
<style type="text/css">
	.st0{fill-rule:evenodd;clip-rule:evenodd;fill:#006838;}
	.st1{fill:#006838;}
	.st2{fill:#231F20;}
</style>
<path class="st0" d="M109.3,114.5l-5.6-2.5l0.5-1.1l4.4,2l0.9-2l1.2,0.6L109.3,114.5z M104.1,118.3c-0.9-0.5-1.4-1.1-1.8-1.7
	c-0.3-0.7-0.3-1.3,0.1-1.9s0.9-1,1.6-1s1.5,0.2,2.4,0.7s1.4,1.1,1.7,1.7c0.3,0.7,0.3,1.3-0.1,1.9s-0.9,0.9-1.6,1
	C105.8,119.1,105,118.8,104.1,118.3z M104.7,117.3c0.5,0.3,1,0.5,1.4,0.5s0.7-0.2,0.8-0.5s0.2-0.6,0-1c-0.2-0.3-0.6-0.7-1.1-1
	s-1-0.5-1.4-0.5s-0.7,0.2-0.8,0.5s-0.2,0.6,0,1C103.8,116.7,104.2,117,104.7,117.3z M101.7,123.4c-0.8-0.5-1.4-1.1-1.7-1.8
	c-0.3-0.7-0.2-1.3,0.2-1.9c0.4-0.6,0.9-0.9,1.7-1c0.7,0,1.5,0.2,2.3,0.7s1.4,1.1,1.7,1.8c0.3,0.7,0.2,1.3-0.2,1.9s-0.9,0.9-1.6,1
	S102.6,123.9,101.7,123.4z M102.4,122.4c0.5,0.3,1,0.5,1.4,0.5s0.7-0.1,0.9-0.4s0.2-0.6,0-1c-0.2-0.3-0.5-0.7-1.1-1
	c-0.5-0.3-1-0.5-1.4-0.5s-0.7,0.1-0.9,0.4s-0.2,0.6,0,1C101.5,121.7,101.8,122.1,102.4,122.4z M101.1,129.5l-4.9-3.7l0.7-0.9
	l1.8,1.3l1-1.3l-1.8-1.3l0.7-0.9l4.9,3.7l-0.7,0.9l-2.1-1.6l-1,1.3l2.1,1.6L101.1,129.5z M97.9,129.2c0.5,0.5,0.8,1.1,0.9,1.6
	s-0.1,1-0.4,1.4c-0.4,0.5-1,0.7-1.7,0.7c-0.7-0.1-1.4-0.4-2.2-1c-0.8-0.6-1.2-1.3-1.4-2c-0.2-0.7,0-1.3,0.4-1.9
	c0.4-0.4,0.8-0.7,1.3-0.7s1.1,0.2,1.6,0.6l-0.7,0.8c-0.3-0.1-0.5-0.2-0.7-0.2s-0.4,0.1-0.6,0.3c-0.2,0.3-0.3,0.6-0.1,0.9
	c0.1,0.4,0.4,0.8,0.9,1.1s0.9,0.6,1.3,0.7c0.4,0.1,0.7,0,0.9-0.3c0.2-0.2,0.3-0.4,0.2-0.6s-0.2-0.5-0.4-0.7L97.9,129.2z M90.5,135.5
	l1-0.6c0.2,0.3,0.4,0.5,0.6,0.6s0.4,0,0.7-0.1c0.2-0.1,0.3-0.3,0.4-0.4c0.1-0.2,0-0.3-0.1-0.5c-0.1-0.1-0.1-0.1-0.2-0.2
	s-0.1-0.1-0.2-0.1s-0.3,0-0.7,0.1c-0.3,0.1-0.7,0.1-0.9,0.1c-0.4,0-0.7,0-1-0.2s-0.6-0.4-0.8-0.7c-0.3-0.5-0.4-1-0.3-1.5
	s0.4-0.9,0.9-1.1c0.5-0.3,0.9-0.4,1.4-0.2s0.9,0.5,1.2,1l-0.9,0.6c-0.2-0.2-0.3-0.4-0.5-0.4c-0.2-0.1-0.4,0-0.6,0.1
	s-0.3,0.2-0.3,0.4c-0.1,0.1,0,0.3,0.1,0.4c0.1,0.2,0.5,0.3,1.1,0.2c0.1,0,0.2,0,0.3,0h0.1c0.6-0.1,1.1-0.1,1.3,0
	c0.2,0.1,0.4,0.2,0.6,0.3s0.3,0.3,0.5,0.6c0.3,0.5,0.4,1,0.3,1.5s-0.4,0.9-1,1.2c-0.5,0.3-1,0.4-1.5,0.2
	C91.4,136.5,91,136.1,90.5,135.5z M41.2,133.7l4.2-4.5l0.9,0.8l-4.2,4.5L41.2,133.7z M37,129.7l4.5-4.2l0.8,0.9l-1.6,1.5l1.1,1.2
	l1.6-1.5l0.8,0.9l-4.5,4.2l-0.8-0.9l1.9-1.8l-1.1-1.2l-1.9,1.8L37,129.7z M34.1,126.2l4.9-3.8l0.7,0.9l-3.8,2.9l1.4,1.8l-1.1,0.8
	L34.1,126.2z M31.3,122.2l5.1-3.5l2,2.9l-1,0.7l-1.3-1.9l-0.9,0.6l1.2,1.7l-1,0.7l-1.2-1.7l-1.1,0.8l1.4,2l-1,0.7L31.3,122.2z
	 M28.7,117.2l5.4-2.9L35,116c0.3,0.6,0.3,1.2,0,1.8c-0.3,0.6-0.9,1.1-1.8,1.6c-0.9,0.5-1.7,0.7-2.3,0.6s-1.1-0.5-1.5-1.1L28.7,117.2
	z M30.4,117.6l0.3,0.6c0.2,0.3,0.4,0.5,0.8,0.5s0.8-0.1,1.3-0.4s0.9-0.6,1.1-0.9c0.2-0.3,0.2-0.6,0-0.9l-0.3-0.6L30.4,117.6z
	 M82.5,143.7c0.1,0.7,0.1,1.4-0.2,1.8c-0.2,0.5-0.6,0.8-1.2,1c-0.7,0.2-1.3,0-1.8-0.4c-0.6-0.5-1-1.2-1.2-2.1c-0.3-1-0.3-1.8,0-2.5
	s0.7-1.1,1.4-1.3c0.5-0.1,1-0.1,1.5,0.2c0.4,0.3,0.8,0.8,1,1.4l-1.1,0.3c-0.1-0.3-0.3-0.5-0.5-0.6s-0.4-0.1-0.6-0.1
	c-0.3,0.1-0.5,0.3-0.6,0.7s-0.1,0.9,0.1,1.5s0.4,1,0.6,1.3c0.3,0.3,0.6,0.4,0.9,0.3c0.3-0.1,0.4-0.2,0.6-0.4
	c0.1-0.2,0.1-0.5,0.1-0.8L82.5,143.7z M76.1,147.5l-1.1-6.1l1.2-0.2l1.1,6.1L76.1,147.5z M71,147.9l-0.3-6.2l1.2-0.1l0.3,4.8
	l2.2-0.1l0.1,1.3L71,147.9z M65.7,147.7l0.6-6.1l2.2,0.2c0.5,0.1,0.9,0.2,1.2,0.5s0.3,0.7,0.3,1.2c0,0.3-0.1,0.6-0.3,0.8
	c-0.1,0.2-0.3,0.4-0.6,0.4c0.3,0.1,0.4,0.3,0.6,0.6c0.1,0.3,0.2,0.6,0.1,0.9c0,0.3-0.1,0.6-0.3,0.9c-0.1,0.3-0.3,0.5-0.6,0.6
	c-0.2,0.1-0.3,0.1-0.5,0.2s-0.5,0-0.9,0L65.7,147.7z M66.9,146.6l0.9,0.1c0.3,0,0.5,0,0.6-0.1s0.2-0.3,0.2-0.5s0-0.4-0.1-0.5
	s-0.3-0.2-0.5-0.2l-1-0.1L66.9,146.6z M67.2,144.1l0.9,0.1c0.2,0,0.3,0,0.5-0.1c0.1-0.1,0.2-0.2,0.2-0.4s0-0.3-0.1-0.4
	c-0.1-0.1-0.2-0.2-0.4-0.2l-1-0.1L67.2,144.1z M61,140.9l1.2,0.2l-0.6,3.8c-0.1,0.4,0,0.7,0,0.9c0.1,0.2,0.3,0.3,0.5,0.4
	c0.3,0,0.5,0,0.6-0.2s0.3-0.4,0.3-0.9l0.6-3.8l1.2,0.2l-0.5,3.6c-0.1,0.5-0.2,0.9-0.3,1.2c-0.1,0.3-0.3,0.5-0.5,0.7
	s-0.5,0.3-0.7,0.4c-0.3,0.1-0.5,0.1-0.8,0c-0.3,0-0.6-0.1-0.8-0.3c-0.2-0.1-0.4-0.3-0.5-0.6s-0.2-0.5-0.3-0.8c0-0.3,0-0.7,0.1-1.2
	L61,140.9z M54.9,145.6l1.3-6l2.1,0.4c0.5,0.1,0.9,0.4,1.1,0.8c0.2,0.4,0.2,0.9,0.1,1.5c-0.1,0.6-0.4,1.1-0.7,1.4
	c-0.3,0.3-0.8,0.4-1.3,0.3l-0.9-0.2l-0.5,2.1L54.9,145.6z M56.8,142.5l0.8,0.2c0.2,0.1,0.4,0,0.5-0.1s0.2-0.3,0.3-0.5
	c0-0.2,0-0.4,0-0.6c-0.1-0.1-0.2-0.2-0.4-0.3l-0.8-0.2L56.8,142.5z M103.2,60.9l2.3-5.7l3.1,1.3l-0.5,1.2l-2-0.8l-0.5,1.2l1.7,0.7
	l-0.5,1.2l-1.7-0.7l-0.9,2.2L103.2,60.9z M99.3,59.4l2.3-5.7l1.1,0.5l-1.8,4.5l2.1,0.8l-0.5,1.2L99.3,59.4z M95.2,57.7l2.3-5.7
	l3.3,1.3l-0.5,1.2l-2.2-0.9l-0.4,1l2,0.8l-0.5,1.1l-2-0.8l-0.5,1.2l2.2,0.9L98.5,59L95.2,57.7z M91.5,54l1.1,0.4
	c-0.1,0.3-0.2,0.6-0.1,0.8s0.2,0.4,0.5,0.5c0.2,0.1,0.4,0.1,0.6,0.1s0.3-0.2,0.3-0.3s0.1-0.2,0.1-0.3s0-0.2-0.1-0.2
	c-0.1-0.1-0.2-0.3-0.5-0.5c-0.3-0.3-0.5-0.5-0.6-0.7c-0.2-0.3-0.4-0.6-0.4-0.9s0-0.7,0.1-1c0.2-0.5,0.6-0.9,1-1.1
	c0.4-0.2,0.9-0.2,1.4,0s0.8,0.5,1,1s0.1,1-0.1,1.6l-1-0.4c0.1-0.3,0.1-0.5,0-0.7s-0.2-0.3-0.4-0.4c-0.2-0.1-0.3-0.1-0.5,0
	c-0.2,0-0.3,0.2-0.3,0.3c-0.1,0.3,0.1,0.6,0.5,1c0.1,0.1,0.1,0.1,0.2,0.2l0,0c0.4,0.5,0.7,0.8,0.8,1c0.1,0.2,0.1,0.4,0.1,0.7
	c0,0.2-0.1,0.5-0.2,0.7c-0.2,0.6-0.6,1-1,1.1c-0.5,0.2-1,0.2-1.6-0.1c-0.6-0.2-0.9-0.6-1.1-1C91.2,55.3,91.2,54.7,91.5,54z M50,55
	l-2.9-5.4l3.1-1.7l0.6,1.1l-2,1.1l0.5,1l1.9-1l0.6,1.1l-1.9,1l0.6,1.2l2.1-1.2l0.6,1.1L50,55z M48.1,53.5c0.2,0.7,0.2,1.3,0.1,1.8
	c-0.2,0.5-0.5,0.9-1,1.1c-0.6,0.3-1.2,0.2-1.8-0.2s-1.1-1-1.5-1.9s-0.5-1.7-0.4-2.5c0.2-0.7,0.6-1.2,1.2-1.5c0.5-0.2,1-0.2,1.5,0
	s0.9,0.6,1.2,1.3l-1,0.4c-0.2-0.3-0.3-0.4-0.5-0.5s-0.4-0.1-0.6,0c-0.3,0.1-0.5,0.4-0.5,0.8s0.1,0.9,0.3,1.4s0.5,1,0.8,1.2
	s0.6,0.3,0.9,0.2c0.2-0.1,0.4-0.3,0.5-0.5s0.1-0.5,0-0.8L48.1,53.5z M43.2,58l-2.4-5.7l1.1-0.5l2.4,5.7L43.2,58z M39.7,59.3L36.1,54
	l1.2-0.4l1.7,2.8c0,0,0.1,0.1,0.1,0.2c0.2,0.3,0.4,0.6,0.5,0.8c0-0.1,0-0.3-0.1-0.5c0-0.2,0-0.4-0.1-0.7L39,53l1.2-0.4l0.5,6.4
	L39.7,59.3z M34,61l-1.8-5.9l2.1-0.7c0.6-0.2,1-0.2,1.4,0c0.3,0.2,0.6,0.6,0.8,1.1c0.1,0.3,0.1,0.6,0.1,0.9c0,0.3-0.2,0.5-0.3,0.8
	c0.2,0,0.4,0.1,0.5,0.3c0.1,0.1,0.3,0.4,0.4,0.8c0,0.1,0.1,0.3,0.2,0.5c0.2,0.5,0.3,0.7,0.4,0.8l0.1,0.2l-1.2,0.4
	c-0.1-0.2-0.2-0.5-0.4-0.8c-0.1-0.4-0.2-0.6-0.2-0.7c-0.1-0.2-0.2-0.4-0.3-0.5s-0.3-0.1-0.5,0l-0.8,0.2l0.7,2.2L34,61z M34,57.3
	l0.8-0.3c0.2-0.1,0.4-0.2,0.5-0.3s0.1-0.3,0-0.6c-0.1-0.2-0.2-0.4-0.3-0.4c-0.1-0.1-0.3-0.1-0.5,0L33.6,56L34,57.3z M29.7,62.6
	l-2-5.8l3.3-1.1l0.4,1.2l-2.2,0.8l0.4,1l2-0.7l0.4,1.2l-2,0.7l0.4,1.2l2.3-0.8l0.4,1.2L29.7,62.6z M24.4,61.7l1.1-0.3
	c0.1,0.3,0.2,0.6,0.4,0.7c0.2,0.1,0.4,0.2,0.7,0.1c0.2,0,0.4-0.2,0.5-0.3s0.1-0.3,0.1-0.5c0-0.1-0.1-0.2-0.1-0.3S27,61,26.9,61
	s-0.3-0.1-0.7-0.1c-0.4,0-0.7-0.1-0.9-0.2c-0.4-0.1-0.7-0.3-0.9-0.5c-0.2-0.2-0.4-0.5-0.5-0.9c-0.1-0.6-0.1-1.1,0.2-1.5
	s0.6-0.7,1.2-0.8c0.5-0.1,1,0,1.4,0.2c0.4,0.3,0.7,0.7,0.8,1.3l-1.1,0.3c-0.1-0.3-0.2-0.5-0.4-0.6c-0.1-0.1-0.4-0.1-0.6-0.1
	s-0.3,0.1-0.4,0.3c0,0.3,0,0.4,0,0.6c0.1,0.3,0.4,0.5,1,0.6c0.1,0,0.2,0,0.3,0l0,0c0.6,0.1,1,0.2,1.2,0.3s0.3,0.3,0.5,0.5
	c0.1,0.2,0.2,0.4,0.3,0.7c0.1,0.6,0.1,1.1-0.2,1.5c-0.3,0.4-0.7,0.7-1.3,0.8c-0.6,0.1-1.1,0.1-1.5-0.2
	C24.9,62.9,24.6,62.4,24.4,61.7z M78.7,44l3.1-5.4l3.1,1.7l-0.6,1.1l-2-1.2l-0.5,1l1.8,1L83,43.3l-1.8-1l-0.7,1.2l2.1,1.2L82,45.8
	L78.7,44z M73.7,42.4l2-5.8l2.1,0.7c0.6,0.2,0.9,0.5,1.1,0.8s0.2,0.8,0,1.4c-0.1,0.3-0.3,0.6-0.5,0.8s-0.4,0.3-0.7,0.4
	c0.2,0.2,0.3,0.3,0.3,0.5s0,0.5-0.2,0.9c0,0.1-0.1,0.3-0.2,0.5c-0.2,0.5-0.2,0.8-0.1,0.9l-0.1,0.2l-1.2-0.4c0-0.2,0.1-0.5,0.2-0.9
	s0.2-0.6,0.2-0.7c0.1-0.2,0.1-0.4,0-0.6c-0.1-0.1-0.2-0.2-0.4-0.3l-0.8-0.3l-0.8,2.2L73.7,42.4z M76,39.4l0.8,0.3
	c0.2,0.1,0.4,0.1,0.6,0c0.1-0.1,0.3-0.2,0.3-0.5c0.1-0.2,0.1-0.4,0-0.5s-0.2-0.3-0.4-0.3l-0.9-0.3L76,39.4z M68.3,38.8
	c0.1-1,0.3-1.8,0.8-2.3c0.4-0.6,1-0.8,1.7-0.8s1.3,0.4,1.7,1c0.4,0.6,0.6,1.4,0.5,2.4s-0.3,1.8-0.8,2.3s-1,0.8-1.7,0.8
	s-1.3-0.4-1.6-1C68.5,40.7,68.3,39.8,68.3,38.8z M69.6,38.9c0,0.6,0,1.1,0.2,1.5c0.2,0.3,0.4,0.5,0.8,0.5s0.6-0.1,0.8-0.5
	c0.2-0.3,0.3-0.8,0.4-1.4s0-1.1-0.2-1.5c-0.2-0.3-0.4-0.5-0.8-0.5s-0.6,0.1-0.8,0.5C69.7,37.8,69.6,38.3,69.6,38.9z M64.7,42.3
	L64,36.2l3.3-0.4l0.1,1.3l-2.1,0.2l0.1,1.3l1.8-0.2l0.1,1.3l-1.8,0.2l0.3,2.3L64.7,42.3z M60.2,43.7L57.9,38l3.3-1.3l0.5,1.2
	l-2.2,0.9l0.4,1l2-0.8l0.5,1.1l-2,0.8l0.5,1.2l2.2-0.9l0.5,1.2L60.2,43.7z M55.9,45.9l-3-5.4l2-1.1c0.5-0.3,0.9-0.3,1.2-0.3
	s0.7,0.4,0.9,0.8c0.2,0.3,0.3,0.5,0.3,0.8s-0.1,0.5-0.2,0.7c0.3,0,0.5,0,0.8,0.1c0.2,0.1,0.5,0.4,0.6,0.7c0.2,0.3,0.3,0.6,0.3,0.9
	c0,0.3,0,0.6-0.1,0.8s-0.2,0.3-0.3,0.5c-0.2,0.1-0.4,0.3-0.8,0.5L55.9,45.9z M56.3,44.2l0.8-0.4c0.3-0.1,0.4-0.3,0.4-0.4
	s0-0.3-0.1-0.5s-0.2-0.3-0.4-0.4c-0.2,0-0.3,0-0.5,0.1l-0.9,0.5L56.3,44.2z M55,42l0.8-0.5c0.2-0.1,0.3-0.2,0.3-0.3s0-0.3-0.1-0.5
	s-0.2-0.3-0.3-0.3s-0.3,0-0.4,0.1L54.4,41L55,42z M30.9,108.6L30.9,108.6L30.9,108.6l-0.8,0.7l-1.1-0.7l0,0l0,0l-4.8-3.1
	c-0.1,3.7,1.1,12.7,7.8,22.5s15.4,13.1,15.4,13.1l4.7-10.4c0,0-6.8-4.5-11-10.4c-4.2-6-5.2-15.5-5.2-15.5L30.9,108.6z M107.2,108.6
	L107.2,108.6L107.2,108.6l0.8,0.7l1.1-0.7l0,0l0,0l4.8-3.1c0.1,3.7-1.1,12.7-7.8,22.5s-15.4,13.1-15.4,13.1L86,130.7
	c0,0,6.8-4.5,11-10.4c4.2-6,5.2-15.5,5.2-15.5L107.2,108.6z M67.7,138.4L67.7,138.4c-0.3,0.1-0.5,0.1-0.8,0.1
	C58.6,138.3,52,135,52,135c-0.1-0.1-5.2,10.2-5.2,10.2s8,5.1,19.6,5.7v-0.1c1,0.1,2.1,0.1,3.1,0.1c12.8,0,21.9-5.8,21.9-5.8
	s-5.1-10.3-5.2-10.2c0,0-6.6,3.3-14.9,3.5C70,138.5,68.8,138.5,67.7,138.4z M30.5,75.5l4.2-3l0.8,0.8l-5,3.5v1.3l4.2-2.9l0.8,0.8
	l-5,3.5v1.8l4.2-2.9l0.8,0.8l-5,3.5v2.5l4.1-2.9l0.8,0.8l-4.9,3.5v1.9l4.1-2.9l0.8,0.8l-4.9,3.4v1.7l4-2.8l0.8,0.8l-4.9,3.4V95
	l4-2.8l0.8,0.8l-4.8,3.4v1.8l3.9-2.8l0.8,0.8l-4.8,3.4v2.2l3.9-2.8l0.8,0.8l-4.7,3.3v2.1l3.7-3.1l0.8,0.8l-4.5,3.7v0.5l6-4.7
	l0.2,2.2c0.1,1.3,0.4,2.6,0.7,3.9c0.6,2.7,1.4,5.5,2.6,8c0.5,1.1,1.1,2.1,1.8,3.1c1.9,2.7,4.3,5.1,6.8,7.2c1.2,1,2.5,2,3.8,2.9
	l0.9,0.6l-1.6,3.5c0.2,0,0.4,0,0.6,0.1c1.3,0.6,2.8,1.2,4.2,1.6c3.1,1,6.4,1.6,9.6,1.7v-0.1c1.6,0.1,3.2,0.2,4.8,0.2
	c3.5-0.1,6.9-0.7,10.2-1.8c1.3-0.4,2.9-1,4.2-1.6c0.2-0.1,0.4-0.1,0.6-0.1l-1.6-3.5l0.9-0.6c1.3-0.9,2.6-1.9,3.8-2.9
	c2.5-2.1,4.9-4.5,6.8-7.2c0.7-1,1.3-2,1.8-3.1c1.2-2.5,2-5.3,2.6-8c0.3-1.3,0.5-2.6,0.7-3.9l0.2-2.2l6,4.7v-0.5l-4.6-3.8l0.8-0.8
	l3.8,3.3v-2.1l-4.7-3.3l0.8-0.8l3.9,2.8v-2.2l-4.8-3.4l0.8-0.8l4,2.8v-1.8l-4.8-3.4l0.8-0.8l4,2.8V93l-4.8-3.4l0.8-0.8l4,2.8v-1.7
	l-4.9-3.4l0.8-0.8l4.1,2.9v-1.9l-4.9-3.5l0.8-0.8l4.1,2.9v-2.5l-5-3.5l0.8-0.8l4.2,2.9v-1.8l-5-3.5l0.8-0.8l4.2,2.9v-1.3l-5-3.5
	l0.8-0.8l4.2,3v-0.7l2.1-4.1l0.9,0.8l-1.8,3.6v0.3l4-3l0.9,0.8l-4.9,3.6v1.3l4-3L113,76l-4.8,3.6v1.7l3.9-2.9l0.9,0.8l-4.8,3.6v2.4
	l3.9-2.9l0.9,0.8l-4.7,3.5v1.9l3.9-2.9l0.9,0.8l-4.7,3.5v1.7l3.8-2.9l0.9,0.8l-4.7,3.5v2.1l3.8-2.8l0.9,0.8l-4.6,3.4v1.7l3.7-2.8
	l0.9,0.8l-4.6,3.4v2.2l3.7-2.8l0.9,0.8l-4.5,3.4v2.1l3.7-2.7l0.9,0.8l-4.5,3.4v0.7l6-3.9l0.1,2.2c0.1,3-0.6,6.4-1.4,9.3
	c-1.4,5-3.7,9.7-6.6,13.9c-2.8,4.1-6.4,7.8-10.5,10.6c-1.2,0.8-2.5,1.6-3.9,2.3c-0.5,0.3-1.1,0.5-1.6,0.7c0.4,0.8,0.8,1.6,1.2,2.4
	l0.5,1l-0.9,0.6c-0.6,0.4-1.2,0.7-1.7,1c-1.5,0.8-3.1,1.4-4.7,2c-5.2,1.9-10.7,2.9-16.2,2.9c-0.6,0-1.2,0-1.8,0l0,0
	c-5.2-0.1-10.4-1.1-15.2-2.9c-1.6-0.6-3.1-1.3-4.7-2c-0.6-0.3-1.2-0.6-1.7-1l-0.9-0.6l0.5-1c0.4-0.8,0.8-1.6,1.2-2.4
	c-0.5-0.2-1.1-0.5-1.6-0.7c-1.3-0.7-2.6-1.4-3.9-2.3c-4.1-2.8-7.7-6.4-10.5-10.6c-2.9-4.3-5.2-9-6.6-13.9c-0.8-2.9-1.5-6.3-1.4-9.3
	v-2.2l6,3.9v-0.7l-4.5-3.4l0.9-0.8L29,105v-2.1l-4.5-3.4l0.9-0.8l3.7,2.8v-2.2L24.4,96l0.9-0.8L29,98v-1.7l-4.6-3.4l0.9-0.8l3.8,2.8
	v-2.1l-4.7-3.5l0.9-0.8l3.8,2.9v-1.7l-4.7-3.5l0.9-0.8l3.9,2.9v-1.9l-4.7-3.5l0.9-0.8l3.9,2.9v-2.4L24.4,79l0.9-0.8l4,2.9v-1.7
	l-4.8-3.6l0.9-0.8l4,3v-1.3l-4.9-3.6l0.9-0.8l4,3V75l-1.9-3.6l0.9-0.8l2.1,4.1V75.5z M44.4,65.9v-1.2l-4.7,0.1V66L44.4,65.9z
	 M44.6,67.7l-0.1-1.2L39.8,67l0.1,1.2L44.6,67.7z M44.9,69.5l-0.2-1.1L40,69.2l0.2,1.1L44.9,69.5z M45.4,71.3l-0.3-1.1l-4.6,1.2
	l0.3,1.1L45.4,71.3z M46,73l-0.4-1l-4.5,1.6l0.4,1.1L46,73z M46.7,74.7l-0.5-1.1l-4.3,1.9l0.5,1.1L46.7,74.7z M47.5,76.4l-0.5-1
	l-4.2,2.2l0.5,1L47.5,76.4z M48.5,77.9l-0.6-1l-4,2.5l0.6,1L48.5,77.9z M49.6,79.4l-0.7-0.9l-3.8,2.8l0.7,0.9L49.6,79.4z M50.8,80.8
	L50,79.9L46.4,83l0.8,0.9L50.8,80.8z M52.1,82.1l-0.8-0.8L48,84.7l0.8,0.8L52.1,82.1z M53.5,83.3l-0.9-0.7l-3,3.6l0.9,0.7L53.5,83.3
	z M55,84.4l-0.9-0.7l-2.8,3.9l0.9,0.7L55,84.4z M56.6,85.3l-1-0.6l-2.4,4.1l1,0.6L56.6,85.3z M58.3,86.2l-1-0.5l-2.1,4.2l1,0.5
	L58.3,86.2z M60,86.9l-1.1-0.4l-1.8,4.4l1.1,0.4L60,86.9z M61.7,87.5l-1.1-0.3l-1.4,4.5l1.1,0.3L61.7,87.5z M63.5,87.9l-1.1-0.3
	l-1.1,4.6l1.1,0.3L63.5,87.9z M92.7,65.9v-1.2l4.7,0.1V66L92.7,65.9z M92.5,67.7l0.1-1.2l4.7,0.5l-0.1,1.2L92.5,67.7z M92.2,69.5
	l0.2-1.1l4.7,0.8l-0.2,1.1L92.2,69.5z M91.8,71.3l0.3-1.1l4.6,1.2l-0.3,1.1L91.8,71.3z M91.2,73l0.4-1.1l4.5,1.6l-0.4,1.1L91.2,73z
	 M90.4,74.7l0.5-1.1l4.3,1.9l-0.5,1.1L90.4,74.7z M89.6,76.4l0.5-1l4.2,2.2l-0.5,1L89.6,76.4z M88.6,77.9l0.6-1l4,2.5l-0.6,1
	L88.6,77.9z M87.5,79.4l0.7-0.9l3.8,2.8l-0.7,0.9L87.5,79.4z M86.3,80.8l0.8-0.9l3.6,3.1l-0.8,0.9L86.3,80.8z M85,82.1l0.8-0.8
	l3.3,3.4l-0.8,0.8L85,82.1z M83.6,83.3l0.9-0.7l3,3.6l-0.9,0.7L83.6,83.3z M82.1,84.4l0.9-0.7l2.8,3.9l-0.9,0.7L82.1,84.4z
	 M80.5,85.3l1-0.6l2.4,4.1l-1,0.6L80.5,85.3z M78.9,86.2l1-0.5l2.1,4.2l-1,0.5L78.9,86.2z M77.2,86.9l1.1-0.4l1.8,4.4L79,91.3
	L77.2,86.9z M75.4,87.5l1.1-0.3l1.4,4.5l-1,0.3L75.4,87.5z M73.6,87.9l1.1-0.3l1.1,4.6l-1.1,0.3L73.6,87.9z M70.6,114.7
	C70.6,114.7,70.5,114.7,70.6,114.7c-2.3,0.2-4.7,0.2-6.8,0h-0.1l0,0c-0.1,0.3-0.2,0.6-0.1,0.9c0.2,0.8,1.5,1.2,2.2,1.4
	c1.6,0.4,3.4,0.2,5-0.2c0.1,0,0.2,0,0.2-0.1c-0.1-0.1-0.2-0.1-0.2-0.2C70.3,115.9,70.3,115.3,70.6,114.7z M73,115.6
	c-0.3-0.5-0.5-1-0.6-1.5c0,0-0.1,0-0.1,0.1l-0.2,0.2c-0.2,0.2-0.7,1-0.4,1.3c0.3,0.3,0.8,0.2,1.1,0.1L73,115.6z M71.5,113.2
	L71.5,113.2L71.5,113.2c0.2-0.1,0.4-0.2,0.6-0.3c0-0.3-0.1-0.6-0.1-0.8c0-0.1,0-0.2,0-0.4l0,0c-0.3,0.1-0.6,0.1-0.9,0.1
	c-0.2,0.4-0.2,1,0.3,1.3L71.5,113.2C71.4,113.3,71.5,113.2,71.5,113.2z M70,113.6c-0.3-0.5-0.4-1.1-0.3-1.7c-0.4,0-0.8,0-1.2,0
	c-1.8-0.1-3.6-0.2-5.4-0.5c-0.3-0.1-0.7-0.1-1-0.3c0,0.3,0,0.8,0.1,1.1c0.2,0.8,0.7,1.2,1.6,1.3C65.8,113.7,68,113.7,70,113.6z
	 M69.3,109c-0.4,0-0.8,0-1.3,0c-1-0.1-2.1-0.2-3.1-0.3c-1.1-0.2-2.3-0.4-3.3-0.9c0,0-0.1,0-0.1-0.1c-0.1,0.3-0.2,0.7-0.2,1
	c0.1,0.9,1.2,1.3,2,1.4c1.7,0.3,3.5,0.4,5.2,0.5c0.2,0,0.5,0,0.7,0C69,110.2,69,109.6,69.3,109z M70.7,108.9l-0.2,0.2
	c-0.3,0.4-0.4,1,0.1,1.3l0.3,0.2c0.3,0,0.5,0,0.8-0.1h0.1c-0.1-0.5-0.3-1.1-0.6-1.4l-0.2-0.3C70.9,108.9,70.8,108.9,70.7,108.9z
	 M72.2,105.7l-0.2,0.2c-0.3,0.3-0.7,0.8-0.6,1.2c0.1,0.2,0.4,0.3,0.7,0.3c0.5-0.2,1-0.4,1.2-0.6v-0.2c-0.1-0.2-0.2-0.3-0.3-0.5
	c-0.1-0.2-0.2-0.4-0.3-0.5C72.6,105.6,72.4,105.7,72.2,105.7z M70.5,105.8c-0.1,0-0.3,0-0.4,0c-2.4,0-5.9-0.3-8.1-1.3
	c-0.2-0.1-0.3-0.2-0.5-0.2c-0.2,0.3-0.3,0.6-0.3,0.9c-0.1,0.8,0.3,1.2,1,1.6c0.9,0.4,2,0.6,3,0.8c1,0.2,2,0.2,2.9,0.3
	c0.7,0,1.3,0.1,2,0c0.1,0,0.3,0,0.4,0c-0.1-0.2-0.2-0.3-0.2-0.5C70.1,106.8,70.2,106.3,70.5,105.8z M72.1,104.5
	c-1.7-2.2-3.9-3-7.2-2.8c-1,0.1-2.4,0.1-3.4-0.2l0,0c-0.1,0.2-0.2,0.5-0.2,0.7c0,0.6,0.7,1,1.2,1.3c2.1,0.9,5.4,1.2,7.6,1.2
	C70.7,104.7,71.4,104.6,72.1,104.5z M59.6,97.2c-0.2,0.6-0.3,1.4-0.2,2c0,0.1,0,0.1,0.1,0.2c0.5,0.5,2.2,0.2,2.8,0s1.4-1.2,2.1-2
	C62.8,97.3,61,97.6,59.6,97.2z M71.7,69.1c0.6-0.4,1-2.3,1.1-2.9c0.1-0.3,0.4-0.6,0.7-0.5c0.3,0.1,0.6,0.4,0.5,0.7
	c-0.2,0.9-0.7,3.1-1.7,3.7c-0.3,0.2-0.7,0.1-0.8-0.2C71.4,69.7,71.5,69.3,71.7,69.1z M72.8,70.8c0.7-0.7,1.9-2,2.3-2.9
	c0.1-0.3,0.5-0.4,0.8-0.3s0.4,0.5,0.3,0.8c-0.5,1.1-1.7,2.5-2.6,3.3c-0.3,0.2-0.6,0.2-0.9,0C72.5,71.4,72.6,71,72.8,70.8z
	 M66.5,69.1c0.3,0.2,0.3,0.6,0.2,0.8c-0.2,0.3-0.6,0.4-0.8,0.2c-0.9-0.6-1.5-2.7-1.7-3.7c-0.1-0.3,0.2-0.7,0.5-0.7
	c0.3-0.1,0.7,0.2,0.7,0.5C65.5,66.9,65.9,68.7,66.5,69.1z M64.6,71.7c-0.9-0.8-2.1-2.2-2.6-3.3c-0.1-0.3,0-0.7,0.3-0.8
	c0.3-0.1,0.7,0,0.8,0.3c0.4,0.9,1.6,2.2,2.3,2.9c0.3,0.2,0.3,0.6,0,0.9C65.2,71.9,64.8,71.9,64.6,71.7z M74.5,73.1
	c0.3-0.7,0.8-1.7,1.4-2.1c0.2-0.1,0.6-0.6,0.7-0.8c0.4-0.6,0.8-1.2,1.2-1.8c0.9-1.7,1.6-3.5,1.6-5.4c0.1-1.8-0.1-3.7-0.4-5.5
	c0-0.1,0-0.2,0-0.2c-0.4,0.8-0.9,1.6-1.3,2.3c-0.6,0.9-1.2,1.9-1.7,2.8c-0.1,0.2-0.3,0.3-0.5,0.3s-0.4-0.1-0.5-0.3s-0.1-0.4,0-0.5
	c0-0.2,0.1-0.4,0.1-0.6c0.1-0.8,0.2-1.5,0.3-2.3c0.2-1.2,0.1-2.5,0-3.7c0-0.6-0.1-1.2-0.2-1.8c-0.4,1-0.9,2-1.3,2.7
	c-0.7,1.4-1.5,2.8-2.3,4.2c-0.2,0.3-0.5,0.4-0.8,0.2s-0.4-0.5-0.3-0.8c0.1-0.2,0.2-0.6,0.2-0.8c0.1-0.9,0.1-2,0-2.9
	c-0.1-1.2-0.6-2.7-1.1-4c-0.2,0.7-0.3,1.3-0.5,1.9c-0.4,1.1-0.8,2.2-1.2,3.3c-0.6,1.4-1.1,2.9-1.7,4.3c-0.1,0.2-0.3,0.3-0.5,0.4
	c-0.2,0-0.4,0-0.6-0.2s-0.3-0.5-0.4-0.7c-0.4-0.8-0.8-1.6-1.2-2.4c-0.4-0.9-0.8-1.9-1.1-2.8v-0.1l0.2,6.9c0,0.3-0.2,0.5-0.4,0.6
	s-0.5,0-0.7-0.3l-3.3-5.4c-0.1,0.5-0.3,0.9-0.3,1.3c-0.4,1.9-0.4,3.9,0,5.7c0.1,0.5,0.3,1,0.4,1.5c0.6,1.8,1.6,3.5,2.6,5
	c0.4,0.6,0.9,1.3,1.3,1.9L74.5,73.1L74.5,73.1z M61.2,60.4L61,51.3c0-0.3,0.2-0.6,0.5-0.6s0.6,0.1,0.7,0.5c0.4,1.4,0.8,2.9,1.3,4.3
	c0.3,0.9,0.7,1.8,1.1,2.7c0.3,0.6,0.6,1.3,0.9,1.8c0.4-1,0.8-2.1,1.2-3.1c0.4-1.1,0.8-2.2,1.2-3.3c0.4-1.1,0.7-2.6,0.7-3.8
	c0-0.3,0.2-0.5,0.5-0.6s0.6,0.1,0.7,0.3c0.9,1.8,1.8,4.4,2.1,6.4c0,0.3,0.1,0.8,0.1,1.2c0.3-0.5,0.6-1.1,0.8-1.6
	c0.5-1,1.4-2.7,1.5-3.7c0.1-0.7,0.2-1.4,0.3-2.1c0.1-0.3,0.3-0.5,0.6-0.5c0.3,0,0.6,0.2,0.6,0.5c0.3,1.8,0.6,3.7,0.7,5.5
	c0.1,1.3,0.2,2.7,0,3.9c0,0,0,0,0,0.1c0-0.1,0.1-0.1,0.1-0.2c0.4-0.7,0.9-1.5,1.3-2.3c0.2-0.3,0.6-1.2,0.7-1.6
	c0-0.3,0.2-0.5,0.5-0.6c0.3,0,0.6,0.2,0.7,0.5c0.2,0.8,0.3,1.6,0.5,2.4c0.3,1.9,0.4,3.8,0.4,5.7c-0.1,2.1-0.8,4.2-1.8,6
	c-0.4,0.8-1.5,2.5-2.3,3c-0.3,0.2-0.8,1.3-1,1.7c0,0,0,0,0,0.1v2.3H61.3V74c-0.5-0.7-1.1-1.4-1.5-2.1c-1.1-1.7-2.1-3.4-2.7-5.3
	c-0.2-0.5-0.3-1.1-0.5-1.6c-0.5-2-0.5-4.2,0-6.3c0.2-0.9,0.5-1.9,0.8-2.7c0.1-0.2,0.3-0.3,0.5-0.4c0.2,0,0.4,0.1,0.6,0.3L61.2,60.4z
	 M60.6,78.1h4h7.7h4c-0.2,2.3-0.9,3.9-2.4,4.6h-1.6h-7.7H63C61.5,82,60.8,80.4,60.6,78.1z M63,84.4h11.1v2.2H63V84.4z M68.8,43.3
	c5.2-0.2,10.6,1.4,14,4.7l4.3-7.5c-5.3-4.1-11.3-6.3-17.7-6.3l0,0c-0.2,0-0.4,0-0.6,0c-0.1,0-0.2,0-0.3,0l0,0
	c-6.5,0-12.6,2.2-18,6.3l4.3,7.5C58.3,44.7,63.7,43.2,68.8,43.3z M88.7,40.3l-1.2,2l0.2,0.1c1,0.6,2,1.2,3,1.8
	c2.3,1.4,4.7,2.6,7.1,3.8c1.2,0.6,2.6,1.1,3.8,1.5c1.6,0.5,3.3,1,4.9,1.5c3.8,1.1,7.7,2.1,11.6,3l1.7,0.3l-1.3,2.5
	c-0.4,0.6-0.8,1.3-1.1,1.9c-0.5,0.8-1,1.5-1.4,2.3l2.5,8.6l-2.1-0.6c-6.1-1.7-12.3-3.4-18.2-5.7c-0.2-0.1-0.4-0.1-0.6-0.2v0.7
	L92.7,64l-0.1-1.2l3.7-0.2c-5.6-2.2-10.8-4.9-15.9-8.1l-1-0.6l2.7-4.7c-3-3.1-8-4.7-12.8-4.7l0,0c-0.2,0-0.4,0-0.6,0
	c-0.1,0-0.2,0-0.3,0l0,0c-4.9-0.1-10.1,1.4-13.1,4.6l2.7,4.7l-1,0.6c-5.1,3.3-10.4,6-16,8.2l3.2,0.2l0.2,1.2l-4.7-0.3v-0.5
	c-6,2.2-12.1,4-18.2,5.7l-2.1,0.6l2.5-8.6c-0.5-0.8-1-1.5-1.4-2.3c-0.4-0.6-0.8-1.3-1.1-1.9L18,54.3l1.6-0.3c3.9-0.9,7.8-1.9,11.6-3
	c1.7-0.5,3.3-1,4.9-1.5c1.3-0.4,2.6-0.9,3.8-1.5c2.4-1.2,4.8-2.5,7.1-3.8c1-0.6,2-1.2,3-1.8l0.2-0.1l-1.2-2
	c6.8-5.5,13.7-7.3,19.8-7.2C75,33,81.9,34.7,88.7,40.3z M117.9,55.2c0,0-15.1-3.4-20.7-6.1C91.6,46.4,87,43.4,87,43.4l-3.8,6.4
	l-2.1,3.7c11.9,7.7,22,10.5,35.4,14.3l-2.1-7C114.5,60.8,117.7,55.6,117.9,55.2z M19.8,55.2c0,0,15.1-3.4,20.7-6.1
	c5.6-2.7,10.2-5.7,10.2-5.7l3.8,6.4l2.1,3.7c-12,7.7-22,10.5-35.4,14.3l2-7C23.2,60.8,20,55.6,19.8,55.2z M64.1,88.6l-0.7,4.2
	l1.1,0.2l0.5-3.4h1l-0.1,6.7h-0.7l-0.1-0.1v0.1c-1.7,0-4.7,0.3-6.2-0.1l-0.2,0.4c-0.1,0.2-0.2,0.4-0.2,0.6c-0.2,0.8-0.5,1.5-0.3,2.3
	c0.2,1,1.2,1.3,2.2,1.4c0,0,0,0,0,0.1c-0.3,0.4-0.4,0.9-0.4,1.4s0.2,1,0.5,1.3c-0.3,0.4-0.5,1-0.6,1.5c-0.1,0.8,0.1,1.5,0.6,2l0,0
	c-0.3,0.5-0.4,1.2-0.4,1.8c0.1,0.7,0.4,1.2,0.9,1.6v0.2c-0.1,0.6,0,1.3,0.1,1.8c0.2,0.8,0.7,1.4,1.3,1.8c-0.2,0.5-0.3,1.1-0.1,1.5
	c0.3,1.4,1.8,2,3.1,2.3c0.1,0,0.2,0,0.2,0.1l-0.1,6.7c-1.3,0.9-2.2,2.5-2.2,4.2c0,2.9,2.3,5.2,5.2,5.2c2.8,0,5.2-2.3,5.2-5.2
	c0-1.8-0.9-3.3-2.2-4.2l-0.1-7.1c0.7-0.2,1.7-0.6,2.3-1c0.5,0.6,1.2,1.1,1.9,1.4c1.4,0.6,2.9,1.1,4.4,1.6c1.3,0.4,2.8,0.9,4.1,1.6
	c1.2,0.7,2.4,2.2,2.9,3.5c0.3,0.9,1.5,0.4,1.1-0.4c-0.6-1.5-1.9-3.3-3.4-4.1c-1.3-0.7-2.9-1.2-4.3-1.7s-2.9-0.9-4.3-1.5
	c-0.6-0.3-1.2-0.7-1.6-1.2l0.1-0.1l-0.5-0.3c-0.4-0.6-0.7-1.2-0.8-1.9l0.1-0.1l-0.2-0.3c-0.1-0.3-0.1-0.7-0.1-1
	c-0.1-1-0.3-2.6-1-3.5h0.1c0.8,0,1-0.3,1.6-0.7c0.6,1.1,1.1,2.2,1.7,3.3c1,1.8,3.1,4.3,5.4,4.3c1,0,0.9-1.2,0-1.2
	c-2-0.2-3.5-2-4.4-3.6c-0.9-1.7-1.6-3.4-2.5-5c-0.2-0.4-0.5-0.8-0.7-1.2v-0.1l0,0c-2-2.8-4.7-4-8.6-3.8c-0.7,0-1.5,0.1-2.3,0
	c0,0,0.1,0,0.2-0.1c1.1-0.4,2.4-2.1,3.1-3.1c1.5,0,3,0,4.4,0.1c5.8,0.1,10.4,2.9,13.9,7.1c3.1,3.7,5.3,7.3,6.6,11.8
	c0.5,1.8,1,3.7,1.5,5.5c0.2,0.9,1.4,0.6,1.2-0.3c-0.4-1.9-0.9-3.7-1.5-5.6c-1.3-4.7-3.6-8.4-6.8-12.3c-3.6-4.2-8.2-7.1-13.9-7.5
	L71,89.7h1l0.5,3.4l1.1-0.2L73,88.2v-0.4h-8.9V88.6z"/>
<path class="st0" d="M68.8-0.1L68.8-0.1L68.8-0.1l0.1-0.1L69-0.1l29,18.9L97.3,21c-1.4,4.8-1.1,10.3,2.7,13.9
	c2.3,2.2,5.3,3.2,8.5,3.2c4.4,0,8.7-2,12.3-4.5l1.9-1.4l13.2,11.2l-1.8,2.3c-1.4,1.7-2.7,5.3-3.3,7.3c-2.6,8.2-2.9,17.5-2.4,25.9
	c0.5,8.1,0.9,16.3,0.7,24.4c-0.1,5.9-0.5,11.9-1.6,17.7c-1.4,7.8-3.8,15.3-9.1,21.4c-6.7,7.8-15.7,11.7-25.3,14.7
	c-3.4,1.1-7,1.8-10.4,2.9c-3.7,1.2-6.8,2.8-9.7,5.3l-4,3.9l-4.1-3.9c-2.9-2.5-6-4.1-9.7-5.3c-3.4-1.1-7-1.8-10.5-2.9
	c-9.6-3.1-18.6-7-25.3-14.7c-5.2-6.1-7.7-13.6-9.1-21.4c-1-5.8-1.4-11.8-1.6-17.7C8.5,95.2,8.9,87.1,9.4,79C10,70.5,9.6,61.2,7,53
	c-0.6-2-1.9-5.6-3.3-7.3l-1.8-2.3l13.2-11.2l2,1.4c3.5,2.5,7.8,4.4,12.3,4.5c3.1,0,6.2-1,8.5-3.2c3.8-3.6,4.1-9.1,2.7-13.9l-0.7-2.2
	L68.8-0.1z M127.5,44.4l-5.3-4.5c-4.2,2.5-8.9,4.2-13.8,4.3c-4.8,0-9.3-1.6-12.8-4.9c-4.9-4.7-6.2-11.4-4.9-17.8L68.8,7.2L46.9,21.5
	c1.3,6.4,0,13.1-4.9,17.8c-3.5,3.3-8,4.9-12.8,4.9c-4.9,0-9.6-1.7-13.8-4.3l-5.3,4.5c1.2,2.2,2.1,4.8,2.7,6.7
	c2.8,8.9,3.3,18.9,2.7,28.2c-0.5,7.9-0.8,15.9-0.7,23.8c0.1,5.6,0.5,11.3,1.5,16.8c1.2,6.7,3.2,13.2,7.7,18.4
	c5.9,6.8,14.1,10.2,22.5,12.9c3.4,1.1,7,1.8,10.5,2.9c4.5,1.4,8.3,3.4,11.9,6.5l0,0l0,0c3.5-3.1,7.4-5.1,11.9-6.5
	c3.5-1.1,7-1.8,10.5-2.9c8.4-2.7,16.6-6.1,22.5-12.9c4.5-5.2,6.5-11.8,7.7-18.4c1-5.5,1.3-11.2,1.5-16.8c0.2-7.9-0.1-15.9-0.7-23.8
	c-0.6-9.3-0.1-19.3,2.7-28.2C125.4,49.2,126.4,46.6,127.5,44.4z"/>
<g>
	<path class="st1" d="M160,15.4h13.6c11,0,18.6,7.5,18.6,17.4v0.1c0,9.9-7.6,17.5-18.6,17.5H160V15.4z M173.6,43.5
		c6.3,0,10.6-4.3,10.6-10.5v-0.1c0-6.2-4.3-10.5-10.6-10.5h-5.9v21.1C167.7,43.5,173.6,43.5,173.6,43.5z"/>
	<path class="st1" d="M196.7,15.4h26.4v6.8h-18.8v7.1h16.5v6.8h-16.5v7.3h19v6.8h-26.7L196.7,15.4L196.7,15.4z"/>
	<path class="st1" d="M227.9,15.4h7.7v28H253v7h-25.2L227.9,15.4L227.9,15.4z"/>
	<path class="st1" d="M256.5,15.4h7.7v13.8h14.2V15.4h7.7v35h-7.7v-14h-14.2v14h-7.7V15.4z"/>
	<path class="st1" d="M292.5,15.4h7.7v35h-7.7V15.4z"/>
	<path class="st1" d="M319.3,15.4h14.3c8.4,0,13.4,5,13.4,12.1v0.1c0,8.1-6.3,12.3-14.1,12.3H327v10.5h-7.7V15.4L319.3,15.4z
		 M333.1,33.1c3.9,0,6.1-2.3,6.1-5.3v-0.1c0-3.5-2.4-5.3-6.3-5.3h-6v10.7H333.1L333.1,33.1z"/>
	<path class="st1" d="M349.8,35.4v-20h7.7v19.8c0,5.7,2.9,8.6,7.5,8.6c4.7,0,7.5-2.8,7.5-8.4v-20h7.7v19.8c0,10.6-6,15.8-15.4,15.8
		C355.6,51,349.8,45.7,349.8,35.4z"/>
	<path class="st1" d="M385.9,15.4h16.3c4,0,7.1,1.1,9.1,3.1c1.6,1.6,2.4,3.5,2.4,6v0.1c0,4-2.1,6.2-4.6,7.5c4,1.5,6.5,3.9,6.5,8.6
		v0.1c0,6.4-5.2,9.6-13.1,9.6h-16.7L385.9,15.4L385.9,15.4z M400.5,29.6c3.4,0,5.5-1.1,5.5-3.7v-0.1c0-2.3-1.8-3.6-5-3.6h-7.6v7.4
		C393.4,29.6,400.5,29.6,400.5,29.6z M402.5,43.7c3.4,0,5.5-1.2,5.5-3.8v-0.1c0-2.3-1.8-3.8-5.7-3.8h-8.9v7.7L402.5,43.7L402.5,43.7
		z"/>
	<path class="st1" d="M419.6,15.4h7.7v28h17.5v7h-25.1L419.6,15.4L419.6,15.4z"/>
	<path class="st1" d="M448.6,15.4h7.7v35h-7.7V15.4z"/>
	<path class="st1" d="M461.1,33L461.1,33c0-10,7.5-18.2,18.3-18.2c6.6,0,10.5,2.2,13.8,5.4l-4.9,5.7c-2.7-2.5-5.5-4-9-4
		c-5.9,0-10.1,4.9-10.1,10.9v0.1c0,6,4.1,11,10.1,11c4,0,6.5-1.6,9.2-4.1l4.9,5c-3.6,3.8-7.6,6.2-14.4,6.2
		C468.8,51,461.1,43.1,461.1,33z"/>
	<path class="st1" d="M507.5,45.3l4.6-5.5c3.2,2.6,6.5,4.3,10.5,4.3c3.2,0,5-1.3,5-3.3v-0.1c0-2-1.2-3-7-4.5
		c-7-1.8-11.6-3.8-11.6-10.7v-0.1c0-6.4,5.1-10.6,12.3-10.6c5.1,0,9.5,1.6,13,4.5l-4,5.8c-3.1-2.2-6.2-3.5-9.1-3.5
		c-3,0-4.5,1.3-4.5,3v0.1c0,2.3,1.5,3,7.5,4.6c7.1,1.8,11.1,4.4,11.1,10.5v0.1c0,7-5.3,10.8-12.8,10.8
		C517.1,50.9,511.7,49.1,507.5,45.3z"/>
	<path class="st1" d="M538,33L538,33c0-10,7.5-18.2,18.3-18.2c6.6,0,10.5,2.2,13.8,5.4l-4.9,5.7c-2.7-2.5-5.5-4-9-4
		c-5.9,0-10.2,4.9-10.2,10.9v0.1c0,6,4.2,11,10.2,11c4,0,6.5-1.6,9.2-4.1l4.9,5c-3.6,3.8-7.6,6.2-14.3,6.2C545.7,51,538,43.1,538,33
		z"/>
	<path class="st1" d="M574.2,15.4h7.7v13.8h14.2V15.4h7.7v35h-7.7v-14h-14.2v14h-7.7V15.4z"/>
	<path class="st1" d="M608.3,33L608.3,33c0-10,7.8-18.2,18.7-18.2c10.8,0,18.5,8.1,18.5,18v0.1c0,10-7.8,18.1-18.7,18.1
		C616,51,608.3,43,608.3,33z M637.5,33L637.5,33c0-6.1-4.4-11.1-10.6-11.1c-6.2,0-10.5,4.9-10.5,10.9v0.1c0,6,4.4,11,10.6,11
		C633.2,43.9,637.5,39,637.5,33z"/>
	<path class="st1" d="M648.5,33L648.5,33c0-10,7.8-18.2,18.7-18.2c10.8,0,18.6,8.1,18.6,18v0.1c0,10-7.8,18.1-18.7,18.1
		C656.2,51,648.5,43,648.5,33z M677.6,33L677.6,33c0-6.1-4.4-11.1-10.6-11.1c-6.2,0-10.5,4.9-10.5,10.9v0.1c0,6,4.4,11,10.6,11
		C673.3,43.9,677.6,39,677.6,33z"/>
	<path class="st1" d="M690.2,15.4h7.7v28h17.5v7h-25.2V15.4z"/>
	<path class="st1" d="M335.9,67.4h7.7v15.3l14.2-15.3h9.3l-14.3,14.8l14.9,20.2h-9.3l-10.9-14.9l-4,4.2v10.7h-7.7L335.9,67.4
		L335.9,67.4z"/>
	<path class="st1" d="M365.7,85L365.7,85c0-10.1,7.9-18.2,18.6-18.2c10.8,0,18.5,8.1,18.5,18v0.1c0,9.9-7.9,18.1-18.6,18.1
		S365.7,94.9,365.7,85z M394.9,85L394.9,85c0-6.1-4.4-11.1-10.6-11.1s-10.5,4.9-10.5,10.9v0.1c0,6,4.4,11,10.6,11S394.9,91,394.9,85
		z"/>
	<path class="st1" d="M407.5,67.4h7.7v28h17.5v7h-25.1L407.5,67.4L407.5,67.4z"/>
	<path class="st1" d="M436.1,67.4h7.7v28h17.5v7h-25.1L436.1,67.4L436.1,67.4z"/>
	<path class="st1" d="M476.7,67.1h7.1l15,35.3h-8l-3.2-7.8h-14.8l-3.2,7.8h-7.9L476.7,67.1z M484.8,87.7l-4.6-11.3l-4.6,11.3H484.8z
		"/>
	<path class="st1" d="M501.9,67.4h8.3l9.2,14.8l9.2-14.8h8.3v35h-7.7V79.5l-9.8,14.9h-0.2l-9.8-14.8v22.7h-7.5L501.9,67.4
		L501.9,67.4z"/>
</g>
<g>
	<path class="st2" d="M168.7,116c-1.1,1.7-2.1,3.4-2.9,5.1s-1.4,3.3-1.9,4.9s-0.8,3.1-1.1,4.6c-0.2,1.5-0.3,2.9-0.3,4.2
		c0,0.6,0,1.1,0.1,1.7s0.1,1.2,0.1,1.8s0.1,1.2,0.3,1.8s0.2,1.2,0.4,1.7c0,0.1,0,0.2,0,0.3s0,0.2-0.1,0.2c-0.1,0.1-0.2,0.1-0.3,0.1
		s-0.4,0-0.6,0c-0.2,0-0.3,0-0.5,0s-0.2,0-0.3-0.1c-0.1,0-0.1-0.1-0.2-0.1c-0.1,0-0.1-0.1-0.1-0.1c-0.4-1.2-0.7-2.4-0.9-3.8
		s-0.3-2.8-0.3-4.3c0-1.3,0.1-2.7,0.3-4.1c0.2-1.4,0.6-2.9,1.1-4.4s1.1-3.1,2-4.8c0.8-1.6,1.8-3.3,3-5.1c0-0.1,0.1-0.1,0.2-0.2
		c0.1-0.1,0.1-0.1,0.3-0.1c0.1,0,0.2-0.1,0.4-0.1s0.4,0,0.6,0s0.4,0,0.6,0c0.1,0,0.3,0.1,0.3,0.1c0.1,0.1,0.1,0.1,0.1,0.2
		C168.8,115.8,168.8,115.9,168.7,116z"/>
	<path class="st2" d="M190,129.9c-0.3,1.3-0.6,2.4-1.2,3.3c-0.5,0.9-1.2,1.7-1.9,2.4c-0.8,0.6-1.6,1.1-2.6,1.4c-1,0.3-2,0.5-3.1,0.5
		c-1.2,0-2.2-0.2-3.1-0.5c-0.9-0.3-1.6-0.8-2.1-1.4c-0.5-0.6-0.9-1.4-1-2.4c-0.2-1-0.1-2.1,0.1-3.3l2.4-12.2c0-0.1,0-0.1,0.1-0.2
		s0.1-0.1,0.3-0.1c0.1,0,0.3-0.1,0.4-0.1s0.4,0,0.6,0s0.5,0,0.6,0c0.2,0,0.3,0.1,0.4,0.1c0.1,0,0.2,0.1,0.2,0.1c0,0.1,0,0.1,0,0.2
		l-2.4,12.1c-0.2,0.9-0.2,1.7-0.1,2.4c0.1,0.7,0.3,1.2,0.6,1.7c0.3,0.4,0.8,0.8,1.3,1c0.6,0.2,1.2,0.3,2,0.3s1.5-0.1,2.1-0.4
		c0.6-0.2,1.2-0.6,1.7-1c0.5-0.5,0.9-1,1.3-1.7c0.4-0.7,0.6-1.4,0.8-2.3l2.4-12.2c0-0.1,0-0.1,0.1-0.2s0.1-0.1,0.3-0.1
		c0.1,0,0.3-0.1,0.4-0.1s0.4,0,0.6,0s0.5,0,0.6,0c0.2,0,0.3,0.1,0.4,0.1c0.1,0,0.2,0.1,0.2,0.1s0,0.1,0,0.2L190,129.9z"/>
	<path class="st2" d="M205.9,126c0,0.4,0,0.7-0.1,1.1c0,0.4-0.1,0.7-0.2,1.1l-1.7,8.7c0,0.1-0.1,0.1-0.1,0.2
		c-0.1,0.1-0.1,0.1-0.2,0.1c-0.1,0-0.2,0.1-0.4,0.1s-0.4,0-0.6,0s-0.4,0-0.6,0c-0.2,0-0.3-0.1-0.4-0.1c-0.1,0-0.1-0.1-0.2-0.1
		c0-0.1,0-0.1,0-0.2l1.7-8.6c0.1-0.3,0.1-0.6,0.1-0.9s0-0.6,0-0.8c0-0.6-0.1-1.1-0.4-1.5c-0.3-0.4-0.7-0.6-1.3-0.6s-1.1,0.2-1.7,0.5
		c-0.6,0.3-1.1,0.8-1.6,1.3c-0.5,0.6-0.9,1.2-1.3,2c-0.4,0.8-0.7,1.6-0.8,2.5l-1.2,6.2c0,0.1-0.1,0.1-0.1,0.2
		c-0.1,0.1-0.1,0.1-0.2,0.1c-0.1,0-0.2,0.1-0.4,0.1s-0.4,0-0.6,0c-0.3,0-0.5,0-0.6,0c-0.2,0-0.3-0.1-0.4-0.1s-0.1-0.1-0.2-0.1
		c0-0.1,0-0.1,0-0.2l2.8-13.9c0-0.1,0-0.1,0.1-0.2c0-0.1,0.1-0.1,0.2-0.1s0.2-0.1,0.4-0.1c0.1,0,0.3,0,0.5,0s0.4,0,0.5,0
		s0.3,0,0.3,0.1c0.1,0,0.1,0.1,0.1,0.1c0,0.1,0,0.1,0,0.2l-0.5,2.6c0.1-0.4,0.4-0.7,0.8-1.1c0.4-0.4,0.8-0.8,1.3-1.1s1-0.6,1.6-0.8
		c0.6-0.2,1.2-0.3,1.8-0.3c0.7,0,1.3,0.1,1.7,0.3c0.5,0.2,0.8,0.5,1.1,0.8s0.5,0.7,0.6,1.2C205.9,125,205.9,125.5,205.9,126z"/>
	<path class="st2" d="M218.9,136.8c0,0.2-0.1,0.3-0.3,0.4c-0.2,0.1-0.5,0.1-0.9,0.1c-0.2,0-0.4,0-0.5,0s-0.2-0.1-0.3-0.1
		s-0.1-0.1-0.2-0.1c0-0.1,0-0.1,0-0.2l0.5-2.6c-0.1,0.3-0.4,0.7-0.7,1.1c-0.4,0.4-0.8,0.7-1.2,1.1c-0.5,0.3-1,0.6-1.6,0.8
		s-1.2,0.3-1.8,0.3s-1.1-0.1-1.6-0.2s-0.8-0.4-1.1-0.6c-0.3-0.3-0.6-0.6-0.7-0.9c-0.2-0.4-0.3-0.7-0.4-1.1c-0.1-0.4-0.2-0.8-0.2-1.1
		c0-0.4-0.1-0.7-0.1-1.1c0-0.6,0.1-1.3,0.2-2s0.3-1.5,0.5-2.2c0.3-0.7,0.6-1.5,0.9-2.2c0.4-0.7,0.9-1.4,1.4-1.9
		c0.6-0.6,1.2-1,1.9-1.3s1.5-0.5,2.4-0.5c0.4,0,0.9,0.1,1.3,0.1c0.4,0.1,0.7,0.2,1.1,0.4c0.3,0.2,0.6,0.4,0.9,0.6s0.5,0.5,0.7,0.7
		l1.6-7.9c0-0.1,0-0.1,0.1-0.2s0.1-0.1,0.2-0.1c0.1,0,0.2-0.1,0.4-0.1s0.4,0,0.6,0c0.3,0,0.4,0,0.6,0s0.3,0.1,0.4,0.1
		c0.1,0,0.1,0.1,0.2,0.1s0,0.1,0,0.2L218.9,136.8z M218.4,126.6c-0.5-0.7-1-1.3-1.6-1.6s-1.2-0.6-1.9-0.6c-0.5,0-1,0.1-1.5,0.4
		c-0.4,0.3-0.8,0.6-1.2,1s-0.6,0.9-0.9,1.4s-0.5,1.1-0.6,1.7c-0.2,0.6-0.3,1.1-0.4,1.7c-0.1,0.6-0.1,1.1-0.1,1.6
		c0,1,0.2,1.8,0.5,2.3s0.9,0.8,1.6,0.8c0.6,0,1.1-0.1,1.7-0.5c0.6-0.3,1.1-0.7,1.6-1.3s0.9-1.2,1.3-1.9s0.7-1.6,0.8-2.5L218.4,126.6
		z"/>
	<path class="st2" d="M235.6,125.8c0,0.7-0.2,1.4-0.5,1.9c-0.3,0.5-0.8,1.1-1.5,1.4c-0.7,0.4-1.6,0.7-2.7,0.9
		c-1.1,0.2-2.4,0.3-3.9,0.3h-1.6c-0.1,0.3-0.1,0.7-0.1,1s0,0.6,0,0.9c0,1,0.3,1.8,0.8,2.4c0.5,0.5,1.3,0.8,2.5,0.8
		c0.7,0,1.3-0.1,1.8-0.1c0.5-0.1,1-0.2,1.4-0.3s0.7-0.2,0.9-0.3c0.3-0.1,0.4-0.1,0.5-0.1s0.2,0,0.2,0.1s0.1,0.2,0.1,0.3s0,0.2,0,0.4
		c0,0.1-0.1,0.3-0.1,0.4c0,0.1-0.1,0.3-0.2,0.4s-0.1,0.2-0.2,0.3c-0.1,0.1-0.3,0.2-0.7,0.4c-0.3,0.1-0.7,0.2-1.1,0.3
		c-0.4,0.1-0.9,0.2-1.4,0.2c-0.5,0.1-1,0.1-1.5,0.1c-0.9,0-1.7-0.1-2.4-0.3s-1.3-0.5-1.7-0.9s-0.8-1-1-1.6s-0.3-1.4-0.3-2.3
		c0-0.7,0.1-1.4,0.2-2.1c0.1-0.8,0.3-1.5,0.6-2.3s0.6-1.5,1.1-2.2c0.4-0.7,1-1.3,1.6-1.8s1.3-0.9,2.1-1.3c0.8-0.3,1.7-0.5,2.7-0.5
		c0.9,0,1.6,0.1,2.2,0.3s1.1,0.5,1.5,0.8s0.7,0.7,0.8,1.1C235.5,124.9,235.6,125.4,235.6,125.8z M233,126c0-0.5-0.2-0.9-0.6-1.3
		c-0.4-0.3-1-0.5-1.8-0.5c-0.7,0-1.3,0.1-1.8,0.3c-0.5,0.2-1,0.5-1.4,0.9s-0.7,0.8-1,1.4s-0.5,1.1-0.7,1.6h1.6c1.1,0,2-0.1,2.7-0.2
		c0.7-0.1,1.3-0.3,1.8-0.6s0.7-0.5,0.9-0.8C232.9,126.7,233,126.4,233,126z"/>
	<path class="st2" d="M246.8,122.9c0,0,0,0.1,0,0.2s0,0.3-0.1,0.4c0,0.2-0.1,0.3-0.1,0.5s-0.1,0.3-0.1,0.5s-0.1,0.3-0.2,0.3
		c-0.1,0.1-0.1,0.1-0.2,0.1s-0.2,0-0.3-0.1c-0.1,0-0.2-0.1-0.3-0.1c-0.1-0.1-0.3-0.1-0.4-0.1c-0.1,0-0.3-0.1-0.5-0.1
		c-0.4,0-0.8,0.1-1.2,0.4s-0.9,0.7-1.4,1.3c-0.4,0.5-0.8,1.2-1.2,1.9s-0.6,1.5-0.8,2.4l-1.2,6.2c0,0.1-0.1,0.1-0.1,0.2
		c-0.1,0.1-0.1,0.1-0.2,0.1c-0.1,0-0.2,0.1-0.4,0.1s-0.4,0-0.6,0s-0.5,0-0.6,0c-0.2,0-0.3-0.1-0.4-0.1s-0.1-0.1-0.2-0.1
		c0-0.1,0-0.1,0-0.2l2.8-13.9c0-0.1,0-0.1,0.1-0.2s0.1-0.1,0.2-0.1c0.1,0,0.2-0.1,0.4-0.1c0.1,0,0.3,0,0.5,0s0.4,0,0.5,0
		s0.3,0,0.3,0.1c0.1,0,0.1,0.1,0.1,0.1c0,0.1,0,0.1,0,0.2l-0.5,2.5c0.2-0.4,0.5-0.8,0.8-1.2c0.3-0.4,0.7-0.7,1.1-1
		c0.4-0.3,0.8-0.5,1.2-0.7s0.8-0.3,1.2-0.3c0.2,0,0.4,0,0.5,0s0.4,0.1,0.5,0.1s0.3,0.1,0.4,0.1c0.1,0.1,0.2,0.1,0.3,0.2
		C246.7,122.7,246.8,122.8,246.8,122.9z"/>
	<path class="st2" d="M261.5,123.1c0,0.1,0,0.2,0,0.3c0,0.1,0,0.2-0.1,0.3s-0.1,0.2-0.1,0.3c0,0.1-0.1,0.2-0.2,0.3
		c0,0.1-0.1,0.1-0.2,0.2s-0.1,0.1-0.3,0.1h-3.5l-1.6,7.7c0,0.2-0.1,0.5-0.1,0.7c0,0.3,0,0.5,0,0.7c0,0.5,0.1,0.9,0.3,1.1
		c0.2,0.2,0.6,0.4,1.1,0.4c0.3,0,0.5,0,0.7-0.1s0.4-0.1,0.5-0.1c0.1-0.1,0.3-0.1,0.4-0.1s0.2-0.1,0.3-0.1c0.1,0,0.1,0,0.2,0.1
		c0,0.1,0.1,0.2,0.1,0.3s0,0.3,0,0.4s-0.1,0.3-0.1,0.5s-0.1,0.3-0.1,0.4c-0.1,0.1-0.1,0.2-0.2,0.3s-0.2,0.1-0.4,0.2
		c-0.2,0.1-0.4,0.1-0.6,0.2s-0.5,0.1-0.7,0.1s-0.5,0.1-0.7,0.1c-0.6,0-1.1-0.1-1.5-0.2c-0.4-0.1-0.8-0.3-1.1-0.6s-0.5-0.6-0.6-1
		s-0.2-0.9-0.2-1.4c0-0.1,0-0.3,0-0.4c0-0.1,0-0.3,0.1-0.5c0-0.2,0.1-0.3,0.1-0.5s0.1-0.3,0.1-0.5l1.6-7.8h-1.9
		c-0.1,0-0.2,0-0.3-0.1s-0.1-0.2-0.1-0.4c0-0.1,0-0.3,0-0.5s0.1-0.4,0.1-0.5s0.1-0.3,0.2-0.4c0.1-0.1,0.2-0.2,0.3-0.2h1.9l0.7-3.3
		c0-0.1,0-0.1,0.1-0.2s0.1-0.1,0.2-0.2c0.1-0.1,0.2-0.1,0.4-0.1c0.2,0,0.4,0,0.6,0s0.5,0,0.6,0c0.2,0,0.3,0.1,0.4,0.1
		s0.1,0.1,0.2,0.2s0,0.1,0,0.2l-0.7,3.3h3.5c0.1,0,0.3,0.1,0.3,0.2C261.5,122.8,261.5,122.9,261.5,123.1z"/>
	<path class="st2" d="M272.5,136.8c0,0.1,0,0.1-0.1,0.2c0,0.1-0.1,0.1-0.2,0.1s-0.2,0.1-0.4,0.1c-0.2,0-0.4,0-0.6,0s-0.5,0-0.6,0
		c-0.2,0-0.3-0.1-0.4-0.1s-0.1-0.1-0.2-0.1c0-0.1,0-0.1,0-0.2l1.7-8.6c0-0.3,0.1-0.6,0.1-0.9s0-0.6,0-0.9s0-0.6-0.1-0.8
		s-0.2-0.5-0.3-0.6c-0.1-0.2-0.3-0.3-0.5-0.4s-0.5-0.1-0.8-0.1c-0.5,0-1.1,0.2-1.7,0.5s-1.1,0.8-1.6,1.3c-0.5,0.6-0.9,1.2-1.3,2
		c-0.4,0.8-0.7,1.6-0.8,2.4l-1.2,6.1c0,0.1-0.1,0.1-0.1,0.2c0,0.1-0.1,0.1-0.2,0.1s-0.2,0.1-0.4,0.1c-0.2,0-0.4,0-0.6,0
		c-0.3,0-0.5,0-0.6,0c-0.2,0-0.3-0.1-0.4-0.1s-0.1-0.1-0.2-0.1c0-0.1,0-0.1,0-0.2l4.1-20.6c0-0.1,0-0.1,0.1-0.2
		c0-0.1,0.1-0.1,0.2-0.1s0.3-0.1,0.4-0.1c0.2,0,0.4,0,0.6,0s0.5,0,0.6,0c0.2,0,0.3,0.1,0.4,0.1s0.1,0.1,0.2,0.1s0,0.1,0,0.2
		l-1.2,6.3c0,0.3-0.1,0.5-0.2,0.8s-0.1,0.6-0.2,0.8c-0.1,0.3-0.1,0.5-0.2,0.8s-0.1,0.5-0.2,0.6c0.2-0.4,0.4-0.7,0.8-1.1
		s0.8-0.7,1.2-1.1c0.5-0.3,1-0.6,1.6-0.8s1.2-0.3,1.8-0.3c0.7,0,1.2,0.1,1.7,0.3s0.8,0.5,1.1,0.8c0.3,0.3,0.5,0.7,0.6,1.2
		s0.2,1,0.2,1.5c0,0.4,0,0.7-0.1,1.1s-0.1,0.7-0.2,1.1L272.5,136.8z"/>
	<path class="st2" d="M289.1,125.8c0,0.7-0.2,1.4-0.5,1.9c-0.3,0.5-0.8,1.1-1.5,1.4c-0.7,0.4-1.6,0.7-2.7,0.9s-2.4,0.3-3.9,0.3h-1.6
		c-0.1,0.3-0.1,0.7-0.1,1s0,0.6,0,0.9c0,1,0.3,1.8,0.8,2.4c0.5,0.5,1.3,0.8,2.5,0.8c0.7,0,1.3-0.1,1.8-0.1c0.5-0.1,1-0.2,1.4-0.3
		s0.7-0.2,1-0.3s0.4-0.1,0.5-0.1s0.2,0,0.2,0.1s0.1,0.2,0.1,0.3s0,0.2,0,0.4c0,0.1,0,0.3-0.1,0.4c0,0.1-0.1,0.3-0.2,0.4
		s-0.1,0.2-0.2,0.3s-0.3,0.2-0.7,0.4c-0.3,0.1-0.7,0.2-1.1,0.3s-0.9,0.2-1.4,0.2c-0.5,0.1-1,0.1-1.5,0.1c-0.9,0-1.7-0.1-2.4-0.3
		c-0.7-0.2-1.3-0.5-1.7-0.9s-0.8-1-1-1.6s-0.3-1.4-0.3-2.3c0-0.7,0.1-1.4,0.2-2.1c0.1-0.8,0.3-1.5,0.6-2.3s0.6-1.5,1.1-2.2
		c0.4-0.7,1-1.3,1.6-1.8s1.3-0.9,2.1-1.3c0.8-0.3,1.7-0.5,2.7-0.5c0.9,0,1.6,0.1,2.2,0.3s1.1,0.5,1.5,0.8s0.7,0.7,0.8,1.1
		C289,124.9,289.1,125.4,289.1,125.8z M286.5,126c0-0.5-0.2-0.9-0.6-1.3c-0.4-0.3-1-0.5-1.8-0.5c-0.7,0-1.3,0.1-1.8,0.3
		c-0.5,0.2-1,0.5-1.4,0.9s-0.7,0.8-1,1.4s-0.5,1.1-0.7,1.6h1.6c1.1,0,2-0.1,2.7-0.2c0.7-0.1,1.3-0.3,1.8-0.6
		c0.4-0.2,0.7-0.5,0.9-0.8C286.4,126.7,286.5,126.4,286.5,126z"/>
	<path class="st2" d="M307.1,136.8c0,0.2-0.1,0.3-0.3,0.4c-0.2,0.1-0.5,0.1-0.9,0.1c-0.2,0-0.4,0-0.5,0s-0.2-0.1-0.3-0.1
		c-0.1,0-0.1-0.1-0.2-0.1s0-0.1,0-0.2l0.5-2.6c-0.1,0.3-0.4,0.7-0.7,1.1c-0.4,0.4-0.8,0.8-1.2,1.1c-0.5,0.3-1,0.6-1.6,0.8
		s-1.2,0.3-1.8,0.3c-0.8,0-1.5-0.1-2-0.4c-0.5-0.3-1-0.7-1.3-1.1s-0.5-1-0.6-1.6s-0.2-1.2-0.2-1.8s0-1.2,0.2-1.9
		c0.1-0.7,0.3-1.5,0.5-2.2c0.2-0.8,0.5-1.5,0.9-2.2s0.9-1.4,1.4-1.9c0.5-0.6,1.2-1,1.9-1.4c0.7-0.4,1.5-0.5,2.5-0.5s1.7,0.2,2.4,0.6
		c0.6,0.4,1.2,0.9,1.8,1.5l0.3-1.4c0-0.2,0.2-0.3,0.4-0.4c0.2-0.1,0.5-0.1,0.9-0.1c0.2,0,0.4,0,0.5,0s0.3,0,0.3,0.1
		c0.1,0,0.1,0.1,0.2,0.1s0,0.1,0,0.2L307.1,136.8z M306.6,126.6c-0.5-0.7-1-1.2-1.6-1.6s-1.2-0.5-1.9-0.5c-0.6,0-1.1,0.1-1.5,0.4
		s-0.8,0.6-1.2,1c-0.3,0.4-0.6,0.9-0.9,1.5s-0.5,1.1-0.6,1.7c-0.2,0.6-0.3,1.2-0.4,1.7c-0.1,0.6-0.1,1.1-0.1,1.5s0,0.7,0.1,1.1
		c0.1,0.4,0.2,0.7,0.3,1c0.2,0.3,0.4,0.5,0.7,0.7c0.3,0.2,0.6,0.3,1.1,0.3c0.6,0,1.1-0.1,1.7-0.5c0.6-0.3,1.1-0.8,1.6-1.3
		c0.5-0.6,0.9-1.2,1.3-2s0.7-1.6,0.9-2.5L306.6,126.6z"/>
	<path class="st2" d="M323.8,125.8c0,0.7-0.2,1.4-0.5,1.9c-0.3,0.6-0.9,1.1-1.5,1.4c-0.7,0.4-1.6,0.7-2.7,0.9s-2.4,0.3-3.9,0.3h-1.6
		c-0.1,0.3-0.1,0.7-0.1,1s0,0.6,0,0.9c0,1,0.3,1.8,0.8,2.4c0.5,0.5,1.3,0.8,2.5,0.8c0.7,0,1.3-0.1,1.8-0.1c0.5-0.1,1-0.2,1.4-0.3
		s0.7-0.2,1-0.3s0.4-0.1,0.5-0.1s0.2,0,0.2,0.1s0.1,0.2,0.1,0.3s0,0.2,0,0.4c0,0.1,0,0.3-0.1,0.4c0,0.1-0.1,0.3-0.2,0.4
		c-0.1,0.1-0.1,0.2-0.2,0.3s-0.3,0.2-0.7,0.4c-0.3,0.1-0.7,0.2-1.1,0.3s-0.9,0.2-1.4,0.2c-0.5,0.1-1,0.1-1.5,0.1
		c-0.9,0-1.7-0.1-2.4-0.3c-0.7-0.2-1.3-0.5-1.7-0.9s-0.8-1-1-1.6s-0.3-1.4-0.3-2.3c0-0.7,0.1-1.4,0.2-2.1c0.1-0.8,0.3-1.5,0.6-2.3
		s0.6-1.5,1.1-2.2c0.4-0.7,1-1.3,1.6-1.8s1.3-0.9,2.1-1.3c0.8-0.3,1.7-0.5,2.7-0.5c0.9,0,1.6,0.1,2.2,0.3s1.1,0.5,1.5,0.8
		s0.7,0.7,0.8,1.1C323.7,124.9,323.8,125.4,323.8,125.8z M321.2,126c0-0.5-0.2-0.9-0.6-1.3c-0.4-0.3-1-0.5-1.8-0.5
		c-0.7,0-1.3,0.1-1.8,0.3c-0.5,0.2-1,0.5-1.4,0.9s-0.7,0.8-1,1.4s-0.5,1.1-0.7,1.6h1.6c1.1,0,2-0.1,2.7-0.2c0.7-0.1,1.3-0.3,1.7-0.6
		s0.7-0.5,0.9-0.8C321.1,126.7,321.2,126.4,321.2,126z"/>
	<path class="st2" d="M335.6,137.9c-0.2,0.8-0.4,1.5-0.8,2.2c-0.4,0.6-0.8,1.1-1.4,1.5s-1.2,0.7-2,0.9s-1.7,0.3-2.6,0.3
		s-1.6-0.1-2.3-0.3c-0.7-0.2-1.3-0.4-1.7-0.6c-0.1-0.1-0.3-0.2-0.3-0.3s-0.1-0.2-0.1-0.4c0-0.1,0-0.1,0-0.3c0-0.1,0-0.2,0-0.3
		s0.1-0.2,0.1-0.4c0-0.1,0.1-0.2,0.1-0.3s0.1-0.2,0.2-0.2c0.1-0.1,0.2-0.1,0.3-0.1c0.1,0,0.3,0.1,0.5,0.2c0.2,0.1,0.4,0.2,0.7,0.4
		s0.7,0.3,1.1,0.4s1,0.2,1.7,0.2c0.6,0,1.1-0.1,1.5-0.2c0.4-0.1,0.8-0.3,1.2-0.5c0.3-0.2,0.6-0.5,0.8-0.9c0.2-0.3,0.4-0.8,0.5-1.3
		c0.2-0.9,0.4-1.7,0.5-2.3c0.2-0.6,0.3-1.1,0.4-1.4c-0.2,0.4-0.4,0.8-0.8,1.1c-0.4,0.4-0.8,0.7-1.3,1.1c-0.5,0.3-1,0.6-1.6,0.8
		s-1.1,0.3-1.7,0.3c-0.8,0-1.4-0.1-2-0.4c-0.5-0.3-1-0.6-1.3-1.1c-0.3-0.4-0.6-1-0.7-1.6s-0.2-1.3-0.2-2c0-0.6,0.1-1.3,0.2-2
		c0.1-0.8,0.3-1.5,0.5-2.3s0.6-1.5,1-2.2s0.9-1.4,1.4-1.9c0.5-0.6,1.2-1,1.9-1.3c0.7-0.3,1.5-0.5,2.4-0.5s1.7,0.2,2.4,0.6
		c0.6,0.4,1.2,0.9,1.8,1.5l0.3-1.4c0-0.2,0.2-0.3,0.4-0.4c0.2-0.1,0.5-0.1,0.9-0.1c0.2,0,0.4,0,0.5,0s0.3,0,0.3,0.1
		c0.1,0,0.1,0.1,0.1,0.1s0,0.1,0,0.2L335.6,137.9z M335.4,126.6c-0.5-0.7-1-1.2-1.6-1.6s-1.2-0.5-1.9-0.5c-0.5,0-1,0.1-1.5,0.4
		c-0.4,0.3-0.8,0.6-1.2,1s-0.6,0.9-0.9,1.5s-0.5,1.1-0.6,1.7c-0.2,0.6-0.3,1.1-0.4,1.7c-0.1,0.6-0.1,1.1-0.1,1.6
		c0,0.4,0,0.9,0.1,1.2c0.1,0.4,0.2,0.7,0.4,0.9c0.2,0.3,0.4,0.5,0.7,0.6c0.3,0.1,0.6,0.2,1,0.2c0.6,0,1.1-0.1,1.7-0.5
		s1.1-0.8,1.6-1.3c0.5-0.6,0.9-1.2,1.3-2s0.7-1.6,0.9-2.5L335.4,126.6z"/>
	<path class="st2" d="M341.9,136.8c0,0.1,0,0.1-0.1,0.2c0,0.1-0.1,0.1-0.2,0.1s-0.2,0.1-0.4,0.1c-0.2,0-0.4,0-0.6,0s-0.5,0-0.6,0
		c-0.2,0-0.3-0.1-0.4-0.1s-0.1-0.1-0.2-0.1c0-0.1,0-0.1,0-0.2l2.8-13.9c0-0.1,0-0.1,0.1-0.2s0.1-0.1,0.2-0.1s0.2-0.1,0.4-0.1
		c0.2,0,0.4,0,0.6,0c0.3,0,0.5,0,0.6,0c0.2,0,0.3,0.1,0.4,0.1s0.1,0.1,0.2,0.1c0,0.1,0,0.1,0,0.2L341.9,136.8z M345.8,118.3
		c0,0.3-0.1,0.5-0.2,0.7s-0.2,0.4-0.4,0.5c-0.1,0.1-0.3,0.2-0.5,0.3s-0.5,0.1-0.8,0.1s-0.5,0-0.7-0.1s-0.3-0.1-0.4-0.3
		c-0.1-0.1-0.1-0.3-0.1-0.5s0-0.4,0.1-0.7c0.1-0.3,0.1-0.5,0.2-0.7s0.2-0.4,0.4-0.5c0.1-0.1,0.3-0.2,0.5-0.3
		c0.2-0.1,0.5-0.1,0.8-0.1s0.5,0,0.7,0.1c0.2,0,0.3,0.1,0.4,0.3c0.1,0.1,0.1,0.3,0.2,0.5C345.9,117.7,345.9,118,345.8,118.3z"/>
	<path class="st2" d="M355.8,123.7c0,0.1,0,0.2,0,0.4c0,0.2-0.1,0.3-0.1,0.5s-0.1,0.3-0.2,0.4s-0.2,0.2-0.3,0.2
		c-0.1,0-0.3-0.1-0.4-0.1c-0.2-0.1-0.4-0.2-0.6-0.3s-0.5-0.2-0.9-0.3c-0.4-0.1-0.8-0.1-1.2-0.1c-0.5,0-0.9,0.1-1.2,0.2
		c-0.4,0.1-0.6,0.3-0.9,0.5c-0.2,0.2-0.4,0.5-0.5,0.8s-0.2,0.6-0.2,0.9c0,0.4,0.1,0.8,0.4,1c0.3,0.3,0.6,0.5,1,0.7
		c0.4,0.2,0.9,0.4,1.3,0.6c0.5,0.2,0.9,0.5,1.3,0.8s0.7,0.7,1,1.1c0.3,0.4,0.4,1,0.4,1.6c0,0.7-0.1,1.4-0.4,2s-0.7,1.2-1.2,1.6
		s-1.2,0.8-1.9,1.1s-1.6,0.4-2.5,0.4c-0.5,0-0.9,0-1.4-0.1s-0.8-0.2-1.2-0.3c-0.4-0.1-0.6-0.2-0.9-0.4c-0.3-0.1-0.4-0.3-0.6-0.4
		c-0.1-0.1-0.1-0.2-0.2-0.3c0-0.1,0-0.2,0-0.3s0-0.2,0-0.3s0-0.2,0.1-0.4c0-0.1,0.1-0.2,0.1-0.4c0-0.1,0.1-0.2,0.1-0.3
		s0.1-0.2,0.1-0.2c0-0.1,0.1-0.1,0.2-0.1s0.3,0.1,0.4,0.2c0.2,0.1,0.4,0.3,0.7,0.4c0.3,0.2,0.6,0.3,1.1,0.4c0.4,0.1,1,0.2,1.6,0.2
		s1-0.1,1.5-0.2c0.4-0.1,0.7-0.3,1-0.6c0.3-0.2,0.5-0.5,0.6-0.8s0.2-0.6,0.2-1s-0.1-0.8-0.4-1.1s-0.6-0.5-1-0.7s-0.9-0.4-1.3-0.7
		s-0.9-0.5-1.3-0.8s-0.8-0.6-1-1.1c-0.3-0.4-0.4-1-0.4-1.6c0-0.7,0.1-1.3,0.4-1.9s0.6-1.1,1.1-1.5s1.1-0.8,1.8-1
		c0.7-0.2,1.4-0.4,2.3-0.4c0.4,0,0.8,0,1.1,0.1c0.4,0.1,0.7,0.1,1,0.2s0.6,0.2,0.8,0.3c0.2,0.1,0.4,0.2,0.5,0.3
		C355.8,123.3,355.8,123.5,355.8,123.7z"/>
	<path class="st2" d="M376.3,127.5c0,0.8-0.1,1.5-0.2,2.3s-0.4,1.6-0.6,2.3c-0.3,0.7-0.7,1.4-1.1,2.1c-0.5,0.6-1,1.2-1.6,1.7
		s-1.3,0.9-2.1,1.1c-0.8,0.3-1.6,0.4-2.6,0.4s-1.8-0.1-2.5-0.4c-0.7-0.2-1.3-0.6-1.7-1c-0.5-0.4-0.8-1-1-1.7s-0.3-1.4-0.3-2.2
		s0.1-1.5,0.2-2.3s0.4-1.6,0.7-2.3c0.3-0.7,0.7-1.4,1.1-2.1c0.5-0.6,1-1.2,1.6-1.7s1.3-0.9,2.1-1.1c0.8-0.3,1.6-0.4,2.6-0.4
		s1.8,0.1,2.5,0.4c0.7,0.2,1.3,0.6,1.7,1s0.8,1,1,1.7C376.1,126,376.3,126.7,376.3,127.5z M373.6,127.7c0-0.5,0-1-0.2-1.4
		c-0.1-0.4-0.3-0.8-0.5-1c-0.3-0.3-0.6-0.5-1-0.7s-0.9-0.2-1.5-0.2s-1.2,0.1-1.7,0.3s-1,0.5-1.4,0.9s-0.7,0.8-1,1.3s-0.5,1-0.7,1.6
		s-0.3,1.1-0.4,1.8c-0.1,0.6-0.1,1.2-0.1,1.8c0,0.5,0,1,0.2,1.4c0.1,0.4,0.3,0.8,0.5,1.1c0.3,0.3,0.6,0.5,1,0.7
		c0.4,0.1,0.9,0.2,1.5,0.2s1.2-0.1,1.7-0.3s1-0.5,1.3-0.9c0.4-0.4,0.7-0.8,1-1.3s0.5-1,0.7-1.6s0.3-1.2,0.4-1.8
		C373.5,128.9,373.6,128.3,373.6,127.7z"/>
	<path class="st2" d="M388.7,116.6c0,0,0,0.1,0,0.2s0,0.2,0,0.3c0,0.1,0,0.2-0.1,0.3s-0.1,0.2-0.1,0.3c0,0.1-0.1,0.2-0.1,0.3
		c0,0.1-0.1,0.1-0.2,0.1s-0.2,0-0.3-0.1s-0.2-0.1-0.4-0.1c-0.1-0.1-0.3-0.1-0.5-0.1s-0.4-0.1-0.6-0.1c-0.4,0-0.8,0.1-1.1,0.2
		c-0.3,0.1-0.6,0.3-0.8,0.6c-0.2,0.3-0.4,0.6-0.6,1.1c-0.1,0.4-0.3,0.9-0.4,1.5l-0.3,1.4h3.1c0.1,0,0.2,0,0.3,0.1
		c0.1,0.1,0.1,0.2,0.1,0.4c0,0.1,0,0.2,0,0.4c0,0.1,0,0.2-0.1,0.4s-0.1,0.2-0.1,0.3c0,0.1-0.1,0.2-0.1,0.3c-0.1,0.1-0.1,0.1-0.2,0.2
		s-0.1,0.1-0.2,0.1h-3.1l-2.6,13.1c-0.2,0.9-0.4,1.6-0.7,2.2s-0.7,1.2-1.1,1.6c-0.4,0.4-0.9,0.7-1.5,0.9s-1.2,0.3-1.9,0.3
		c-0.5,0-0.8,0-1.1-0.1s-0.5-0.1-0.5-0.2c0-0.1-0.1-0.1-0.1-0.2c0-0.1,0-0.1,0-0.3c0,0,0-0.1,0-0.2c0-0.1,0-0.2,0-0.3s0-0.2,0.1-0.3
		s0.1-0.2,0.1-0.3s0.1-0.2,0.1-0.3s0.1-0.1,0.2-0.1s0.1,0,0.2,0s0.1,0,0.2,0.1c0.1,0,0.2,0,0.3,0c0.1,0,0.2,0,0.4,0
		c0.4,0,0.8-0.1,1.1-0.2c0.3-0.1,0.6-0.3,0.8-0.6c0.2-0.3,0.4-0.6,0.5-1.1c0.1-0.4,0.3-0.9,0.4-1.6l2.5-12.6h-2
		c-0.1,0-0.2,0-0.2-0.1c-0.1-0.1-0.1-0.2-0.1-0.4c0-0.1,0-0.2,0-0.3c0-0.1,0-0.2,0-0.4c0-0.1,0.1-0.2,0.1-0.4s0.1-0.2,0.1-0.3
		s0.1-0.2,0.2-0.2c0.1-0.1,0.1-0.1,0.3-0.1h1.9l0.4-1.9c0.2-0.8,0.4-1.6,0.7-2.2s0.7-1.1,1.1-1.6c0.4-0.4,0.9-0.7,1.5-0.9
		c0.6-0.2,1.2-0.3,1.9-0.3c0.2,0,0.5,0,0.7,0s0.5,0.1,0.7,0.1s0.4,0.1,0.6,0.2s0.3,0.1,0.3,0.2c0.1,0.1,0.1,0.1,0.1,0.2
		C388.7,116.4,388.7,116.5,388.7,116.6z"/>
	<path class="st2" d="M407.9,117.8c0,0.1,0,0.1,0,0.3c0,0.1,0,0.2,0,0.4c0,0.1-0.1,0.3-0.1,0.4s-0.1,0.3-0.1,0.4
		c-0.1,0.1-0.1,0.2-0.2,0.3c-0.1,0.1-0.2,0.1-0.3,0.1h-5.6l-3.5,17.3c0,0.1-0.1,0.1-0.1,0.2c-0.1,0.1-0.1,0.1-0.2,0.1
		s-0.3,0.1-0.4,0.1c-0.2,0-0.4,0-0.6,0c-0.3,0-0.5,0-0.6,0c-0.2,0-0.3-0.1-0.4-0.1s-0.1-0.1-0.2-0.1c0-0.1,0-0.1,0-0.2l3.5-17.3
		h-5.6c-0.1,0-0.2-0.1-0.3-0.1c0-0.1-0.1-0.2-0.1-0.4c0-0.1,0-0.2,0-0.3s0-0.2,0.1-0.4s0.1-0.3,0.1-0.4s0.1-0.2,0.2-0.3
		c0.1-0.1,0.1-0.2,0.2-0.3s0.2-0.1,0.3-0.1h13.9c0.1,0,0.2,0.1,0.3,0.1C407.9,117.5,407.9,117.6,407.9,117.8z"/>
	<path class="st2" d="M417.1,136.8c0,0.1,0,0.1-0.1,0.2c-0.1,0.1-0.1,0.1-0.2,0.1s-0.3,0.1-0.4,0.1c-0.2,0-0.4,0-0.6,0s-0.5,0-0.6,0
		c-0.2,0-0.3-0.1-0.4-0.1s-0.1-0.1-0.2-0.1c0-0.1,0-0.1,0-0.2l1.7-8.6c0-0.3,0.1-0.6,0.1-0.9s0-0.6,0-0.9s0-0.6-0.1-0.8
		s-0.2-0.5-0.3-0.6c-0.1-0.2-0.3-0.3-0.5-0.4s-0.5-0.1-0.8-0.1c-0.5,0-1.1,0.2-1.7,0.5s-1.1,0.8-1.6,1.3c-0.5,0.6-0.9,1.2-1.3,2
		c-0.4,0.8-0.7,1.6-0.8,2.4l-1.2,6.1c0,0.1-0.1,0.1-0.1,0.2c0,0.1-0.1,0.1-0.2,0.1s-0.2,0.1-0.4,0.1c-0.2,0-0.4,0-0.6,0
		c-0.3,0-0.5,0-0.6,0c-0.2,0-0.3-0.1-0.4-0.1s-0.1-0.1-0.2-0.1c0-0.1,0-0.1,0-0.2l4.1-20.6c0-0.1,0-0.1,0.1-0.2
		c0-0.1,0.1-0.1,0.2-0.1s0.3-0.1,0.4-0.1c0.2,0,0.4,0,0.6,0c0.3,0,0.5,0,0.6,0s0.3,0.1,0.4,0.1s0.1,0.1,0.2,0.1s0,0.1,0,0.2
		l-1.2,6.3c0,0.3-0.1,0.5-0.2,0.8s-0.1,0.6-0.2,0.8c-0.1,0.3-0.1,0.5-0.2,0.8s-0.1,0.5-0.2,0.6c0.2-0.4,0.4-0.7,0.8-1.1
		s0.8-0.7,1.2-1.1c0.5-0.3,1-0.6,1.6-0.8s1.1-0.3,1.8-0.3c0.7,0,1.2,0.1,1.7,0.3s0.8,0.5,1.1,0.8c0.3,0.3,0.5,0.7,0.6,1.2
		s0.2,1,0.2,1.5c0,0.4,0,0.7-0.1,1.1s-0.1,0.7-0.2,1.1L417.1,136.8z"/>
	<path class="st2" d="M433.7,125.8c0,0.7-0.2,1.4-0.5,1.9c-0.3,0.5-0.8,1.1-1.5,1.4s-1.6,0.7-2.7,0.9s-2.4,0.3-3.9,0.3h-1.6
		c-0.1,0.3-0.1,0.7-0.1,1s0,0.6,0,0.9c0,1,0.3,1.8,0.8,2.4c0.5,0.5,1.3,0.8,2.5,0.8c0.7,0,1.3-0.1,1.8-0.1c0.5-0.1,1-0.2,1.4-0.3
		s0.7-0.2,1-0.3s0.4-0.1,0.5-0.1s0.2,0,0.2,0.1s0.1,0.2,0.1,0.3s0,0.2,0,0.4c0,0.1,0,0.3-0.1,0.4c0,0.1-0.1,0.3-0.2,0.4
		c-0.1,0.1-0.1,0.2-0.2,0.3s-0.3,0.2-0.6,0.4c-0.3,0.1-0.7,0.2-1.1,0.3s-0.9,0.2-1.4,0.2c-0.5,0.1-1,0.1-1.5,0.1
		c-0.9,0-1.7-0.1-2.4-0.3c-0.7-0.2-1.3-0.5-1.7-0.9s-0.8-1-1-1.6s-0.3-1.4-0.3-2.3c0-0.7,0.1-1.4,0.2-2.1c0.1-0.8,0.3-1.5,0.6-2.3
		s0.6-1.5,1.1-2.2c0.4-0.7,1-1.3,1.6-1.8s1.3-0.9,2.1-1.3c0.8-0.3,1.7-0.5,2.7-0.5c0.9,0,1.6,0.1,2.2,0.3s1.1,0.5,1.5,0.8
		s0.7,0.7,0.8,1.1C433.6,124.9,433.7,125.4,433.7,125.8z M431.1,126c0-0.5-0.2-0.9-0.6-1.3c-0.4-0.3-1-0.5-1.8-0.5
		c-0.7,0-1.3,0.1-1.8,0.3c-0.5,0.2-1,0.5-1.4,0.9s-0.7,0.8-1,1.4s-0.5,1.1-0.7,1.6h1.6c1.1,0,2-0.1,2.7-0.2c0.7-0.1,1.3-0.3,1.7-0.6
		c0.4-0.2,0.7-0.5,0.9-0.8C431,126.7,431.1,126.4,431.1,126z"/>
	<path class="st2" d="M458,124.4c0,0.7,0,1.4-0.1,2.1s-0.2,1.4-0.4,2.2c-0.2,0.7-0.5,1.4-0.8,2.1s-0.7,1.4-1.2,2s-1,1.2-1.6,1.8
		s-1.3,1-2.1,1.4s-1.6,0.7-2.6,0.9s-2.1,0.3-3.4,0.3h-4.4c-0.1,0-0.3,0-0.4-0.1s-0.2-0.1-0.3-0.2s-0.1-0.2-0.2-0.3s0-0.3,0-0.5
		l3.5-17.8c0.1-0.4,0.2-0.7,0.5-0.8s0.5-0.2,0.8-0.2h4.2c1.5,0,2.8,0.2,3.8,0.5s1.9,0.8,2.5,1.4c0.7,0.6,1.2,1.4,1.5,2.3
		C457.8,122.3,458,123.3,458,124.4z M455.2,124.7c0-0.8-0.1-1.5-0.3-2.1c-0.2-0.6-0.5-1.2-1-1.6c-0.5-0.5-1-0.8-1.7-1.1
		c-0.7-0.3-1.6-0.4-2.8-0.4h-2.8l-3.1,15.5h2.8c1.3,0,2.3-0.1,3.1-0.4c0.8-0.3,1.6-0.7,2.2-1.2s1.2-1.1,1.6-1.8
		c0.5-0.7,0.8-1.4,1.1-2.2c0.3-0.8,0.5-1.5,0.6-2.3C455.1,126.2,455.2,125.4,455.2,124.7z"/>
	<path class="st2" d="M473.7,121.9c0,0.6-0.1,1.1-0.2,1.7s-0.3,1.2-0.6,1.8s-0.6,1.1-1.1,1.6c-0.4,0.5-0.9,1-1.5,1.3
		c-0.6,0.4-1.3,0.7-2.1,0.9s-1.7,0.3-2.8,0.3h-2.7l-1.4,7.2c0,0.1,0,0.1-0.1,0.2c0,0.1-0.1,0.1-0.3,0.1s-0.3,0.1-0.4,0.1
		c-0.2,0-0.4,0-0.6,0s-0.4,0-0.6,0s-0.3-0.1-0.4-0.1s-0.2-0.1-0.2-0.1c0-0.1,0-0.1,0-0.2l3.7-18.4c0.1-0.4,0.3-0.7,0.5-0.9
		c0.3-0.2,0.5-0.3,0.9-0.3h3.9c0.5,0,1,0,1.4,0.1c0.4,0,0.8,0.1,1.1,0.2c0.6,0.1,1.1,0.3,1.5,0.6c0.5,0.3,0.8,0.6,1.1,0.9
		c0.3,0.4,0.5,0.8,0.7,1.3C473.6,120.8,473.7,121.3,473.7,121.9z M470.9,122.2c0-0.6-0.2-1.2-0.5-1.6c-0.3-0.5-0.8-0.8-1.5-1
		c-0.3-0.1-0.5-0.1-0.8-0.1s-0.6,0-1,0h-2.5l-1.6,8h2.5c0.7,0,1.4-0.1,1.9-0.2c0.5-0.2,1-0.4,1.3-0.6c0.4-0.3,0.7-0.6,1-0.9
		c0.3-0.4,0.5-0.7,0.6-1.1s0.3-0.8,0.4-1.2C470.9,122.9,470.9,122.6,470.9,122.2z"/>
	<path class="st2" d="M486.6,118.8c0,0.1,0,0.2,0,0.3c0,0.1,0,0.2,0,0.3c0,0.1-0.1,0.2-0.1,0.4c0,0.1-0.1,0.3-0.1,0.3
		c0,0.1-0.1,0.2-0.2,0.2c-0.1,0.1-0.1,0.1-0.2,0.1s-0.3-0.1-0.5-0.2s-0.5-0.3-0.8-0.4s-0.7-0.3-1.1-0.4s-0.9-0.2-1.5-0.2
		s-1.2,0.1-1.6,0.3c-0.5,0.2-0.9,0.4-1.2,0.8s-0.6,0.7-0.7,1.1s-0.2,0.8-0.2,1.3c0,0.4,0.1,0.9,0.3,1.2c0.2,0.3,0.5,0.6,0.8,0.9
		s0.7,0.5,1.1,0.8s0.8,0.5,1.3,0.8s0.9,0.5,1.3,0.8s0.8,0.6,1.1,1c0.3,0.4,0.6,0.8,0.8,1.3s0.3,1.1,0.3,1.7c0,0.9-0.2,1.7-0.5,2.5
		c-0.4,0.8-0.9,1.4-1.5,2s-1.5,1-2.4,1.4c-0.9,0.3-2,0.5-3.1,0.5c-0.6,0-1.2-0.1-1.8-0.2c-0.5-0.1-1-0.2-1.5-0.4
		c-0.4-0.2-0.8-0.3-1.1-0.5s-0.5-0.3-0.6-0.4c-0.1-0.1-0.2-0.3-0.2-0.6c0-0.1,0-0.1,0-0.3c0-0.1,0-0.2,0.1-0.4
		c0-0.1,0.1-0.3,0.1-0.4c0-0.1,0.1-0.2,0.1-0.4c0.1-0.1,0.1-0.2,0.2-0.3s0.1-0.1,0.2-0.1c0.2,0,0.4,0.1,0.6,0.3
		c0.3,0.2,0.5,0.3,0.9,0.5s0.8,0.4,1.3,0.5s1.1,0.2,1.8,0.2c0.7,0,1.4-0.1,1.9-0.3s1-0.5,1.4-0.8s0.7-0.8,0.9-1.2
		c0.2-0.5,0.3-1,0.3-1.5s-0.1-0.9-0.3-1.2c-0.2-0.3-0.5-0.7-0.8-0.9c-0.3-0.3-0.7-0.5-1.1-0.8c-0.4-0.2-0.8-0.5-1.3-0.7
		c-0.4-0.3-0.9-0.5-1.3-0.8s-0.8-0.6-1.1-1c-0.3-0.4-0.6-0.8-0.8-1.3c-0.2-0.5-0.3-1.1-0.3-1.8c0-0.8,0.2-1.6,0.5-2.3
		c0.3-0.7,0.8-1.3,1.4-1.9c0.6-0.5,1.3-1,2.1-1.3c0.8-0.3,1.8-0.5,2.8-0.5c0.5,0,1,0,1.4,0.1s0.9,0.2,1.2,0.3
		c0.4,0.1,0.7,0.3,0.9,0.4c0.3,0.1,0.4,0.3,0.5,0.3c0.1,0.1,0.2,0.2,0.2,0.3C486.5,118.5,486.6,118.6,486.6,118.8z"/>
	<path class="st2" d="M505.5,118.8c0,0.1,0,0.2,0,0.3c0,0.1,0,0.2,0,0.3c0,0.1-0.1,0.2-0.1,0.4c0,0.1-0.1,0.3-0.1,0.3
		c0,0.1-0.1,0.2-0.2,0.2c-0.1,0.1-0.1,0.1-0.2,0.1s-0.3-0.1-0.5-0.2s-0.5-0.3-0.8-0.4s-0.7-0.3-1.1-0.4s-0.9-0.2-1.5-0.2
		s-1.2,0.1-1.6,0.3c-0.5,0.2-0.9,0.4-1.2,0.8s-0.6,0.7-0.7,1.1c-0.2,0.4-0.2,0.8-0.2,1.3c0,0.4,0.1,0.9,0.3,1.2
		c0.2,0.3,0.5,0.6,0.8,0.9s0.7,0.5,1.1,0.8s0.8,0.5,1.3,0.8s0.9,0.5,1.3,0.8s0.8,0.6,1.1,1c0.3,0.4,0.6,0.8,0.8,1.3s0.3,1.1,0.3,1.7
		c0,0.9-0.2,1.7-0.5,2.5c-0.4,0.8-0.9,1.4-1.5,2s-1.5,1-2.4,1.4c-0.9,0.3-2,0.5-3.1,0.5c-0.6,0-1.2-0.1-1.8-0.2
		c-0.5-0.1-1-0.2-1.5-0.4c-0.4-0.2-0.8-0.3-1.1-0.5s-0.5-0.3-0.6-0.4c-0.1-0.1-0.2-0.3-0.2-0.6c0-0.1,0-0.1,0-0.3
		c0-0.1,0-0.2,0.1-0.4c0-0.1,0.1-0.3,0.1-0.4c0-0.1,0.1-0.2,0.1-0.4c0.1-0.1,0.1-0.2,0.2-0.3s0.1-0.1,0.2-0.1c0.2,0,0.4,0.1,0.6,0.3
		c0.3,0.2,0.5,0.3,0.9,0.5s0.8,0.4,1.3,0.5s1.1,0.2,1.8,0.2c0.7,0,1.4-0.1,1.9-0.3s1-0.5,1.4-0.8s0.7-0.8,0.9-1.2
		c0.2-0.5,0.3-1,0.3-1.5s-0.1-0.9-0.3-1.2c-0.2-0.3-0.5-0.7-0.8-0.9c-0.3-0.3-0.7-0.5-1.1-0.8s-0.8-0.5-1.3-0.7
		c-0.4-0.3-0.9-0.5-1.3-0.8s-0.8-0.6-1.1-1c-0.3-0.4-0.6-0.8-0.8-1.3c-0.2-0.5-0.3-1.1-0.3-1.8c0-0.8,0.2-1.6,0.5-2.3
		c0.3-0.7,0.8-1.3,1.4-1.9c0.6-0.5,1.3-1,2.1-1.3c0.8-0.3,1.8-0.5,2.8-0.5c0.5,0,1,0,1.4,0.1s0.9,0.2,1.2,0.3
		c0.4,0.1,0.7,0.3,0.9,0.4c0.3,0.1,0.4,0.3,0.5,0.3s0.2,0.2,0.2,0.3C505.4,118.5,505.5,118.6,505.5,118.8z"/>
	<path class="st2" d="M519.3,127.5c0,0.8-0.1,1.5-0.2,2.3c-0.1,0.8-0.4,1.6-0.7,2.3s-0.7,1.4-1.1,2.1c-0.5,0.6-1,1.2-1.6,1.7
		s-1.3,0.9-2.1,1.1c-0.8,0.3-1.6,0.4-2.6,0.4c-1,0-1.8-0.1-2.5-0.4c-0.7-0.2-1.3-0.6-1.7-1s-0.8-1-1-1.7s-0.3-1.4-0.3-2.2
		s0.1-1.5,0.2-2.3s0.4-1.6,0.6-2.3c0.3-0.7,0.7-1.4,1.1-2.1c0.5-0.6,1-1.2,1.6-1.7s1.3-0.9,2.1-1.1c0.8-0.3,1.6-0.4,2.6-0.4
		s1.8,0.1,2.5,0.4c0.7,0.2,1.3,0.6,1.7,1c0.5,0.4,0.8,1,1,1.7C519.2,126,519.3,126.7,519.3,127.5z M516.7,127.7c0-0.5,0-1-0.2-1.4
		s-0.3-0.8-0.5-1c-0.3-0.3-0.6-0.5-1-0.7s-0.9-0.2-1.5-0.2s-1.2,0.1-1.7,0.3c-0.5,0.2-1,0.5-1.4,0.9s-0.7,0.8-1,1.3s-0.5,1-0.7,1.6
		s-0.3,1.1-0.4,1.8c-0.1,0.6-0.1,1.2-0.1,1.8c0,0.5,0.1,1,0.2,1.4s0.3,0.8,0.5,1.1c0.3,0.3,0.6,0.5,1,0.7c0.4,0.1,0.9,0.2,1.5,0.2
		s1.2-0.1,1.7-0.3s1-0.5,1.3-0.9c0.4-0.4,0.7-0.8,1-1.3s0.5-1,0.7-1.6s0.3-1.2,0.4-1.8C516.6,128.9,516.7,128.3,516.7,127.7z"/>
	<path class="st2" d="M532.4,124.2c0,0.2,0,0.4,0,0.6s-0.1,0.4-0.2,0.6c-0.1,0.2-0.2,0.3-0.3,0.4s-0.2,0.2-0.3,0.2
		c-0.2,0-0.3-0.1-0.5-0.2s-0.4-0.3-0.6-0.5c-0.3-0.2-0.6-0.4-1-0.5c-0.4-0.2-0.9-0.2-1.5-0.2c-0.7,0-1.2,0.1-1.8,0.4
		c-0.5,0.3-1,0.6-1.3,1.1s-0.7,0.9-0.9,1.5s-0.4,1.1-0.6,1.7c-0.2,0.6-0.3,1.1-0.3,1.6s-0.1,1-0.1,1.4c0,1.1,0.2,1.9,0.7,2.4
		s1.2,0.8,2.1,0.8c0.7,0,1.2-0.1,1.7-0.3s0.9-0.4,1.2-0.6c0.3-0.2,0.6-0.4,0.8-0.6c0.2-0.2,0.4-0.3,0.6-0.3c0.1,0,0.2,0,0.2,0.1
		s0.1,0.2,0.1,0.3s0,0.3,0,0.4s0,0.4-0.1,0.5c0,0.2-0.1,0.4-0.2,0.5c-0.1,0.1-0.2,0.3-0.3,0.4c-0.1,0.1-0.3,0.3-0.7,0.5
		c-0.3,0.2-0.7,0.4-1.1,0.5c-0.4,0.1-0.8,0.3-1.3,0.4c-0.5,0.1-1,0.1-1.5,0.1c-1.7,0-2.9-0.4-3.7-1.3s-1.2-2.1-1.2-3.8
		c0-0.6,0.1-1.3,0.2-2.1c0.1-0.8,0.3-1.5,0.5-2.3c0.3-0.8,0.6-1.5,1-2.2s0.9-1.3,1.5-1.9s1.3-1,2-1.3c0.8-0.3,1.7-0.5,2.7-0.5
		c0.4,0,0.8,0,1.2,0.1s0.7,0.1,1.1,0.3c0.3,0.1,0.6,0.3,0.9,0.4c0.3,0.2,0.5,0.3,0.6,0.5c0.2,0.1,0.2,0.3,0.3,0.3
		C532.4,123.9,532.4,124,532.4,124.2z"/>
	<path class="st2" d="M534.6,136.8c0,0.1,0,0.1-0.1,0.2c0,0.1-0.1,0.1-0.2,0.1s-0.2,0.1-0.4,0.1s-0.4,0-0.6,0s-0.5,0-0.6,0
		c-0.2,0-0.3-0.1-0.4-0.1c-0.1,0-0.2-0.1-0.2-0.1c0-0.1,0-0.1,0-0.2l2.8-13.9c0-0.1,0-0.1,0.1-0.2c0-0.1,0.1-0.1,0.2-0.1
		c0.1,0,0.2-0.1,0.4-0.1s0.4,0,0.6,0c0.3,0,0.5,0,0.6,0s0.3,0.1,0.4,0.1c0.1,0,0.1,0.1,0.2,0.1c0,0.1,0,0.1,0,0.2L534.6,136.8z
		 M538.6,118.3c0,0.3-0.1,0.5-0.2,0.7c-0.1,0.2-0.2,0.4-0.3,0.5c-0.2,0.1-0.3,0.2-0.5,0.3c-0.2,0.1-0.5,0.1-0.8,0.1s-0.5,0-0.7-0.1
		s-0.3-0.1-0.4-0.3c-0.1-0.1-0.1-0.3-0.2-0.5s0-0.4,0.1-0.7c0.1-0.3,0.1-0.5,0.2-0.7c0.1-0.2,0.2-0.4,0.3-0.5s0.3-0.2,0.5-0.3
		c0.2-0.1,0.5-0.1,0.8-0.1s0.5,0,0.7,0.1c0.2,0,0.3,0.1,0.4,0.3c0.1,0.1,0.2,0.3,0.2,0.5C538.7,117.7,538.7,118,538.6,118.3z"/>
	<path class="st2" d="M551.3,125.8c0,0.7-0.2,1.4-0.5,1.9c-0.3,0.5-0.8,1.1-1.5,1.4c-0.7,0.4-1.6,0.7-2.7,0.9
		c-1.1,0.2-2.4,0.3-3.9,0.3h-1.6c-0.1,0.3-0.1,0.7-0.2,1c0,0.3,0,0.6,0,0.9c0,1,0.3,1.8,0.8,2.4c0.5,0.5,1.3,0.8,2.5,0.8
		c0.7,0,1.3-0.1,1.8-0.1c0.5-0.1,1-0.2,1.4-0.3s0.7-0.2,1-0.3c0.2-0.1,0.4-0.1,0.5-0.1s0.2,0,0.2,0.1s0.1,0.2,0.1,0.3s0,0.2,0,0.4
		c0,0.1,0,0.3-0.1,0.4c0,0.1-0.1,0.3-0.2,0.4c-0.1,0.1-0.1,0.2-0.2,0.3c-0.1,0.1-0.3,0.2-0.7,0.4c-0.3,0.1-0.7,0.2-1.1,0.3
		s-0.9,0.2-1.4,0.2c-0.5,0.1-1,0.1-1.5,0.1c-0.9,0-1.7-0.1-2.4-0.3s-1.3-0.5-1.7-0.9c-0.5-0.4-0.8-1-1-1.6s-0.3-1.4-0.3-2.3
		c0-0.7,0.1-1.4,0.2-2.1c0.1-0.8,0.3-1.5,0.6-2.3s0.6-1.5,1.1-2.2s1-1.3,1.6-1.8s1.3-0.9,2.1-1.3c0.8-0.3,1.7-0.5,2.7-0.5
		c0.9,0,1.6,0.1,2.2,0.3c0.6,0.2,1.1,0.5,1.5,0.8s0.7,0.7,0.8,1.1C551.3,124.9,551.3,125.4,551.3,125.8z M548.7,126
		c0-0.5-0.2-0.9-0.6-1.3c-0.4-0.3-1-0.5-1.8-0.5c-0.7,0-1.3,0.1-1.8,0.3c-0.5,0.2-1,0.5-1.4,0.9s-0.7,0.8-1,1.4s-0.5,1.1-0.7,1.6
		h1.6c1.1,0,2-0.1,2.7-0.2c0.7-0.1,1.3-0.3,1.7-0.6c0.4-0.2,0.7-0.5,0.9-0.8C548.6,126.7,548.7,126.4,548.7,126z"/>
	<path class="st2" d="M561.7,123.1c0,0.1,0,0.2,0,0.3s0,0.2-0.1,0.3c0,0.1-0.1,0.2-0.1,0.3c0,0.1-0.1,0.2-0.2,0.3s-0.1,0.1-0.2,0.2
		c-0.1,0.1-0.2,0.1-0.3,0.1h-3.5l-1.6,7.7c0,0.2-0.1,0.5-0.1,0.7c0,0.3,0,0.5,0,0.7c0,0.5,0.1,0.9,0.3,1.1c0.2,0.2,0.6,0.4,1.1,0.4
		c0.3,0,0.5,0,0.7-0.1s0.4-0.1,0.5-0.1c0.2-0.1,0.3-0.1,0.4-0.1c0.1,0,0.2-0.1,0.3-0.1s0.2,0,0.2,0.1s0.1,0.2,0.1,0.3s0,0.3,0,0.4
		c0,0.2-0.1,0.3-0.1,0.5s-0.1,0.3-0.2,0.4c-0.1,0.1-0.1,0.2-0.2,0.3c-0.1,0.1-0.2,0.1-0.4,0.2c-0.2,0.1-0.3,0.1-0.6,0.2
		c-0.2,0.1-0.5,0.1-0.7,0.1s-0.5,0.1-0.7,0.1c-0.6,0-1.1-0.1-1.5-0.2c-0.4-0.1-0.8-0.3-1.1-0.6s-0.5-0.6-0.6-1s-0.2-0.9-0.2-1.4
		c0-0.1,0-0.3,0-0.4c0-0.1,0-0.3,0.1-0.5c0-0.2,0-0.3,0.1-0.5c0-0.2,0-0.3,0.1-0.5l1.6-7.8h-1.9c-0.1,0-0.2,0-0.3-0.1
		s-0.1-0.2-0.1-0.4c0-0.1,0-0.3,0-0.5s0.1-0.4,0.1-0.5s0.1-0.3,0.2-0.4c0.1-0.1,0.2-0.2,0.3-0.2h1.9l0.7-3.3c0-0.1,0-0.1,0.1-0.2
		s0.1-0.1,0.2-0.2c0.1-0.1,0.2-0.1,0.4-0.1s0.4,0,0.6,0s0.5,0,0.6,0s0.3,0.1,0.4,0.1c0.1,0,0.1,0.1,0.2,0.2c0,0.1,0,0.1,0,0.2
		l-0.7,3.3h3.5c0.2,0,0.3,0.1,0.3,0.2C561.6,122.8,561.7,122.9,561.7,123.1z"/>
	<path class="st2" d="M574.4,122.8c0,0.1,0,0.2,0,0.3c0,0.1-0.1,0.2-0.1,0.3c-0.3,0.9-0.7,1.9-1.1,2.9c-0.4,1-0.9,2.1-1.4,3.2
		s-1.2,2.3-1.9,3.5s-1.6,2.5-2.5,3.8l-4,5.4c-0.1,0.1-0.1,0.1-0.2,0.2c-0.1,0.1-0.2,0.1-0.3,0.2c-0.1,0-0.3,0.1-0.5,0.1
		s-0.4,0-0.7,0s-0.5,0-0.7,0s-0.3-0.1-0.4-0.1c-0.1-0.1-0.1-0.1-0.1-0.3s0.1-0.2,0.2-0.4l3.8-4.8l-2.3-13.6c0-0.1,0-0.2,0-0.3
		c0-0.1,0-0.2,0-0.3c0-0.1,0-0.2,0.1-0.3c0-0.1,0.1-0.1,0.2-0.2c0.1-0.1,0.2-0.1,0.4-0.1s0.4,0,0.6,0c0.3,0,0.5,0,0.7,0
		s0.3,0,0.4,0.1c0.1,0,0.2,0.1,0.2,0.2s0.1,0.2,0.1,0.3l1.8,11.3l0,0c0.6-0.9,1.2-1.8,1.7-2.7s1-1.9,1.4-2.8s0.8-1.9,1.2-2.9
		s0.7-1.9,1-2.9c0-0.1,0.1-0.1,0.1-0.2s0.1-0.1,0.3-0.1c0.1,0,0.3-0.1,0.4-0.1c0.2,0,0.4,0,0.7,0c0.5,0,0.8,0,0.9,0.1
		C574.3,122.6,574.4,122.7,574.4,122.8z"/>
	<g>
		<path class="st2" d="M598.5,135.1c0,0.2-0.1,0.4-0.2,0.5c-0.1,0.1-0.2,0.3-0.3,0.4c-0.1,0.1-0.3,0.2-0.4,0.2s-0.3,0.1-0.4,0.1h-1
			c-0.3,0-0.5,0-0.7-0.1s-0.3-0.2-0.5-0.3c-0.1-0.1-0.3-0.3-0.4-0.6c-0.1-0.2-0.2-0.5-0.3-0.9l-3.8-10.6c-0.3-0.8-0.5-1.5-0.8-2.3
			s-0.5-1.5-0.7-2.3l0,0c-0.1,0.8-0.3,1.7-0.4,2.5c-0.2,0.8-0.3,1.7-0.5,2.5l-2.3,11.6c0,0.1-0.1,0.1-0.1,0.2
			c-0.1,0.1-0.1,0.1-0.3,0.1s-0.2,0.1-0.4,0.1s-0.4,0-0.6,0s-0.4,0-0.6,0c-0.2,0-0.3-0.1-0.4-0.1c-0.1,0-0.1-0.1-0.2-0.1
			c0-0.1,0-0.1,0-0.2l3.7-18.4c0.1-0.4,0.3-0.7,0.5-0.9c0.3-0.2,0.5-0.3,0.8-0.3h1.2c0.2,0,0.5,0,0.7,0.1s0.3,0.1,0.5,0.3
			c0.1,0.1,0.3,0.3,0.4,0.5c0.1,0.2,0.2,0.5,0.3,0.8l3.8,10.8c0.2,0.7,0.5,1.3,0.7,2s0.5,1.3,0.7,2l0,0c0.2-0.8,0.3-1.7,0.5-2.6
			c0.2-0.9,0.3-1.8,0.5-2.6l2.2-10.8c0-0.1,0.1-0.1,0.1-0.2s0.1-0.1,0.2-0.1c0.1,0,0.2-0.1,0.4-0.1s0.4,0,0.6,0c0.2,0,0.4,0,0.6,0
			c0.2,0,0.3,0.1,0.4,0.1c0.1,0,0.2,0.1,0.2,0.1c0,0.1,0,0.1,0,0.2L598.5,135.1z"/>
		<path class="st2" d="M615.4,124.8c0,0.7-0.2,1.4-0.5,1.9s-0.8,1.1-1.5,1.4c-0.7,0.4-1.6,0.7-2.7,0.9c-1.1,0.2-2.4,0.3-3.9,0.3
			h-1.6c-0.1,0.3-0.1,0.7-0.2,1c0,0.3,0,0.6,0,0.9c0,1,0.3,1.8,0.8,2.4s1.3,0.8,2.5,0.8c0.7,0,1.2-0.1,1.8-0.1
			c0.5-0.1,1-0.2,1.4-0.3s0.7-0.2,1-0.3c0.2-0.1,0.4-0.1,0.5-0.1s0.2,0,0.2,0.1s0.1,0.2,0.1,0.3s0,0.2,0,0.4s0,0.3-0.1,0.4
			c0,0.1-0.1,0.3-0.2,0.4c-0.1,0.1-0.1,0.3-0.2,0.3c-0.1,0.1-0.3,0.3-0.7,0.4c-0.3,0.1-0.7,0.2-1.1,0.3c-0.4,0.1-0.9,0.2-1.4,0.2
			c-0.5,0.1-1,0.1-1.5,0.1c-0.9,0-1.7-0.1-2.4-0.3s-1.3-0.5-1.7-0.9c-0.5-0.4-0.8-1-1-1.6s-0.3-1.4-0.3-2.3c0-0.7,0.1-1.4,0.2-2.2
			c0.1-0.8,0.3-1.5,0.6-2.3s0.6-1.5,1.1-2.2c0.4-0.7,1-1.3,1.6-1.8s1.3-0.9,2.1-1.3s1.7-0.5,2.7-0.5c0.9,0,1.6,0.1,2.2,0.3
			c0.6,0.2,1.1,0.5,1.5,0.8s0.7,0.7,0.8,1.1C615.3,124,615.4,124.4,615.4,124.8z M612.8,125c0-0.5-0.2-0.9-0.6-1.3
			c-0.4-0.3-1-0.5-1.8-0.5c-0.7,0-1.3,0.1-1.8,0.4c-0.5,0.2-1,0.5-1.4,0.9s-0.7,0.9-1,1.4s-0.5,1.1-0.7,1.6h1.6c1.1,0,2-0.1,2.7-0.2
			s1.3-0.3,1.7-0.6c0.4-0.2,0.7-0.5,0.9-0.8C612.7,125.7,612.8,125.4,612.8,125z"/>
		<path class="st2" d="M637.5,121.9c0,0.1,0,0.2,0,0.4c0,0.1-0.1,0.2-0.1,0.3c-0.4,1.1-0.8,2.3-1.3,3.4s-1,2.3-1.5,3.4
			s-1.2,2.3-1.8,3.3c-0.7,1.1-1.3,2.2-2.1,3.2c-0.1,0.1-0.2,0.2-0.3,0.3s-0.2,0.1-0.4,0.1c-0.1,0-0.3,0.1-0.5,0.1s-0.4,0-0.6,0
			c-0.3,0-0.5,0-0.7,0s-0.3-0.1-0.4-0.1s-0.2-0.1-0.2-0.2c0-0.1-0.1-0.2-0.1-0.3l-1-10.2l-4.7,10.1c0,0.1-0.1,0.2-0.2,0.3
			c-0.1,0.1-0.2,0.1-0.3,0.2s-0.3,0.1-0.5,0.1s-0.4,0-0.7,0s-0.5,0-0.7,0s-0.4-0.1-0.5-0.1s-0.2-0.1-0.3-0.2
			c-0.1-0.1-0.1-0.2-0.1-0.3l-1.5-13.2c0-0.1,0-0.2,0-0.3c0-0.1,0-0.2,0-0.2c0-0.1,0-0.2,0.1-0.3c0-0.1,0.1-0.1,0.2-0.2
			c0.1-0.1,0.2-0.1,0.4-0.1s0.4,0,0.7,0s0.5,0,0.6,0c0.2,0,0.3,0,0.4,0.1c0.1,0,0.2,0.1,0.2,0.1c0,0.1,0,0.1,0.1,0.2l1.1,11.5v0.1
			l0.1-0.1L626,122c0-0.1,0.1-0.2,0.1-0.2c0-0.1,0.1-0.1,0.2-0.2c0.1,0,0.2-0.1,0.4-0.1s0.3,0,0.6,0c0.2,0,0.4,0,0.6,0
			c0.2,0,0.3,0,0.4,0.1c0.1,0,0.2,0.1,0.2,0.1c0,0.1,0.1,0.1,0.1,0.2l1.1,11.4v0.1l0.1-0.1c0.5-0.7,1-1.6,1.4-2.5
			c0.5-0.9,0.9-1.9,1.4-2.8c0.4-1,0.9-2,1.3-3.1c0.4-1,0.8-2.1,1.1-3.1c0-0.1,0.1-0.2,0.1-0.2c0.1-0.1,0.2-0.1,0.3-0.1
			s0.3-0.1,0.4-0.1c0.2,0,0.4,0,0.7,0s0.5,0,0.6,0c0.2,0,0.3,0,0.4,0.1c0.1,0,0.1,0.1,0.2,0.1C637.5,121.7,637.5,121.8,637.5,121.9z
			"/>
		<path class="st2" d="M660.8,123.5c0,0.7,0,1.4-0.1,2.1s-0.2,1.4-0.4,2.2c-0.2,0.7-0.5,1.4-0.8,2.1s-0.7,1.4-1.2,2s-1,1.2-1.6,1.8
			c-0.6,0.5-1.3,1-2.1,1.4s-1.6,0.7-2.6,0.9c-0.9,0.2-2.1,0.3-3.4,0.3h-4.4c-0.1,0-0.3,0-0.4-0.1c-0.1,0-0.2-0.1-0.3-0.2
			s-0.1-0.2-0.2-0.3c0-0.1,0-0.3,0-0.5l3.5-17.8c0.1-0.4,0.2-0.7,0.5-0.8s0.5-0.2,0.8-0.2h4.2c1.5,0,2.8,0.2,3.8,0.5
			s1.8,0.8,2.5,1.4s1.2,1.4,1.5,2.3C660.6,121.3,660.8,122.3,660.8,123.5z M658,123.7c0-0.8-0.1-1.5-0.3-2.1s-0.5-1.2-1-1.6
			c-0.5-0.5-1-0.8-1.7-1.1c-0.7-0.3-1.6-0.4-2.8-0.4h-2.8l-3.1,15.5h2.8c1.3,0,2.3-0.1,3.2-0.5c0.8-0.3,1.6-0.7,2.2-1.2
			c0.7-0.5,1.2-1.1,1.7-1.8s0.8-1.4,1.1-2.2s0.5-1.5,0.6-2.3C657.9,125.2,658,124.4,658,123.7z"/>
		<path class="st2" d="M674.4,124.8c0,0.7-0.2,1.4-0.5,1.9c-0.3,0.6-0.8,1.1-1.5,1.4c-0.7,0.4-1.6,0.7-2.7,0.9
			c-1.1,0.2-2.4,0.3-3.9,0.3h-1.6c-0.1,0.3-0.1,0.7-0.1,1s0,0.6,0,0.9c0,1,0.3,1.8,0.8,2.4c0.5,0.6,1.3,0.8,2.5,0.8
			c0.7,0,1.3-0.1,1.8-0.1c0.5-0.1,1-0.2,1.4-0.3s0.7-0.2,1-0.3s0.4-0.1,0.5-0.1s0.2,0,0.2,0.1s0.1,0.2,0.1,0.3s0,0.2,0,0.4
			s0,0.3-0.1,0.4c0,0.1-0.1,0.3-0.2,0.4c-0.1,0.1-0.1,0.3-0.2,0.3c-0.1,0.1-0.3,0.3-0.7,0.4c-0.3,0.1-0.7,0.2-1.1,0.3
			s-0.9,0.2-1.4,0.2c-0.5,0.1-1,0.1-1.5,0.1c-0.9,0-1.7-0.1-2.4-0.3s-1.3-0.5-1.7-0.9c-0.5-0.4-0.8-1-1-1.6s-0.3-1.4-0.3-2.3
			c0-0.7,0.1-1.4,0.2-2.2c0.1-0.8,0.3-1.5,0.6-2.3s0.6-1.5,1.1-2.2c0.4-0.7,1-1.3,1.6-1.8s1.3-0.9,2.1-1.3s1.7-0.5,2.7-0.5
			c0.9,0,1.6,0.1,2.2,0.3c0.6,0.2,1.1,0.5,1.5,0.8s0.7,0.7,0.8,1.1C674.3,124,674.4,124.4,674.4,124.8z M671.8,125
			c0-0.5-0.2-0.9-0.6-1.3c-0.4-0.3-1-0.5-1.8-0.5c-0.7,0-1.3,0.1-1.8,0.4c-0.5,0.2-1,0.5-1.4,0.9s-0.7,0.9-1,1.4s-0.5,1.1-0.7,1.6
			h1.6c1.1,0,2-0.1,2.7-0.2s1.3-0.3,1.7-0.6c0.4-0.2,0.7-0.5,0.9-0.8C671.7,125.7,671.8,125.4,671.8,125z"/>
		<path class="st2" d="M677.5,135.8c0,0.1,0,0.1-0.1,0.2c0,0.1-0.1,0.1-0.2,0.1c-0.1,0-0.2,0.1-0.4,0.1s-0.4,0-0.6,0
			c-0.3,0-0.5,0-0.6,0c-0.2,0-0.3-0.1-0.4-0.1c-0.1,0-0.1-0.1-0.2-0.1c0-0.1,0-0.1,0-0.2l4.1-20.6c0-0.1,0-0.2,0.1-0.2
			s0.1-0.1,0.2-0.1s0.3-0.1,0.4-0.1c0.2,0,0.4,0,0.6,0c0.3,0,0.5,0,0.6,0c0.2,0,0.3,0.1,0.4,0.1c0.1,0,0.1,0.1,0.2,0.1
			c0,0.1,0,0.1,0,0.2L677.5,135.8z"/>
		<path class="st2" d="M692.5,135.8c0,0.1,0,0.1-0.1,0.2c0,0.1-0.1,0.1-0.2,0.1c-0.1,0-0.2,0.1-0.4,0.1s-0.4,0-0.6,0
			c-0.2,0-0.5,0-0.6,0s-0.3-0.1-0.4-0.1c-0.1,0-0.1-0.1-0.2-0.1c0-0.1,0-0.1,0-0.2l1.7-8.6c0-0.3,0.1-0.6,0.1-0.9s0-0.6,0-0.9
			s0-0.6-0.1-0.8s-0.2-0.5-0.3-0.6s-0.3-0.3-0.5-0.4s-0.5-0.2-0.8-0.2c-0.5,0-1.1,0.2-1.7,0.5c-0.6,0.3-1.1,0.8-1.6,1.3
			c-0.5,0.6-0.9,1.2-1.3,2c-0.4,0.8-0.7,1.6-0.8,2.4l-1.2,6.1c0,0.1-0.1,0.1-0.1,0.2c0,0.1-0.1,0.1-0.2,0.1c-0.1,0-0.2,0.1-0.4,0.1
			s-0.4,0-0.6,0c-0.3,0-0.5,0-0.6,0s-0.3-0.1-0.4-0.1c-0.1,0-0.1-0.1-0.2-0.1c0-0.1,0-0.1,0-0.2l4.1-20.6c0-0.1,0-0.2,0.1-0.2
			s0.1-0.1,0.2-0.1s0.3-0.1,0.4-0.1c0.2,0,0.4,0,0.6,0c0.2,0,0.5,0,0.6,0c0.2,0,0.3,0.1,0.4,0.1c0.1,0,0.1,0.1,0.2,0.1
			c0,0.1,0,0.1,0,0.2l-1.2,6.3c0,0.3-0.1,0.5-0.2,0.8c-0.1,0.3-0.2,0.6-0.2,0.8c-0.1,0.3-0.2,0.5-0.2,0.8c-0.1,0.3-0.2,0.5-0.2,0.6
			c0.2-0.4,0.4-0.7,0.8-1.1c0.3-0.4,0.8-0.7,1.2-1.1c0.5-0.3,1-0.6,1.6-0.8c0.6-0.2,1.2-0.3,1.8-0.3c0.7,0,1.2,0.1,1.7,0.3
			c0.5,0.2,0.8,0.4,1.1,0.8c0.3,0.3,0.5,0.7,0.6,1.2s0.2,1,0.2,1.5c0,0.4,0,0.7-0.1,1.1s-0.1,0.7-0.2,1.1L692.5,135.8z"/>
		<path class="st2" d="M698.5,135.8c0,0.1-0.1,0.1-0.1,0.2c0,0.1-0.1,0.1-0.2,0.1c-0.1,0-0.2,0.1-0.4,0.1s-0.4,0-0.6,0
			c-0.3,0-0.5,0-0.6,0c-0.2,0-0.3-0.1-0.4-0.1c-0.1,0-0.1-0.1-0.2-0.1c0-0.1,0-0.1,0-0.2l2.8-13.9c0-0.1,0-0.1,0.1-0.2
			c0-0.1,0.1-0.1,0.2-0.1c0.1,0,0.2-0.1,0.4-0.1s0.4,0,0.6,0c0.3,0,0.5,0,0.6,0s0.3,0.1,0.4,0.1c0.1,0,0.1,0.1,0.2,0.1
			c0,0.1,0,0.1,0,0.2L698.5,135.8z M702.5,117.3c0,0.3-0.1,0.5-0.2,0.7c-0.1,0.2-0.2,0.4-0.3,0.5s-0.3,0.2-0.5,0.3
			c-0.2,0.1-0.5,0.1-0.8,0.1s-0.5,0-0.7-0.1s-0.3-0.1-0.4-0.3c-0.1-0.1-0.2-0.3-0.2-0.5s0-0.4,0.1-0.7c0.1-0.3,0.1-0.5,0.2-0.7
			c0.1-0.2,0.2-0.4,0.3-0.5s0.3-0.2,0.5-0.3c0.2-0.1,0.5-0.1,0.8-0.1s0.5,0,0.7,0.1s0.3,0.1,0.4,0.3c0.1,0.1,0.2,0.3,0.2,0.5
			C702.5,116.8,702.5,117,702.5,117.3z"/>
		<path class="st2" d="M706.3,140.9c1.1-1.7,2.1-3.4,2.8-5c0.8-1.7,1.4-3.3,1.9-4.9c0.5-1.6,0.8-3.1,1.1-4.6
			c0.2-1.5,0.3-2.9,0.3-4.2c0-0.6,0-1.1,0-1.7s-0.1-1.2-0.2-1.8c-0.1-0.6-0.2-1.2-0.3-1.8c-0.1-0.6-0.2-1.2-0.4-1.7
			c0-0.1,0-0.2,0-0.3c0-0.1,0-0.2,0.1-0.2c0.1-0.1,0.2-0.1,0.3-0.1s0.4,0,0.6,0c0.2,0,0.3,0,0.5,0c0.1,0,0.2,0,0.3,0.1
			c0.1,0,0.2,0.1,0.2,0.1l0.1,0.1c0.4,1.2,0.7,2.4,0.9,3.8c0.2,1.3,0.4,2.8,0.4,4.3c0,1.3-0.1,2.7-0.3,4.1c-0.2,1.4-0.6,2.9-1.1,4.4
			s-1.2,3.1-2,4.8s-1.8,3.3-3,5.1c0,0.1-0.1,0.1-0.2,0.2c-0.1,0.1-0.2,0.1-0.3,0.1s-0.3,0.1-0.4,0.1c-0.2,0-0.4,0-0.6,0
			s-0.4,0-0.6-0.1c-0.1,0-0.3-0.1-0.3-0.1c-0.1-0.1-0.1-0.1-0.1-0.2C706.2,141.1,706.2,141,706.3,140.9z"/>
	</g>
	<g>
		<path class="st2" d="M573.1,140.9c0.7-1.9,1.5-5.3,1.9-7.6l3.1-0.3c-0.7,2.7-2.1,6.2-3,7.7L573.1,140.9z"/>
	</g>
</g>
<g>
	<path d="M252.9,161.2c-0.2,2.1-1,3.6-2.3,4.8c-1.3,1.1-3,1.7-5.1,1.7c-2.3,0-4.1-0.8-5.5-2.5c-1.4-1.6-2.1-3.9-2.1-6.6v-1.9
		c0-1.8,0.3-3.4,1-4.8s1.6-2.4,2.7-3.2c1.2-0.7,2.6-1.1,4.1-1.1c2.1,0,3.7,0.6,5,1.7c1.2,1.2,2,2.8,2.2,4.8h-2.6
		c-0.2-1.6-0.7-2.7-1.4-3.4c-0.7-0.7-1.8-1-3.1-1c-1.6,0-2.9,0.6-3.9,1.8s-1.4,2.9-1.4,5.2v1.9c0,2.1,0.4,3.8,1.3,5s2.1,1.9,3.7,1.9
		c1.4,0,2.5-0.3,3.3-1c0.8-0.6,1.3-1.8,1.5-3.4H252.9z"/>
	<path d="M256.4,167.4v-19.5h6.4c2.1,0,3.7,0.4,4.8,1.3s1.6,2.2,1.6,3.9c0,0.9-0.3,1.7-0.8,2.4s-1.2,1.2-2.1,1.6
		c1.1,0.3,1.9,0.9,2.5,1.7c0.6,0.8,0.9,1.8,0.9,2.9c0,1.7-0.6,3.1-1.7,4.1c-1.1,1-2.7,1.5-4.8,1.5H256.4z M258.9,156.2h3.9
		c1.1,0,2-0.3,2.7-0.8c0.7-0.6,1-1.3,1-2.3c0-1.1-0.3-1.8-0.9-2.3c-0.6-0.5-1.6-0.7-2.8-0.7h-3.8V156.2z M258.9,158.3v7h4.2
		c1.2,0,2.1-0.3,2.8-0.9s1-1.5,1-2.6c0-2.3-1.3-3.5-3.8-3.5H258.9z"/>
	<path d="M279.1,158.7c-2.2-0.6-3.8-1.4-4.8-2.3c-1-0.9-1.5-2.1-1.5-3.4c0-1.5,0.6-2.8,1.8-3.8c1.2-1,2.8-1.5,4.8-1.5
		c1.3,0,2.5,0.3,3.6,0.8c1,0.5,1.9,1.2,2.4,2.1s0.9,1.9,0.9,3h-2.6c0-1.2-0.4-2.1-1.1-2.8c-0.7-0.7-1.8-1-3.2-1
		c-1.3,0-2.3,0.3-3,0.8c-0.7,0.6-1.1,1.3-1.1,2.3c0,0.8,0.3,1.5,1,2c0.7,0.5,1.8,1.1,3.4,1.5s2.9,1,3.8,1.5s1.6,1.2,2,1.9
		s0.7,1.6,0.7,2.6c0,1.6-0.6,2.8-1.8,3.8c-1.2,0.9-2.9,1.4-4.9,1.4c-1.3,0-2.6-0.3-3.7-0.8c-1.2-0.5-2.1-1.2-2.7-2.1s-0.9-1.9-0.9-3
		h2.6c0,1.2,0.4,2.1,1.3,2.8c0.9,0.7,2,1,3.5,1c1.4,0,2.4-0.3,3.1-0.8c0.7-0.6,1.1-1.3,1.1-2.3s-0.3-1.7-1-2.2
		C282.1,159.7,280.9,159.2,279.1,158.7z"/>
	<path d="M300.6,158.4h-8.4v6.9h9.8v2.1h-12.4v-19.5h12.2v2.1h-9.7v6.3h8.4V158.4z"/>
	<path d="M322.7,162.3h-8.2l-1.8,5.1h-2.6l7.4-19.5h2.2l7.4,19.5h-2.6L322.7,162.3z M315.3,160.2h6.6l-3.3-9.1L315.3,160.2z"/>
	<path d="M330.6,167.4v-12.5h-2.3v-1.9h2.3v-1.5c0-1.5,0.4-2.7,1.2-3.6c0.8-0.8,2-1.3,3.5-1.3c0.6,0,1.1,0.1,1.7,0.2l-0.1,2
		c-0.4-0.1-0.9-0.1-1.3-0.1c-0.8,0-1.4,0.2-1.9,0.7s-0.7,1.1-0.7,2v1.5h3.1v1.9h-3.1v12.5H330.6z"/>
	<path d="M340.1,167.4v-12.5h-2.3v-1.9h2.3v-1.5c0-1.5,0.4-2.7,1.2-3.6c0.8-0.8,2-1.3,3.5-1.3c0.6,0,1.1,0.1,1.7,0.2l-0.1,2
		c-0.4-0.1-0.9-0.1-1.3-0.1c-0.8,0-1.4,0.2-1.9,0.7s-0.7,1.1-0.7,2v1.5h3.1v1.9h-3.1v12.5H340.1z"/>
	<path d="M348.4,149.1c0-0.4,0.1-0.7,0.4-1c0.2-0.3,0.6-0.4,1.1-0.4s0.8,0.1,1.1,0.4c0.2,0.3,0.4,0.6,0.4,1c0,0.4-0.1,0.7-0.4,1
		c-0.2,0.3-0.6,0.4-1.1,0.4s-0.8-0.1-1.1-0.4C348.6,149.8,348.4,149.5,348.4,149.1z M351.1,167.4h-2.5v-14.5h2.5V167.4z"/>
	<path d="M357.8,167.4h-2.5v-20.5h2.5V167.4z"/>
	<path d="M361.7,149.1c0-0.4,0.1-0.7,0.4-1c0.2-0.3,0.6-0.4,1.1-0.4c0.5,0,0.8,0.1,1.1,0.4c0.2,0.3,0.4,0.6,0.4,1
		c0,0.4-0.1,0.7-0.4,1c-0.2,0.3-0.6,0.4-1.1,0.4c-0.5,0-0.8-0.1-1.1-0.4C361.8,149.8,361.7,149.5,361.7,149.1z M364.4,167.4h-2.5
		v-14.5h2.5V167.4z"/>
	<path d="M377.3,167.4c-0.1-0.3-0.3-0.8-0.3-1.5c-1.1,1.2-2.5,1.8-4.1,1.8c-1.4,0-2.6-0.4-3.5-1.2c-0.9-0.8-1.4-1.8-1.4-3.1
		c0-1.5,0.6-2.7,1.7-3.5s2.8-1.2,4.8-1.2h2.4v-1.1c0-0.9-0.3-1.6-0.8-2.1c-0.5-0.5-1.3-0.8-2.3-0.8c-0.9,0-1.6,0.2-2.2,0.7
		s-0.9,1-0.9,1.6h-2.5c0-0.7,0.3-1.4,0.8-2.1c0.5-0.7,1.2-1.2,2.1-1.6c0.9-0.4,1.8-0.6,2.9-0.6c1.7,0,3,0.4,3.9,1.2s1.4,2,1.5,3.4
		v6.7c0,1.3,0.2,2.4,0.5,3.2v0.2H377.3z M373.2,165.5c0.8,0,1.5-0.2,2.2-0.6c0.7-0.4,1.2-0.9,1.5-1.6v-3h-1.9c-3,0-4.5,0.9-4.5,2.7
		c0,0.8,0.3,1.4,0.8,1.8C371.7,165.3,372.4,165.5,373.2,165.5z"/>
	<path d="M386.6,149.4v3.5h2.7v1.9h-2.7v9c0,0.6,0.1,1,0.4,1.3c0.2,0.3,0.7,0.4,1.2,0.4c0.3,0,0.7-0.1,1.2-0.2v2
		c-0.7,0.2-1.3,0.3-1.9,0.3c-1.1,0-1.9-0.3-2.5-1c-0.6-0.7-0.8-1.6-0.8-2.8v-9h-2.6v-1.9h2.6v-3.5H386.6z"/>
	<path d="M392.2,149.1c0-0.4,0.1-0.7,0.4-1c0.2-0.3,0.6-0.4,1.1-0.4c0.5,0,0.8,0.1,1.1,0.4c0.2,0.3,0.4,0.6,0.4,1
		c0,0.4-0.1,0.7-0.4,1c-0.2,0.3-0.6,0.4-1.1,0.4c-0.5,0-0.8-0.1-1.1-0.4C392.3,149.8,392.2,149.5,392.2,149.1z M394.9,167.4h-2.5
		v-14.5h2.5V167.4z"/>
	<path d="M398.2,160c0-1.4,0.3-2.7,0.8-3.8c0.6-1.1,1.3-2,2.3-2.6c1-0.6,2.1-0.9,3.4-0.9c2,0,3.6,0.7,4.8,2c1.2,1.4,1.8,3.2,1.8,5.4
		v0.2c0,1.4-0.3,2.7-0.8,3.8s-1.3,2-2.3,2.6s-2.2,0.9-3.5,0.9c-2,0-3.5-0.7-4.8-2c-1.2-1.4-1.8-3.2-1.8-5.4V160z M400.6,160.3
		c0,1.6,0.4,2.9,1.1,3.9c0.7,1,1.7,1.5,3,1.5c1.3,0,2.3-0.5,3-1.5s1.1-2.4,1.1-4.1c0-1.6-0.4-2.9-1.1-3.9c-0.8-1-1.8-1.5-3-1.5
		c-1.2,0-2.2,0.5-3,1.5C401,157.1,400.6,158.5,400.6,160.3z"/>
	<path d="M416.8,152.9l0.1,1.8c1.1-1.4,2.5-2.1,4.3-2.1c3.1,0,4.6,1.7,4.6,5.2v9.6h-2.5v-9.6c0-1-0.2-1.8-0.7-2.3s-1.2-0.7-2.2-0.7
		c-0.8,0-1.5,0.2-2.1,0.6s-1.1,1-1.4,1.7v10.3h-2.5v-14.5H416.8z"/>
	<path d="M451.6,167.4h-2.6l-9.8-15v15h-2.6v-19.5h2.6l9.8,15.1v-15.1h2.6V167.4z"/>
	<path d="M464.7,166c-1,1.1-2.4,1.7-4.2,1.7c-1.5,0-2.7-0.4-3.5-1.3c-0.8-0.9-1.2-2.2-1.2-4v-9.4h2.5v9.3c0,2.2,0.9,3.3,2.7,3.3
		c1.9,0,3.1-0.7,3.8-2.1v-10.5h2.5v14.5h-2.4L464.7,166z"/>
	<path d="M473.2,152.9l0.1,1.6c1.1-1.2,2.5-1.9,4.3-1.9c2,0,3.4,0.8,4.1,2.3c0.5-0.7,1.1-1.3,1.9-1.7c0.8-0.4,1.7-0.6,2.7-0.6
		c3.2,0,4.8,1.7,4.8,5v9.7h-2.5v-9.5c0-1-0.2-1.8-0.7-2.3c-0.5-0.5-1.3-0.8-2.4-0.8c-0.9,0-1.7,0.3-2.3,0.8s-1,1.3-1.1,2.2v9.6h-2.5
		v-9.5c0-2.1-1-3.2-3.1-3.2c-1.6,0-2.7,0.7-3.3,2.1v10.6h-2.5v-14.5H473.2z"/>
	<path d="M507.1,160.3c0,2.2-0.5,4-1.5,5.3c-1,1.3-2.4,2-4.1,2c-1.8,0-3.2-0.6-4.2-1.9l-0.1,1.7h-2.3v-20.5h2.5v7.7
		c1-1.2,2.4-1.9,4.1-1.9s3.1,0.7,4.1,2s1.5,3.1,1.5,5.5V160.3z M504.6,160c0-1.7-0.3-3-1-3.9c-0.7-0.9-1.6-1.4-2.8-1.4
		c-1.6,0-2.8,0.8-3.5,2.3v6.3c0.8,1.5,1.9,2.3,3.5,2.3c1.2,0,2.1-0.5,2.8-1.4C504.3,163.3,504.6,161.9,504.6,160z"/>
	<path d="M516.2,167.6c-2,0-3.6-0.6-4.8-1.9c-1.2-1.3-1.8-3-1.8-5.2v-0.5c0-1.4,0.3-2.7,0.8-3.8s1.3-2,2.3-2.6s2.1-1,3.2-1
		c1.9,0,3.3,0.6,4.4,1.9c1,1.2,1.6,3,1.6,5.3v1h-9.8c0,1.4,0.5,2.6,1.2,3.5c0.8,0.9,1.8,1.3,3,1.3c0.9,0,1.6-0.2,2.2-0.5
		c0.6-0.4,1.1-0.8,1.6-1.4l1.5,1.2C520.5,166.7,518.6,167.6,516.2,167.6z M515.9,154.7c-1,0-1.8,0.4-2.5,1.1
		c-0.7,0.7-1.1,1.7-1.3,3.1h7.2v-0.2c-0.1-1.3-0.4-2.2-1-2.9C517.8,155,516.9,154.7,515.9,154.7z"/>
	<path d="M531.7,155.1c-0.4-0.1-0.8-0.1-1.2-0.1c-1.6,0-2.7,0.7-3.3,2.1v10.3h-2.5v-14.5h2.4l0,1.7c0.8-1.3,2-1.9,3.4-1.9
		c0.5,0,0.8,0.1,1.1,0.2V155.1z"/>
	<path d="M533.9,166.1c0-0.4,0.1-0.8,0.4-1.1s0.6-0.4,1.1-0.4s0.9,0.1,1.2,0.4c0.3,0.3,0.4,0.6,0.4,1.1c0,0.4-0.1,0.8-0.4,1
		c-0.3,0.3-0.6,0.4-1.2,0.4s-0.9-0.1-1.1-0.4C534,166.8,533.9,166.5,533.9,166.1z M533.9,154.3c0-0.4,0.1-0.8,0.4-1.1
		s0.6-0.4,1.1-0.4s0.9,0.1,1.2,0.4s0.4,0.6,0.4,1.1c0,0.4-0.1,0.8-0.4,1c-0.3,0.3-0.6,0.4-1.2,0.4s-0.9-0.1-1.1-0.4
		C534,155,533.9,154.7,533.9,154.3z"/>
	<path d="M556.6,158.8c-0.5,0.6-1.1,1.1-1.9,1.5s-1.5,0.6-2.4,0.6c-1.1,0-2.1-0.3-2.9-0.8c-0.8-0.6-1.5-1.3-1.9-2.3
		s-0.7-2.1-0.7-3.3c0-1.3,0.2-2.5,0.7-3.5c0.5-1,1.2-1.8,2.1-2.4c0.9-0.6,2-0.8,3.2-0.8c1.9,0,3.4,0.7,4.5,2.2
		c1.1,1.4,1.7,3.4,1.7,5.9v0.7c0,3.8-0.7,6.5-2.2,8.3c-1.5,1.7-3.8,2.6-6.8,2.7h-0.5v-2.1h0.5c2,0,3.6-0.6,4.7-1.6
		S556.5,161.1,556.6,158.8z M552.8,158.8c0.8,0,1.6-0.3,2.3-0.8s1.2-1.1,1.5-1.9v-1c0-1.6-0.4-2.9-1.1-4c-0.7-1-1.6-1.5-2.7-1.5
		c-1.1,0-2,0.4-2.6,1.2s-1,1.9-1,3.3c0,1.3,0.3,2.4,1,3.3C550.9,158.4,551.7,158.8,552.8,158.8z"/>
	<path d="M566.1,156.5h1.9c1.2,0,2.1-0.3,2.8-0.9s1-1.4,1-2.4c0-2.3-1.1-3.4-3.4-3.4c-1.1,0-1.9,0.3-2.6,0.9c-0.6,0.6-1,1.4-1,2.4
		h-2.5c0-1.5,0.6-2.8,1.7-3.8c1.1-1,2.6-1.5,4.3-1.5c1.8,0,3.3,0.5,4.3,1.5s1.6,2.3,1.6,4c0,0.8-0.3,1.7-0.8,2.5s-1.3,1.4-2.2,1.8
		c1.1,0.3,1.9,0.9,2.5,1.7c0.6,0.8,0.9,1.7,0.9,2.9c0,1.7-0.6,3.1-1.7,4.2c-1.1,1-2.6,1.5-4.4,1.5s-3.3-0.5-4.5-1.5
		c-1.1-1-1.7-2.3-1.7-3.9h2.5c0,1,0.3,1.8,1,2.5c0.7,0.6,1.6,0.9,2.7,0.9c1.2,0,2.1-0.3,2.7-0.9s0.9-1.5,0.9-2.7c0-1.1-0.3-2-1-2.6
		c-0.7-0.6-1.7-0.9-3-0.9h-1.9V156.5z"/>
	<path d="M586,167.4h-2.5v-16.5l-5,1.8v-2.2l7.1-2.7h0.4V167.4z"/>
	<path d="M596.8,156.5h1.9c1.2,0,2.1-0.3,2.8-0.9s1-1.4,1-2.4c0-2.3-1.1-3.4-3.4-3.4c-1.1,0-1.9,0.3-2.6,0.9c-0.6,0.6-1,1.4-1,2.4
		H593c0-1.5,0.6-2.8,1.7-3.8c1.1-1,2.6-1.5,4.3-1.5c1.8,0,3.3,0.5,4.3,1.5s1.6,2.3,1.6,4c0,0.8-0.3,1.7-0.8,2.5s-1.3,1.4-2.2,1.8
		c1.1,0.3,1.9,0.9,2.5,1.7c0.6,0.8,0.9,1.7,0.9,2.9c0,1.7-0.6,3.1-1.7,4.2c-1.1,1-2.6,1.5-4.4,1.5s-3.3-0.5-4.5-1.5
		c-1.1-1-1.7-2.3-1.7-3.9h2.5c0,1,0.3,1.8,1,2.5c0.7,0.6,1.6,0.9,2.7,0.9c1.2,0,2.1-0.3,2.7-0.9s0.9-1.5,0.9-2.7c0-1.1-0.3-2-1-2.6
		c-0.7-0.6-1.7-0.9-3-0.9h-1.9V156.5z"/>
	<path d="M612.2,156.5h1.9c1.2,0,2.1-0.3,2.8-0.9s1-1.4,1-2.4c0-2.3-1.1-3.4-3.4-3.4c-1.1,0-1.9,0.3-2.6,0.9c-0.6,0.6-1,1.4-1,2.4
		h-2.5c0-1.5,0.6-2.8,1.7-3.8c1.1-1,2.6-1.5,4.3-1.5c1.8,0,3.3,0.5,4.3,1.5s1.6,2.3,1.6,4c0,0.8-0.3,1.7-0.8,2.5s-1.3,1.4-2.2,1.8
		c1.1,0.3,1.9,0.9,2.5,1.7c0.6,0.8,0.9,1.7,0.9,2.9c0,1.7-0.6,3.1-1.7,4.2c-1.1,1-2.6,1.5-4.4,1.5s-3.3-0.5-4.5-1.5
		c-1.1-1-1.7-2.3-1.7-3.9h2.5c0,1,0.3,1.8,1,2.5c0.7,0.6,1.6,0.9,2.7,0.9c1.2,0,2.1-0.3,2.7-0.9s0.9-1.5,0.9-2.7c0-1.1-0.3-2-1-2.6
		c-0.7-0.6-1.7-0.9-3-0.9h-1.9V156.5z"/>
	<path d="M627.5,156.5h1.9c1.2,0,2.1-0.3,2.8-0.9s1-1.4,1-2.4c0-2.3-1.1-3.4-3.4-3.4c-1.1,0-1.9,0.3-2.6,0.9c-0.6,0.6-1,1.4-1,2.4
		h-2.5c0-1.5,0.6-2.8,1.7-3.8c1.1-1,2.6-1.5,4.3-1.5c1.8,0,3.3,0.5,4.3,1.5s1.6,2.3,1.6,4c0,0.8-0.3,1.7-0.8,2.5s-1.3,1.4-2.2,1.8
		c1.1,0.3,1.9,0.9,2.5,1.7c0.6,0.8,0.9,1.7,0.9,2.9c0,1.7-0.6,3.1-1.7,4.2c-1.1,1-2.6,1.5-4.4,1.5s-3.3-0.5-4.5-1.5
		c-1.1-1-1.7-2.3-1.7-3.9h2.5c0,1,0.3,1.8,1,2.5c0.7,0.6,1.6,0.9,2.7,0.9c1.2,0,2.1-0.3,2.7-0.9s0.9-1.5,0.9-2.7c0-1.1-0.3-2-1-2.6
		c-0.7-0.6-1.7-0.9-3-0.9h-1.9V156.5z"/>
</g>
</svg>
