<?xml version="1.0" encoding="utf-8"?>
<!-- Generator: Adobe Illustrator 23.0.1, SVG Export Plug-In . SVG Version: 6.00 Build 0)  -->
<svg version="1.1" id="Layer_1" xmlns="http://www.w3.org/2000/svg" xmlns:xlink="http://www.w3.org/1999/xlink" x="0px" y="0px"
	 viewBox="0 0 1550 1407.2" style="enable-background:new 0 0 1550 1407.2;" xml:space="preserve">
<style type="text/css">
	.st0{fill-rule:evenodd;clip-rule:evenodd;fill:#FFFFFF;}
	.st1{fill:#FFFFFF;}
</style>
<g>
	<g>
		<path class="st0" d="M989.6,640.5l-30-13.5l2.6-5.7l23.5,10.6l5-10.8l6.5,2.9L989.6,640.5z M961.9,661.2c-4.7-2.7-7.7-5.8-9.3-9.3
			c-1.6-3.5-1.4-6.8,0.5-10.1c1.9-3.3,4.8-5.1,8.6-5.5c3.8-0.3,8,0.8,12.6,3.5c4.6,2.7,7.7,5.8,9.3,9.3c1.5,3.5,1.4,6.9-0.5,10.2
			c-1.9,3.3-4.8,5.1-8.5,5.4C970.8,665,966.5,663.9,961.9,661.2z M965.2,655.6c2.9,1.7,5.3,2.5,7.5,2.5c2.1,0,3.5-0.8,4.5-2.5
			c1-1.7,0.9-3.4-0.1-5.2c-1-1.8-3-3.5-5.9-5.2c-2.9-1.7-5.4-2.5-7.5-2.5c-2,0-3.5,0.8-4.5,2.5c-1,1.6-1,3.3,0.1,5.1
			C960.3,652.2,962.2,654,965.2,655.6z M949.1,688.2c-4.5-2.8-7.5-6-9-9.6c-1.5-3.5-1.2-6.9,0.9-10.1c2-3.2,5-5,8.8-5.2
			c3.8-0.2,8,1.1,12.6,4c4.5,2.8,7.5,6,8.9,9.6c1.4,3.6,1.1,7-0.9,10.2c-2,3.2-4.9,4.9-8.7,5.1C957.8,692.3,953.6,691,949.1,688.2z
			 M952.5,682.7c2.8,1.8,5.3,2.8,7.3,2.9c2.1,0.1,3.6-0.7,4.6-2.3c1-1.6,1.1-3.3,0.1-5.2c-0.9-1.8-2.8-3.6-5.7-5.4
			c-2.8-1.8-5.3-2.7-7.3-2.8c-2.1-0.1-3.6,0.7-4.6,2.3c-1,1.7-1.1,3.3-0.1,5.2C947.8,679.1,949.7,681,952.5,682.7z M945.6,720.4
			l-26.3-19.7l3.8-5.1l9.4,7l5.1-6.9l-9.3-7l3.8-5l26.3,19.8l-3.8,5l-11.1-8.3l-5.2,6.9l11.1,8.3L945.6,720.4z M929,719.3
			c2.7,2.9,4.3,5.8,4.7,8.6c0.4,2.8-0.3,5.4-2.3,7.7c-2.3,2.7-5.4,3.9-9.3,3.5c-3.8-0.3-7.7-2.2-11.6-5.5c-4-3.5-6.5-7.1-7.5-10.8
			c-0.9-3.8-0.2-7.1,2.3-10c1.9-2.3,4.3-3.5,7.2-3.5c2.8-0.1,5.8,1,8.7,3.1l-3.8,4.5c-1.4-0.8-2.7-1.2-3.8-1c-1.1,0.1-2.1,0.6-3,1.7
			c-1.2,1.3-1.3,3-0.6,4.9c0.7,2,2.4,4,4.8,6.1c2.5,2.1,4.7,3.4,6.7,3.8c2,0.4,3.5,0,4.7-1.4c0.9-1.1,1.3-2.3,1.2-3.5
			c-0.2-1.2-0.8-2.5-2-3.8L929,719.3z M889.4,752.7l5.2-3.2c1,1.5,2.1,2.6,3.3,3c1.2,0.4,2.3,0.2,3.7-0.6c1.1-0.7,1.8-1.5,2.1-2.3
			c0.3-0.9,0.2-1.8-0.3-2.6c-0.3-0.4-0.6-0.8-1-1.1c-0.4-0.3-0.7-0.4-1.1-0.4c-0.6,0-1.8,0.1-3.7,0.4c-1.9,0.3-3.5,0.6-4.9,0.6
			c-2,0.1-3.8-0.2-5.4-1.1c-1.6-0.9-2.9-2.2-4-3.9c-1.6-2.7-2.2-5.3-1.6-7.8c0.5-2.5,2.1-4.6,4.7-6.1c2.5-1.5,5-2,7.6-1.2
			c2.5,0.8,4.6,2.6,6.3,5.4l-5.1,3.1c-0.9-1.3-1.8-2-2.8-2.3c-0.9-0.3-2-0.1-3.1,0.6c-0.9,0.5-1.4,1.2-1.7,2
			c-0.3,0.8-0.2,1.6,0.3,2.3c0.8,1.2,2.8,1.7,6,1.2c0.6-0.1,1-0.1,1.4-0.2l0.3,0c3.3-0.5,5.6-0.5,6.7-0.2c1.1,0.3,2.2,0.9,3.1,1.7
			c1,0.8,1.8,1.8,2.6,3c1.7,2.8,2.2,5.5,1.6,8c-0.7,2.6-2.5,4.7-5.3,6.5c-2.7,1.7-5.3,2.1-7.8,1.3C894,758,891.6,755.9,889.4,752.7z
			 M626,743.3l22.4-24.2l4.6,4.3l-22.4,24.2L626,743.3z M603.5,721.9l24-22.6l4.3,4.6l-8.5,8l5.9,6.3l8.5-8l4.3,4.6l-23.9,22.6
			l-4.3-4.6l10.1-9.5L618,717l-10.1,9.5L603.5,721.9z M588.5,703l26.1-20.1l3.8,5L598,703.7l7.3,9.4l-5.7,4.3L588.5,703z
			 M573.5,681.7l27-18.9l10.8,15.3l-5.5,3.9l-7.2-10.1l-4.7,3.3l6.5,9.3l-5.4,3.8l-6.5-9.3l-5.8,4.1l7.3,10.5l-5.5,3.9L573.5,681.7z
			 M559.3,655.1l28.9-15.8l5,9.3c1.8,3.2,1.8,6.3,0.3,9.4c-1.6,3-4.7,5.8-9.4,8.4c-4.8,2.6-8.9,3.7-12.3,3.2c-3.4-0.5-6-2.5-8-6
			L559.3,655.1z M568.4,657.4l1.6,3c0.9,1.7,2.3,2.6,4.1,2.7c1.8,0.1,4.1-0.7,7-2.2c2.9-1.6,4.8-3.2,5.7-4.7c0.9-1.5,0.9-3.2,0-4.9
			l-1.7-3L568.4,657.4z M846.8,796.3c0.6,3.9,0.3,7.2-0.9,9.8c-1.3,2.6-3.4,4.3-6.3,5.1c-3.5,0.9-6.7,0.2-9.7-2.3
			c-3-2.5-5.1-6.2-6.4-11.1c-1.4-5.1-1.5-9.5-0.1-13.2c1.3-3.6,3.8-6,7.5-6.9c2.9-0.8,5.5-0.4,7.9,1.1c2.4,1.5,4.2,4,5.4,7.5
			l-5.7,1.5c-0.7-1.4-1.5-2.5-2.5-3c-1-0.6-2.1-0.6-3.4-0.3c-1.7,0.5-2.8,1.7-3.3,3.8c-0.5,2-0.3,4.6,0.5,7.8c0.9,3.1,2,5.4,3.3,6.8
			c1.4,1.5,3,2,4.7,1.5c1.4-0.4,2.3-1.1,2.9-2.2c0.6-1.1,0.7-2.6,0.5-4.3L846.8,796.3z M812.1,816.5l-5.7-32.4l6.2-1.1l5.7,32.4
			L812.1,816.5z M785.4,818.7l-1.7-32.9l6.3-0.3l1.3,25.7l11.9-0.6l0.4,7.2L785.4,818.7z M756.8,817.7l3.2-32.8l11.9,1.2
			c2.8,0.3,4.8,1.2,6.1,2.7c1.2,1.5,1.7,3.7,1.4,6.5c-0.2,1.8-0.6,3.2-1.3,4.3c-0.7,1.1-1.7,1.9-3,2.4c1.4,0.6,2.4,1.6,3,3
			c0.7,1.3,0.9,3,0.7,4.8c-0.2,1.8-0.6,3.5-1.4,4.9c-0.8,1.5-1.7,2.5-3,3.2c-0.8,0.4-1.8,0.8-2.9,0.9c-1.1,0.2-2.8,0.1-5.1-0.1
			L756.8,817.7z M763.4,811.7l4.7,0.5c1.5,0.1,2.6,0,3.3-0.5c0.7-0.5,1.1-1.4,1.2-2.8c0.2-1.2-0.1-2.1-0.6-2.8
			c-0.5-0.7-1.3-1-2.5-1.2l-5.4-0.5L763.4,811.7z M764.7,798.3l5.1,0.5c1,0.1,1.9-0.1,2.5-0.6c0.5-0.5,0.9-1.2,1-2.3
			c0.1-1-0.1-1.7-0.5-2.3c-0.4-0.6-1.1-0.9-2.1-1l-5.3-0.5L764.7,798.3z M731.6,781.5l6.1,0.9l-3,20.4c-0.3,2.3-0.3,3.9,0.2,4.9
			c0.5,1,1.5,1.7,2.9,1.9c1.5,0.3,2.6-0.1,3.3-0.9c0.8-0.9,1.3-2.4,1.7-4.7l3-20.3l6.2,0.9l-2.8,19.4c-0.4,2.7-1,4.8-1.6,6.4
			c-0.6,1.6-1.5,2.8-2.6,3.8c-1.1,1-2.4,1.7-3.7,2.1c-1.4,0.4-2.9,0.5-4.5,0.2c-1.6-0.2-3-0.7-4.2-1.5c-1.2-0.8-2.2-1.8-3-3.1
			c-0.7-1.3-1.2-2.8-1.4-4.4c-0.2-1.7,0-3.9,0.4-6.6L731.6,781.5z M699.1,806.8l7.1-32.1l11,2.4c2.8,0.6,4.7,1.9,5.8,4
			c1.1,2.1,1.3,4.7,0.6,8c-0.8,3.4-2.1,5.9-3.9,7.4c-1.8,1.5-4.1,2-6.8,1.4l-5-1.1l-2.5,11.5L699.1,806.8z M709.2,790.3l4.1,0.9
			c1.1,0.3,2,0.1,2.7-0.4c0.7-0.5,1.2-1.4,1.5-2.7c0.2-1.3,0.2-2.3-0.2-3.1c-0.4-0.7-1.2-1.2-2.3-1.5l-4-0.9L709.2,790.3z
			 M956.8,354.9l12.4-30.5l16.4,6.6l-2.6,6.3l-10.5-4.3l-2.6,6.4l9.2,3.7l-2.6,6.3l-9.2-3.7l-4.7,11.5L956.8,354.9z M936.4,346.6
			l12.4-30.5l5.9,2.4l-9.7,23.9l11,4.5l-2.6,6.6L936.4,346.6z M914.1,337.5l12.4-30.5l17.3,7l-2.5,6.2l-11.5-4.7l-2.2,5.4l10.5,4.2
			l-2.5,6.1l-10.5-4.3l-2.6,6.5l11.8,4.8l-2.5,6.2L914.1,337.5z M894.5,317.7l5.6,2.3c-0.7,1.7-0.8,3.2-0.5,4.4
			c0.4,1.2,1.3,2,2.6,2.6c1.2,0.5,2.2,0.6,3.1,0.3c0.9-0.2,1.5-0.9,1.9-1.8c0.2-0.5,0.3-1,0.3-1.5c0-0.4-0.1-0.8-0.3-1.1
			c-0.3-0.5-1.2-1.4-2.6-2.7c-1.4-1.3-2.5-2.5-3.4-3.6c-1.3-1.5-2.1-3.2-2.4-5c-0.3-1.8,0-3.6,0.8-5.5c1.2-2.9,2.9-4.9,5.3-6
			c2.4-1.1,4.9-1,7.7,0.1c2.8,1.1,4.6,2.9,5.5,5.4c0.9,2.5,0.7,5.3-0.6,8.4l-5.5-2.3c0.5-1.5,0.5-2.7,0.1-3.6
			c-0.3-0.9-1.1-1.7-2.3-2.1c-0.9-0.4-1.8-0.5-2.6-0.1c-0.8,0.3-1.4,0.8-1.7,1.6c-0.6,1.4,0.3,3.2,2.6,5.6c0.4,0.4,0.8,0.8,1,1
			l0.2,0.2c2.4,2.4,3.8,4.2,4.2,5.2c0.4,1.1,0.6,2.3,0.5,3.5c-0.1,1.2-0.3,2.5-0.9,3.8c-1.2,3-3.1,5-5.5,6c-2.4,1-5.2,0.8-8.4-0.4
			c-3-1.2-4.8-3-5.7-5.5C892.9,324.6,893.1,321.5,894.5,317.7z M673.3,323l-15.7-28.9l16.5-8.9l3.2,5.9l-10.9,5.9l2.8,5.1l9.9-5.5
			l3.2,5.9l-9.9,5.4l3.3,6.2l11.3-6.1l3.2,5.9L673.3,323z M662.9,315.1c1.2,3.8,1.3,7,0.4,9.8c-0.9,2.7-2.8,4.7-5.5,5.9
			c-3.3,1.4-6.6,1.1-9.9-0.9c-3.3-2-5.9-5.4-7.9-10.1c-2.1-4.9-2.8-9.3-1.9-13.1c0.8-3.8,2.9-6.5,6.4-7.9c2.8-1.2,5.4-1.2,8,0
			c2.6,1.2,4.7,3.4,6.4,6.6l-5.4,2.3c-0.9-1.4-1.9-2.2-3-2.6c-1-0.4-2.2-0.4-3.4,0.2c-1.6,0.7-2.5,2.1-2.7,4.2
			c-0.3,2.1,0.3,4.7,1.6,7.6c1.2,2.9,2.7,5,4.3,6.3c1.6,1.3,3.2,1.6,4.8,0.9c1.3-0.5,2.2-1.4,2.5-2.6c0.4-1.2,0.4-2.6-0.1-4.3
			L662.9,315.1z M636.7,339.3L623.9,309l5.8-2.5l12.9,30.3L636.7,339.3z M618,346.1l-18.8-28.3l6.3-2.2l8.8,14.9
			c0.1,0.2,0.3,0.6,0.7,1.2c1,1.8,1.9,3.3,2.6,4.5c-0.1-0.7-0.2-1.5-0.3-2.4c-0.1-0.9-0.3-2.1-0.5-3.6l-2.3-17.7l6.3-2.1l2.7,33.9
			L618,346.1z M587.7,355.4l-9.8-31.4l11.2-3.5c3-0.9,5.5-0.9,7.3,0.1c1.9,1,3.3,3,4.2,6c0.5,1.8,0.7,3.4,0.5,4.8
			c-0.3,1.5-0.8,2.8-1.8,4c1.2,0.2,2.1,0.7,2.8,1.4c0.7,0.8,1.5,2.3,2.3,4.6c0.2,0.6,0.5,1.5,0.9,2.5c0.9,2.5,1.7,3.9,2.3,4.1
			l0.3,1.1l-6.3,2c-0.6-1-1.3-2.5-2-4.4c-0.6-1.9-1.1-3.1-1.3-3.6c-0.5-1.2-1.1-2-1.8-2.4c-0.7-0.5-1.5-0.5-2.6-0.1l-4,1.3l3.7,11.8
			L587.7,355.4z M588,335.6l4.5-1.4c1.2-0.4,2-1,2.4-1.7c0.4-0.8,0.4-1.8,0-3.1c-0.3-1.2-0.9-1.9-1.6-2.3c-0.7-0.4-1.7-0.4-2.8,0
			l-4.7,1.5L588,335.6z M564.9,363.6l-10.6-31.2l17.7-6l2.2,6.4l-11.7,4l1.8,5.5l10.7-3.7l2.1,6.3l-10.8,3.6l2.3,6.7l12.2-4.1
			l2.2,6.3L564.9,363.6z M536.6,358.9l5.9-1.3c0.5,1.8,1.2,3.1,2.2,3.8c1,0.8,2.2,1,3.7,0.6c1.2-0.2,2.2-0.7,2.7-1.5
			c0.6-0.7,0.7-1.6,0.5-2.6c-0.1-0.5-0.3-1-0.6-1.3c-0.2-0.3-0.5-0.6-0.8-0.7c-0.5-0.2-1.7-0.5-3.6-0.8c-1.9-0.3-3.5-0.6-4.9-1
			c-1.9-0.5-3.5-1.4-4.7-2.7c-1.2-1.3-2.1-3-2.6-5c-0.7-3.1-0.4-5.7,0.9-7.9c1.3-2.2,3.4-3.6,6.4-4.3c2.9-0.7,5.4-0.2,7.5,1.3
			c2.2,1.5,3.6,3.9,4.3,7.1l-5.8,1.4c-0.5-1.5-1.2-2.5-2-3.1c-0.8-0.5-1.8-0.7-3.1-0.4c-1,0.2-1.7,0.7-2.2,1.4
			c-0.5,0.7-0.7,1.5-0.5,2.3c0.3,1.4,2.1,2.4,5.3,3c0.6,0.1,1.1,0.2,1.4,0.3l0.3,0c3.3,0.7,5.5,1.3,6.5,1.9s1.8,1.5,2.4,2.5
			c0.7,1,1.2,2.3,1.5,3.7c0.7,3.2,0.4,5.9-1,8.1c-1.5,2.2-3.8,3.7-7.1,4.5c-3.2,0.7-5.7,0.3-7.8-1.2
			C539.2,365.5,537.7,362.8,536.6,358.9z M826,264.3l16.3-28.6l16.2,9.3l-3.3,5.9l-10.8-6.1l-2.9,5l9.8,5.6l-3.2,5.7l-9.9-5.6
			l-3.5,6.1l11.1,6.3l-3.3,5.9L826,264.3z M799.7,255.8l10.8-31.1l11.2,3.9c3,1,4.9,2.5,5.8,4.4c0.9,1.9,0.8,4.3-0.2,7.3
			c-0.6,1.8-1.4,3.1-2.4,4.2c-1,1-2.3,1.8-3.8,2.2c0.8,0.9,1.3,1.8,1.4,2.9c0.1,1-0.2,2.7-0.9,4.9c-0.2,0.7-0.5,1.5-0.8,2.6
			c-0.8,2.5-1,4.1-0.5,4.7l-0.4,1.1l-6.2-2.2c0.1-1.2,0.4-2.8,1-4.7c0.6-1.9,1-3.1,1.1-3.6c0.3-1.3,0.3-2.3,0-3
			c-0.3-0.7-1-1.3-2-1.6l-4-1.4l-4,11.6L799.7,255.8z M811.7,240l4.5,1.6c1.2,0.4,2.2,0.4,2.9,0c0.8-0.4,1.4-1.2,1.8-2.6
			c0.4-1.1,0.4-2.1,0.1-2.8c-0.4-0.7-1.1-1.3-2.2-1.7l-4.6-1.5L811.7,240z M771.1,237c0.3-5.4,1.6-9.5,4-12.5c2.4-3,5.5-4.4,9.3-4.2
			c3.8,0.2,6.7,1.9,8.8,5.1c2.1,3.3,3,7.5,2.7,12.8c-0.3,5.4-1.6,9.5-4,12.5c-2.4,3-5.5,4.4-9.3,4.2c-3.8-0.2-6.7-1.9-8.7-5.1
			C771.7,246.7,770.8,242.4,771.1,237z M777.5,237.4c-0.2,3.3,0.2,5.9,1.1,7.8c0.9,1.8,2.3,2.8,4.2,2.9c2,0.1,3.5-0.7,4.6-2.4
			c1.1-1.8,1.7-4.3,1.9-7.6c0.2-3.3-0.2-5.9-1.1-7.8c-1-1.8-2.4-2.8-4.3-2.9c-1.9-0.1-3.4,0.7-4.6,2.5
			C778.3,231.5,777.7,234.1,777.5,237.4z M751.3,255.6l-3.5-32.7l17.5-1.9l0.7,6.8l-11.4,1.2l0.8,6.8l9.8-1.1l0.7,6.8l-9.8,1
			l1.3,12.4L751.3,255.6z M727.4,263.1l-12.3-30.5l17.3-7l2.5,6.3l-11.5,4.6l2.2,5.4l10.5-4.3l2.5,6.1l-10.5,4.3l2.7,6.5l11.9-4.8
			l2.5,6.3L727.4,263.1z M704.5,274.5l-16.2-28.7l10.4-5.9c2.5-1.4,4.7-1.9,6.5-1.3c1.8,0.5,3.5,2,4.9,4.5c0.9,1.6,1.3,3,1.3,4.3
			c0,1.3-0.3,2.6-1.1,3.7c1.5-0.3,2.9,0,4.2,0.7c1.3,0.8,2.4,2,3.3,3.6c0.9,1.6,1.5,3.2,1.7,4.8c0.2,1.6,0,3.1-0.6,4.3
			c-0.4,0.9-1,1.7-1.8,2.4c-0.9,0.8-2.3,1.7-4.3,2.8L704.5,274.5z M706.5,265.8l4.2-2.3c1.3-0.7,2.1-1.5,2.3-2.3
			c0.2-0.8,0-1.8-0.6-2.9c-0.6-1.1-1.3-1.7-2.1-2c-0.8-0.2-1.7-0.1-2.7,0.5l-4.7,2.7L706.5,265.8z M699.8,254.1l4.4-2.5
			c0.9-0.5,1.5-1.1,1.7-1.8c0.2-0.7,0-1.6-0.5-2.5c-0.5-0.9-1.1-1.4-1.8-1.6c-0.7-0.2-1.4-0.1-2.3,0.4l-4.7,2.6L699.8,254.1z
			 M571.4,609.3L571.4,609.3L571.4,609.3l-4.5,3.5L561,609h-0.2v-0.1L535,592.3c-0.5,19.5,5.7,67.6,41.5,120
			c35.7,52.4,82.4,70,82.4,70l25.2-55.3c0,0-36.2-23.8-58.6-55.7c-22.4-31.9-27.7-82.9-27.7-82.9L571.4,609.3z M978.2,609.3
			L978.2,609.3L978.2,609.3l4.5,3.5l5.9-3.8h0.2v-0.1l25.8-16.5c0.5,19.5-5.7,67.6-41.4,120c-35.7,52.4-82.4,70-82.4,70l-25.2-55.3
			c0,0,36.2-23.8,58.5-55.7c22.4-31.9,27.7-82.9,27.7-82.9L978.2,609.3z M767.6,768.3v0.4c-1.3,0-2.7,0-4.1,0
			c-44.6-1.1-79.7-18.7-79.7-18.7c-0.6-0.6-27.9,54.2-27.9,54.2s42.5,27,104.4,30.4v-0.3c5.5,0.4,11,0.6,16.6,0.6
			c68.5,0,116.8-30.7,116.8-30.7s-27.4-54.7-28-54.2c0,0-35.2,17.5-79.7,18.7C779.9,768.8,773.7,768.7,767.6,768.3z M569.3,432.4
			l22.5-15.9l4.4,4.3l-26.9,18.9l0.1,6.9l22.3-15.8l4.4,4.3L569.5,454l0.1,9.5l22.2-15.6l4.4,4.3l-26.5,18.7l0.1,13.1l21.9-15.4
			l4.4,4.2L570,491.2l0.1,10.2l21.7-15.3l4.4,4.3l-26.1,18.4l0.1,9.1l21.5-15.1l4.4,4.2l-25.9,18.3l0.1,11.3l21.3-15l4.4,4.2
			l-25.7,18l0.1,9.5l21.1-14.8l4.4,4.2l-25.5,17.9l0.1,11.7l20.9-14.7l4.4,4.2L571,579.6l0.1,11.3l19.5-16.5l4.4,4.3l-23.8,19.6
			l0,2.9l31.9-25l1.3,11.9c0.7,6.9,2,14.1,3.5,20.9c3.1,14.4,7.4,29.2,13.7,42.5c2.6,5.7,5.7,11.2,9.3,16.4
			c10.1,14.3,23.1,27.3,36.5,38.5c6.4,5.3,13.4,10.9,20.4,15.5l4.7,3.1l-8.5,18.7c1,0,2.1,0.3,3.1,0.8c6.8,3.4,15,6.2,22.2,8.5
			c16.5,5.2,33.9,8.5,51.3,9.3v-0.8c8.5,0.8,17.1,1.1,25.5,0.9c18.4-0.5,37-3.9,54.6-9.4c7.2-2.3,15.3-5.1,22.1-8.5
			c1-0.5,2-0.8,3.1-0.8l-8.5-18.7l4.7-3.1c7-4.6,14-10.2,20.4-15.5c13.3-11.3,26.3-24.2,36.4-38.5c3.6-5.2,6.7-10.7,9.4-16.4
			c6.2-13.4,10.6-28.1,13.6-42.5c1.4-6.8,2.8-14,3.5-20.9l1.3-11.9l31.9,25l0-2.9l-24.6-20.4l4.5-4.2l20.2,17.3l0.1-11.3l-25.2-17.8
			l4.4-4.2l20.9,14.7l0.1-11.7l-25.4-17.9l4.4-4.2l21.1,14.8l0.1-9.5l-25.6-18l4.4-4.2l21.3,15l0.2-11.3l-25.9-18.3l4.4-4.2
			l21.5,15.1l0.1-9.1l-26-18.4l4.4-4.3l21.7,15.3l0.1-10.2l-26.2-18.5l4.4-4.2l21.9,15.4l0.2-13.1l-26.5-18.7l4.4-4.3l22.2,15.6
			l0.1-9.5l-26.7-18.8l4.4-4.3l22.3,15.8l0.1-6.9l-26.9-18.9l4.4-4.3l22.5,15.9l0.1-3.6l11.1-22l5,4.1l-9.8,19.3l0.1,1.6l21.5-16
			l4.6,4.1l-25.9,19.4l0.1,6.7l21.3-15.9l4.6,4.1l-25.8,19.2l0.1,9.3l21.1-15.8l4.6,4.1l-25.6,19.1l0.2,12.9l20.9-15.5l4.6,4.1
			l-25.3,18.9l0.1,10l20.6-15.4l4.6,4.2l-25.2,18.7l0.1,8.9l20.4-15.2l4.6,4.1l-24.9,18.5l0.1,11.2l20.2-15.1l4.6,4.1L988,543.3
			l0.1,9.3l20-14.9l4.6,4.2l-24.5,18.2l0.2,11.5l19.8-14.8l4.6,4.2l-24.3,18.1l0.2,11.1l19.5-14.5l4.6,4.1l-24,17.9l0,3.5l32.2-20.6
			l0.3,11.7c0.4,16.1-3,34.3-7.5,49.7c-7.5,26.5-19.7,51.6-35.2,74.3c-15,22-34.1,41.3-56.2,56.3c-6.6,4.5-13.5,8.7-20.7,12.2
			c-2.7,1.4-5.7,2.8-8.5,3.9c2.1,4.2,4.3,8.5,6.4,12.7l2.7,5.3l-5,3.2c-3,1.9-6.2,3.6-9.3,5.2c-8,4.1-16.3,7.7-24.8,10.8
			c-27.5,10.2-56.9,15.6-86.2,15.6c-3.1,0-6.2,0-9.3-0.2v0.1c-27.6-0.6-55.2-6-81.1-15.6c-8.4-3.1-16.8-6.7-24.8-10.8
			c-3.1-1.6-6.3-3.3-9.3-5.2l-5-3.2l2.7-5.3c2.1-4.2,4.3-8.5,6.4-12.7c-2.8-1.1-5.8-2.5-8.5-3.9c-7.2-3.6-14.1-7.8-20.7-12.2
			c-22-15-41.2-34.3-56.2-56.3c-15.5-22.7-27.7-47.8-35.2-74.3c-4.4-15.4-7.8-33.5-7.4-49.7l0.3-11.7l32.2,20.6l0-3.5l-24-17.9
			l4.6-4.1l19.5,14.5l0.1-11.1l-24.2-18.2l4.6-4.2l19.8,14.8l0.1-11.5l-24.5-18.2l4.6-4.2l20,14.9l0.1-9.3l-24.7-18.4l4.6-4.1
			l20.2,15.1l0.1-11.2L536.9,506l4.6-4.1l20.4,15.2l0.1-8.9l-25.1-18.7l4.6-4.2l20.6,15.4l0.1-10L537,471.8l4.6-4.1l20.8,15.5
			l0.2-12.9L537,451.2l4.6-4.1l21.1,15.8l0.1-9.3L537,434.2l4.6-4.1l21.3,15.9l0.1-6.7L537,419.8l4.6-4.1l21.4,16l0.1-1.6l-9.8-19.3
			l5-4.1l11.1,22L569.3,432.4z M643.5,381.1l-0.1-6.1l-25.3,0.6l0.2,6.2L643.5,381.1z M644.4,390.9l-0.7-6.1l-25.1,2.6l0.6,6.1
			L644.4,390.9z M646,400.6l-1.1-6.1l-24.8,4.5l1.1,6.1L646,400.6z M648.5,410.2l-1.5-6l-24.5,6.4l1.6,6L648.5,410.2z M651.6,419.5
			l-2-5.8l-23.9,8.3l2,5.8L651.6,419.5z M655.5,428.5l-2.5-5.6L629.9,433l2.5,5.6L655.5,428.5z M660.1,437.2l-2.9-5.4l-22.3,11.8
			l2.9,5.5L660.1,437.2z M665.3,445.6l-3.3-5.2l-21.3,13.5l3.3,5.2L665.3,445.6z M671.1,453.5l-3.7-4.9l-20.2,15.1l3.7,5
			L671.1,453.5z M677.5,461l-4-4.6l-19,16.7l4.1,4.6L677.5,461z M684.5,467.9l-4.4-4.3l-17.7,18.1l4.4,4.3L684.5,467.9z M692,474.3
			l-4.7-4l-16.2,19.4l4.7,4L692,474.3z M700,480l-5-3.6L680.4,497l5,3.5L700,480z M708.4,485.1l-5.3-3.2l-13,21.7l5.3,3.2
			L708.4,485.1z M717.2,489.6l-5.5-2.8l-11.3,22.6l5.5,2.8L717.2,489.6z M726.3,493.4l-5.7-2.3l-9.6,23.4l5.7,2.3L726.3,493.4z
			 M735.7,496.4l-5.9-1.9l-7.7,24.1l5.9,1.9L735.7,496.4z M745.2,498.8l-6-1.5l-5.8,24.6l6,1.4L745.2,498.8z M901,381.1l0.2-6.1
			l25.2,0.6l-0.1,6.2L901,381.1z M900.1,390.9l0.6-6.1l25.2,2.6l-0.7,6.1L900.1,390.9z M898.4,400.6l1.1-6.1l24.9,4.5l-1.1,6.1
			L898.4,400.6z M895.9,410.2l1.6-6l24.4,6.4l-1.5,6L895.9,410.2z M892.8,419.5l2-5.8l23.9,8.3l-2,5.8L892.8,419.5z M888.9,428.5
			l2.5-5.6l23.2,10.1l-2.5,5.6L888.9,428.5z M884.4,437.2l2.9-5.4l22.3,11.8l-2.9,5.5L884.4,437.2z M879.2,445.6l3.3-5.2l21.3,13.5
			l-3.3,5.2L879.2,445.6z M873.3,453.5l3.7-4.9l20.2,15.1l-3.7,5L873.3,453.5z M866.9,461l4.1-4.6l19,16.7l-4,4.6L866.9,461z
			 M859.9,467.9l4.4-4.3l17.6,18.1l-4.4,4.3L859.9,467.9z M852.4,474.3l4.7-4l16.2,19.4l-4.8,4L852.4,474.3z M844.4,480l5-3.6
			l14.6,20.6l-5,3.5L844.4,480z M836,485.1l5.3-3.2l13,21.7l-5.3,3.2L836,485.1z M827.2,489.6l5.5-2.8l11.3,22.6l-5.5,2.8
			L827.2,489.6z M818.2,493.4l5.7-2.3l9.5,23.4l-5.7,2.3L818.2,493.4z M808.8,496.4l5.8-1.9l7.7,24.1l-5.9,1.9L808.8,496.4z
			 M799.3,498.8l6-1.5L811,522l-6,1.4L799.3,498.8z M782.9,641.5c-0.2,0-0.3,0-0.5,0.1c-11.6,1-24.4,0.9-35.9-0.3
			c-0.2-0.1-0.5-0.1-0.8-0.1l-0.1,0.2c-0.7,1.3-0.9,3.3-0.5,4.7c1.3,4.4,7.7,6.5,11.8,7.4c8.8,2,18.2,1.3,26.8-1.1
			c0.4-0.1,0.8-0.2,1.3-0.4c-0.4-0.3-0.8-0.7-1.1-1C781.4,648.3,781.7,644.8,782.9,641.5z M796,646.6c-1.4-2.5-2.5-5.2-3.4-8
			c-0.2,0.1-0.4,0.2-0.6,0.3l-0.9,1.1c-0.8,1.1-3.6,5.5-2.4,6.8c1.3,1.4,4.1,1,5.7,0.4L796,646.6z M787.8,633.9L787.8,633.9
			L787.8,633.9c1.2-0.5,2.4-1,3.4-1.6c-0.2-1.4-0.4-2.9-0.4-4.4c0-0.6-0.1-1.3-0.2-2l-0.2,0c-1.5,0.3-3.2,0.5-5,0.6
			c-1.2,2.4-1.2,5.6,1.4,7.1l0.6,0.4C787.5,634,787.7,634,787.8,633.9z M779.8,635.6c-1.7-2.6-2-5.8-1.3-8.9c-2.3,0-4.5,0-6.4-0.1
			c-9.6-0.3-19.3-1.2-28.7-2.8c-1.8-0.3-3.7-0.7-5.4-1.3c-0.1,1.9,0.2,4,0.6,5.7c1.2,4.2,3.9,6.6,8.5,7
			C757.6,636.2,769.2,636.4,779.8,635.6z M775.8,611.3c-2.2,0-4.5-0.1-6.7-0.2c-5.5-0.3-11-0.8-16.4-1.6c-5.8-0.9-12.1-2.2-17.4-4.6
			c-0.3-0.1-0.4-0.2-0.7-0.3c-0.7,1.7-1.1,3.9-0.8,5.6c0.6,5,6.3,6.8,10.8,7.5c9.1,1.5,18.5,2.4,27.8,2.7c1.3,0,2.5,0,3.8,0
			C774.6,617.7,774.6,614.3,775.8,611.3z M783.8,610.8l-1,1.2c-1.7,2.3-2.1,5.1,0.5,7l1.8,1.3c1.4-0.1,2.9-0.2,4.2-0.4l0.4-0.1
			c-0.7-2.8-1.7-5.6-3.1-7.5l-1.3-1.7C784.8,610.7,784.2,610.8,783.8,610.8z M791.7,593.5l-1.3,1.1c-1.7,1.4-3.5,4.1-3,6.3
			c0.3,1.2,2.2,1.5,3.9,1.6c2.4-0.9,5.5-2.1,6.5-3.1l0.2-0.8c-0.5-0.9-1-1.8-1.5-2.7c-0.5-1-1.1-1.9-1.6-2.8
			C793.8,593.3,792.7,593.4,791.7,593.5z M782.5,594.3c-0.8,0-1.5,0-2.2,0c-13,0-31.3-1.8-43.3-6.8c-0.9-0.4-1.8-0.8-2.7-1.2
			c-0.8,1.4-1.4,3.3-1.6,4.7c-0.7,4.1,1.4,6.6,5.3,8.3c4.9,2.1,10.6,3.3,15.9,4.1c5.2,0.8,10.4,1.3,15.7,1.6
			c3.5,0.2,7.2,0.3,10.6,0.1c0.7,0,1.4-0.1,2.1-0.2c-0.5-0.7-1-1.7-1.2-2.7C780.4,599.5,781.1,596.8,782.5,594.3z M791,587.5
			c-9.2-11.7-21-16.1-38.5-15.2c-5.2,0.2-12.8,0.4-18.3-1.2l-0.1,0.2c-0.7,1.1-1.1,2.8-1,4c0.2,3.5,3.5,5.5,6.5,6.7
			c11.1,4.6,28.6,6.3,40.7,6.3C783.7,588.2,787.4,587.9,791,587.5z M724.2,548.4c-1,2.9-1.9,7.5-1.2,10.6c0.1,0.4,0.2,0.7,0.5,1
			c2.6,2.8,11.7,0.9,14.9-0.2c3-1.1,7.7-6.4,10.9-10.6C741.2,549.2,731.9,550.5,724.2,548.4z M789.1,398.6c2.9-2.4,5.3-12,6-15.3
			c0.3-1.8,2.1-3,3.9-2.6c1.7,0.4,2.9,2.1,2.6,3.9c-1,5.1-4,16.3-8.8,19.5c-1.5,1-3.5,0.6-4.5-1
			C787.2,401.6,787.7,399.6,789.1,398.6z M794.8,407.3c4-3.8,10.2-10.6,12.4-15.5c0.8-1.7,2.7-2.4,4.3-1.7c1.7,0.7,2.4,2.7,1.7,4.3
			c-2.6,5.9-9.2,13.2-13.9,17.6c-1.3,1.3-3.4,1.2-4.6-0.1C793.4,410.7,793.5,408.6,794.8,407.3z M761,398.6c1.4,1,1.8,3,0.9,4.5
			c-1,1.5-3,2-4.5,1c-4.9-3.1-7.8-14.4-8.8-19.5c-0.4-1.8,0.8-3.5,2.6-3.9c1.8-0.4,3.5,0.8,3.9,2.6
			C755.7,386.6,758.1,396.3,761,398.6z M750.8,412.1c-4.7-4.4-11.3-11.8-13.9-17.6c-0.8-1.6,0-3.6,1.7-4.3c1.7-0.7,3.6,0,4.4,1.7
			c2.2,4.9,8.4,11.7,12.4,15.5c1.4,1.2,1.4,3.3,0.2,4.6C754.2,413.3,752.2,413.4,750.8,412.1z M804,419.6c1.5-3.7,4.4-9.3,7.6-11.3
			c1-0.7,2.9-3.1,3.7-4.1c2.4-3,4.5-6.2,6.3-9.5c4.9-8.8,8.3-18.9,8.6-29c0.3-9.8-0.4-19.7-1.9-29.4c-0.1-0.4-0.1-0.8-0.2-1.2
			c-2.1,4.2-4.6,8.4-7,12.4c-3,5-6.2,10.1-9.3,15c-0.5,1-1.3,1.6-2.8,1.6c-1.3,0-2.3-0.6-2.9-1.7c-0.5-1-0.5-2-0.2-2.9
			c0.2-1,0.4-2.1,0.5-3.1c0.7-4.1,1.2-8.3,1.8-12.4c0.9-6.2,0.5-13.4,0.1-19.6c-0.2-3.3-0.5-6.6-0.9-9.9c-1.9,5.1-4.7,10.6-6.8,14.6
			c-3.8,7.6-8,15.2-12.4,22.6c-0.9,1.5-2.8,2-4.4,1.2c-1.5-0.9-2.1-2.7-1.4-4.3c0.5-1,0.8-3.1,1-4.2c0.7-5,0.5-10.4-0.1-15.4
			c-0.8-6.5-3-14.1-5.7-21.2c-0.8,3.6-1.8,7.2-2.8,10.2c-2,5.9-4.3,11.9-6.5,17.7c-3,7.6-6,15.3-9,22.8c-0.5,1.1-1.4,1.9-2.6,2
			c-1.2,0.2-2.3-0.2-3.1-1.2c-0.8-1-1.7-2.5-2.3-3.6c-2.4-4.1-4.5-8.5-6.6-12.8c-2.3-4.9-4.1-10.1-5.9-15.2
			c-0.1-0.1-0.1-0.3-0.1-0.4l0.9,37c0,1.5-1,2.8-2.4,3.3c-1.4,0.4-3-0.1-3.8-1.5L716,337.3c-0.7,2.4-1.3,4.9-1.8,7.1
			c-2.1,10-2.2,20.5,0.2,30.5c0.6,2.6,1.4,5.3,2.3,7.8c3.4,9.4,8.4,18.6,13.9,26.9c2.2,3.3,4.6,6.8,7.2,9.9L804,419.6L804,419.6z
			 M732.8,352.2l-1.2-48.6c-0.1-1.6,1.2-3.1,2.8-3.3c1.7-0.3,3.2,0.8,3.7,2.4c2.1,7.7,4.5,15.4,7.1,23c1.7,4.9,3.4,9.9,5.6,14.5
			c1.5,3.3,3.2,6.6,4.9,9.9c2.2-5.6,4.4-11.1,6.6-16.7c2.2-5.8,4.5-11.6,6.4-17.5c1.9-5.8,3.9-14.1,3.9-20.3c0-1.5,1-2.9,2.6-3.2
			c1.5-0.4,3,0.4,3.7,1.7c4.9,9.9,9.9,23.3,11.2,34.2c0.2,1.8,0.4,4,0.5,6.4c1.5-2.8,3-5.7,4.5-8.5c2.5-5.2,7.3-14.3,8.1-19.9
			c0.6-3.9,1.2-7.6,1.7-11.5c0.3-1.6,1.6-2.8,3.2-2.8c1.6,0,3,1.1,3.3,2.7c1.7,9.5,3,19.5,3.7,29.2c0.5,6.7,0.8,14.3-0.2,21
			c0,0.1,0,0.2,0,0.4c0.2-0.4,0.4-0.8,0.7-1.1c2.4-3.9,4.9-8.1,6.9-12.2c0.9-1.8,3.2-6.6,3.5-8.7c0.1-1.6,1.3-2.9,2.8-3.1
			c1.7-0.2,3.2,0.9,3.6,2.5c1.1,4.1,1.8,8.6,2.5,12.8c1.5,10,2.2,20.3,2,30.5c-0.3,11.3-4,22.4-9.5,32.2
			c-2.3,4.1-8.2,13.3-12.2,15.8c-1.7,1.1-4.5,6.8-5.2,8.8c-0.1,0.1-0.1,0.2-0.2,0.3v12.4h-76.3v-10.9c-2.9-3.5-5.6-7.5-8.1-11.2
			c-5.8-8.8-11-18.4-14.6-28.3c-1-2.8-1.9-5.6-2.6-8.5c-2.6-10.9-2.5-22.4-0.2-33.4c0.9-4.7,2.5-10.3,4.5-14.6
			c0.5-1.1,1.5-1.8,2.8-1.9c1.2-0.1,2.3,0.5,3,1.5L732.8,352.2z M729.6,446.5H751H792h21.4c-0.9,12.3-4.9,20.6-12.7,24.4H792H751
			h-8.7C734.6,467.1,730.5,458.7,729.6,446.5z M742.6,480.3h59.1v11.5h-59.1V480.3z M773.7,261c27.6-0.8,56.4,7.4,74.7,25.1
			l22.9-39.9c-28.5-21.9-60.3-33.6-94.3-33.8v0.1c-1.1,0-2.2,0-3.2-0.1c-0.5,0-1,0-1.4,0v0c-34.8-0.1-67.2,11.5-96,33.8l22.9,39.9
			C717.3,268.4,746.1,260.3,773.7,261z M879.6,244.6l-6.2,10.8l0.8,0.5c5.2,3.3,10.5,6.6,15.8,9.7c12.3,7.3,25,14.1,37.9,20.4
			c6.5,3.1,13.6,5.7,20.5,8c8.7,3,17.5,5.6,26.3,8.2c20.3,5.8,41,11.1,61.6,15.7l8.8,1.6l-7,13c-2,3.5-4,6.9-6.1,10.2
			c-2.5,4.1-5.1,8.3-7.7,12.4l13.4,45.8l-11.3-3.2c-32.6-9.2-65.5-18.4-97.2-30.3c-1-0.4-2-0.8-3-1.1l0.2,3.7l-25.2,1.4l-0.3-6.2
			l19.9-1.1c-29.8-11.8-57.7-26.1-84.9-43.5l-5.2-3.3l14.6-25c-16.1-16.8-42.6-24.8-68.3-24.8v0.2c-1.1-0.1-2.1-0.1-3.2-0.1
			c-0.5,0-1,0-1.5,0.1v-0.1c-26.4-0.5-53.7,7.6-70.1,24.8l14.6,25l-5.2,3.3c-27.3,17.5-55.3,31.8-85.2,43.6l17.3,0.9l-0.3,6.2
			l-25.2-1.4l0.1-2.6c-31.8,11.9-64.6,21.1-97.2,30.3l-11.3,3.2l13.4-45.8c-2.6-4.1-5.2-8.2-7.7-12.4c-2.1-3.4-4.2-6.8-6.1-10.2
			l-7.1-13l8.8-1.6c20.6-4.6,41.3-9.9,61.6-15.7c8.8-2.5,17.6-5.2,26.3-8.2c6.9-2.3,14-4.9,20.5-8c12.9-6.3,25.5-13.1,37.8-20.4
			c5.3-3.1,10.7-6.3,15.7-9.7l0.9-0.5l-6.2-10.8c36.2-29.6,73.1-39,105.8-38.6C806.3,205.6,843.3,215,879.6,244.6z M1035.3,324.1
			c0,0-80.4-17.9-110.3-32.3c-29.9-14.5-54.3-30.4-54.3-30.4l-20.1,34.4l-11.4,19.5c63.8,40.9,117.5,56.1,188.9,76.2l-11-37.4
			C1017.3,354.1,1034.3,326.6,1035.3,324.1z M512,324.1c0,0,80.4-17.9,110.3-32.3c29.9-14.5,54.3-30.4,54.3-30.4l20.1,34.4
			l11.4,19.5c-63.8,40.9-117.5,56.1-188.9,76.2l11-37.4C530.2,354.1,513.1,326.6,512,324.1z M748.3,502.3l-3.4,22.1l6.1,0.9
			l2.8-18.1h4.8l-0.4,35.8l-3.6,0l-0.5-0.3l-0.2,0.3c-9,0-25.2,1.3-33.3-0.7l-1.2,2.3c-0.5,1-1,2.3-1.3,3.4
			c-1.2,4.1-2.4,7.9-1.5,12.2c1.2,5.3,6.1,7.2,11.6,7.4c0,0.1,0.2,0.2,0.2,0.3c-1.4,2-2.1,4.9-2,7.3c0,2.8,1.1,5.1,2.7,7
			c-1.5,2.3-2.6,5.3-3,7.9c-0.7,4.3,0.5,8,3.1,10.8l-0.1,0.2c-1.5,2.8-2.2,6.6-1.9,9.7c0.5,3.6,2.2,6.4,4.7,8.4l-0.2,1
			c-0.5,3-0.2,6.7,0.7,9.5c1.2,4.3,3.6,7.5,7.1,9.5c-1.1,2.5-1.3,5.6-0.7,8.1c1.8,7.3,9.8,10.7,16.7,12.3c0.4,0.1,0.8,0.2,1.2,0.3
			l-0.4,35.9c-7.1,5-11.7,13.2-11.7,22.5c0,15.2,12.3,27.6,27.5,27.6c15.2,0,27.6-12.4,27.6-27.6c0-9.3-4.6-17.5-11.7-22.5l-0.5-38
			c3.9-1.2,8.9-3.2,12.5-5.5c2.7,3.1,6.1,5.8,10.2,7.6c7.4,3.3,15.7,5.8,23.4,8.5c7,2.4,15.1,5.1,21.6,8.6
			c6.6,3.7,12.8,11.7,15.5,18.5c1.8,4.6,7.9,2.4,6-2.2c-3.1-8.2-10.4-17.3-18.3-21.7c-6.8-3.8-15.2-6.6-22.7-9.1
			c-7.5-2.5-15.7-5-22.9-8.3c-3.4-1.5-6.1-3.7-8.3-6.4l0.6-0.7l-2.5-1.8c-2-3.1-3.4-6.6-4.4-10.2l0.7-0.5l-1.2-1.5
			c-0.4-1.8-0.6-3.6-0.7-5.4c-0.3-5.5-1.9-14-5.3-18.7c0.2-0.1,0.4-0.1,0.6-0.2c4.1-0.3,5.4-1.7,8.5-4c2.9,6,5.7,11.9,8.8,17.8
			c5.2,9.7,16.4,22.8,29,22.8c5.2,0,5.1-6.2,0.2-6.2c-11-1.1-18.8-10.9-23.3-19.3c-4.7-8.8-8.7-17.9-13.5-26.7
			c-1.3-2.3-2.6-4.4-4-6.4l-0.1-0.5l-0.2,0C787.3,571,773,565,752.2,566.1c-3.7,0.2-8.2,0.3-12.2-0.2c0.3-0.1,0.5-0.2,0.8-0.3
			c5.7-2,13-11.2,16.6-16.4c7.9,0.1,15.8,0.2,23.6,0.4c30.7,0.7,55.4,15.3,74.2,37.7c16.5,19.7,28.3,38.8,35.1,63.1
			c2.8,9.8,5.4,19.6,7.8,29.5c1.1,4.8,7.5,3.4,6.3-1.4c-2.4-9.9-5-19.9-7.8-29.7c-7.1-25.2-19.2-45-36.3-65.3
			c-19-22.6-43.8-37.6-74-39.8l-0.4-36.4h4.8l2.8,18.1l6.1-0.9l-3.7-23.9v-2h-47.5L748.3,502.3L748.3,502.3z"/>
		<path class="st0" d="M773.2,29.1l0.3-0.5l0.2,0.1l0.2-0.1l0.3,0.5l154.4,100.6l-3.5,11.8c-7.6,25.6-5.8,54.7,14.4,74.1
			c12.2,11.8,28.5,17.1,45.3,17c23.5-0.1,46.4-10.4,65.4-23.8l10.4-7.3l70.4,59.7l-9.7,12.5c-7.2,9.2-14.3,28.2-17.7,39
			c-13.6,43.5-15.7,93.2-12.7,138.4c2.8,43.2,4.6,86.8,3.5,130.2c-0.7,31.4-2.8,63.4-8.2,94.4c-7.3,41.6-20.4,81.6-48.4,114.1
			c-35.7,41.4-83.8,62.4-134.9,78.6c-18.4,5.9-37.4,9.4-55.8,15.3c-19.5,6.3-36.2,14.8-51.7,28.4L774,932.7l-22-20.8
			c-15.5-13.6-32.2-22-51.7-28.4c-18.3-5.9-37.4-9.4-55.7-15.3c-51.1-16.2-99.2-37.2-134.9-78.6c-28-32.5-41.1-72.5-48.4-114.1
			c-5.4-31-7.6-63-8.3-94.4c-1-43.3,0.8-86.9,3.6-130.2c3-45.2,0.9-94.8-12.7-138.4c-3.4-10.8-10.5-29.8-17.7-39l-9.8-12.5
			l70.4-59.7l10.4,7.3c19,13.4,41.9,23.7,65.4,23.8c16.8,0.1,33-5.2,45.3-17c20.2-19.4,21.9-48.6,14.3-74.1l-3.5-11.8L773.2,29.1z
			 M1086.8,266.9l-28.4-24.1c-22.2,13.5-47.3,22.6-73.5,22.7c-25.4,0.1-49.8-8.4-68.2-26.1c-26.1-25.2-32.9-61-26-95.2L773.7,68
			l-116.9,76.2c6.8,34.2,0.1,69.9-26,95.1c-18.4,17.7-42.9,26.3-68.2,26.1c-26.2-0.1-51.3-9.2-73.5-22.7l-28.4,24.1
			c6.2,11.7,11.3,25.4,14.6,36c15,47.6,17.4,101,14.2,150.3c-2.8,42.3-4.5,84.9-3.5,127.2c0.7,29.8,2.7,60.2,7.8,89.6
			c6.1,35.5,17,70.5,40.9,98.3c31.3,36.4,75.2,54.5,119.9,68.7c18.4,5.8,37.4,9.3,55.9,15.3c23.8,7.7,44.3,18.4,63.3,34.9h0h0
			c18.9-16.6,39.5-27.3,63.3-34.9c18.5-6,37.5-9.5,55.9-15.3c44.7-14.2,88.6-32.4,119.9-68.7c23.9-27.7,34.7-62.8,40.9-98.3
			c5.1-29.4,7.1-59.7,7.8-89.6c1-42.3-0.8-85-3.6-127.2c-3.3-49.4-0.7-102.8,14.2-150.3C1075.5,292.2,1080.6,278.5,1086.8,266.9z"/>
	</g>
</g>
<g>
	<path class="st1" d="M9.6,1025.3h37.7c30.3,0,51.3,20.8,51.3,48v0.3c0,27.2-20.9,48.3-51.3,48.3H9.6V1025.3z M47.2,1102.7
		c17.4,0,29.1-11.7,29.1-28.8v-0.3c0-17.1-11.7-29.1-29.1-29.1H30.8v58.2H47.2z"/>
	<path class="st1" d="M111,1025.3h72.8v18.9h-51.7v19.6h45.5v18.9h-45.5v20.3h52.4v18.9H111C111,1121.8,111,1025.3,111,1025.3z"/>
	<path class="st1" d="M196.9,1025.3h21.2v77.2h48.1v19.3h-69.4V1025.3z"/>
	<path class="st1" d="M275.8,1025.3h21.2v38.2h39.2v-38.2h21.2v96.5h-21.2v-38.8h-39.2v38.8h-21.2V1025.3z"/>
	<path class="st1" d="M375.1,1025.3h21.2v96.5h-21.2V1025.3z"/>
	<path class="st1" d="M449,1025.3h39.4c23,0,37,13.7,37,33.4v0.3c0,22.3-17.4,33.9-39,33.9h-16.1v29H449L449,1025.3L449,1025.3z
		 M487,1074c10.6,0,16.8-6.3,16.8-14.6v-0.3c0-9.5-6.6-14.6-17.2-14.6h-16.4v29.5L487,1074L487,1074z"/>
	<path class="st1" d="M533.1,1080.4v-55.2h21.2v54.6c0,15.7,7.9,23.8,20.8,23.8s20.8-7.8,20.8-23.2v-55.3h21.2v54.5
		c0,29.3-16.4,43.6-42.3,43.6S533.1,1108.9,533.1,1080.4z"/>
	<path class="st1" d="M632.4,1025.3h44.8c11,0,19.7,3,25.2,8.5c4.4,4.4,6.6,9.8,6.6,16.4v0.3c0,10.9-5.8,17-12.7,20.8
		c11.2,4.3,18.1,10.7,18.1,23.7v0.3c0,17.7-14.3,26.5-36.1,26.5h-45.9L632.4,1025.3L632.4,1025.3z M672.7,1064.3
		c9.4,0,15.3-3,15.3-10.2v-0.3c0-6.3-5-9.9-13.9-9.9h-21v20.4H672.7z M678.3,1103.2c9.4,0,15-3.3,15-10.5v-0.3
		c0-6.5-4.8-10.5-15.7-10.5h-24.6v21.2L678.3,1103.2L678.3,1103.2z"/>
	<path class="st1" d="M725.5,1025.3h21.2v77.2h48.1v19.3h-69.4L725.5,1025.3L725.5,1025.3z"/>
	<path class="st1" d="M805.4,1025.3h21.2v96.5h-21.2V1025.3z"/>
	<path class="st1" d="M840,1073.8v-0.3c0-27.4,20.7-49.9,50.3-49.9c18.2,0,29.1,6,38.1,14.9l-13.5,15.6c-7.5-6.8-15-10.9-24.7-10.9
		c-16.3,0-28,13.5-28,30.1v0.3c0,16.6,11.5,30.3,28,30.3c11,0,17.8-4.4,25.4-11.3l13.5,13.7c-9.9,10.6-21,17.2-39.6,17.2
		C861.1,1123.5,840,1101.6,840,1073.8z"/>
	<path class="st1" d="M967.9,1107.8l12.5-15c8.7,7.2,17.8,11.7,28.8,11.7c8.7,0,13.9-3.4,13.9-9.1v-0.3c0-5.4-3.3-8.1-19.4-12.3
		c-19.4-5-32-10.3-32-29.5v-0.3c0-17.5,14.1-29.1,33.8-29.1c14.1,0,26.1,4.4,35.8,12.3l-11,16c-8.6-5.9-17-9.5-25.1-9.5
		s-12.4,3.7-12.4,8.4v0.3c0,6.3,4.1,8.4,20.8,12.7c19.6,5.1,30.6,12.1,30.6,29v0.3c0,19.2-14.6,29.9-35.4,29.9
		C994.3,1123.2,979.5,1118.1,967.9,1107.8z"/>
	<path class="st1" d="M1052.1,1073.8v-0.3c0-27.4,20.7-49.9,50.3-49.9c18.2,0,29.1,6,38.1,14.9l-13.5,15.6
		c-7.4-6.8-15-10.9-24.7-10.9c-16.3,0-28,13.5-28,30.1v0.3c0,16.6,11.4,30.3,28,30.3c11,0,17.8-4.4,25.4-11.3l13.5,13.7
		c-9.9,10.6-20.9,17.2-39.6,17.2C1073.2,1123.5,1052.1,1101.6,1052.1,1073.8z"/>
	<path class="st1" d="M1151.7,1025.3h21.2v38.2h39.2v-38.2h21.2v96.5h-21.2v-38.8h-39.2v38.8h-21.2V1025.3z"/>
	<path class="st1" d="M1245.8,1073.8v-0.3c0-27.4,21.7-49.9,51.4-49.9c29.8,0,51.2,22.2,51.2,49.6v0.3c0,27.4-21.7,49.9-51.4,49.9
		C1267.1,1123.5,1245.8,1101.3,1245.8,1073.8z M1326.2,1073.8v-0.3c0-16.6-12.1-30.3-29.2-30.3c-17.1,0-29,13.5-29,30.1v0.3
		c0,16.6,12.1,30.3,29.2,30.3C1314.3,1103.9,1326.2,1090.4,1326.2,1073.8z"/>
	<path class="st1" d="M1356.5,1073.8v-0.3c0-27.4,21.7-49.9,51.4-49.9s51.2,22.2,51.2,49.6v0.3c0,27.4-21.7,49.9-51.4,49.9
		C1377.9,1123.5,1356.5,1101.3,1356.5,1073.8z M1436.9,1073.8v-0.3c0-16.6-12.1-30.3-29.2-30.3s-28.9,13.5-28.9,30.1v0.3
		c0,16.6,12.1,30.3,29.2,30.3C1425.1,1103.9,1436.9,1090.4,1436.9,1073.8z"/>
	<path class="st1" d="M1471.6,1025.3h21.2v77.2h48.1v19.3h-69.4V1025.3z"/>
	<path class="st1" d="M494.5,1168.5h21.2v42.2l39.2-42.2h25.7l-39.3,40.9l41.1,55.6h-25.5l-29.9-41.1l-11.2,11.6v29.5h-21.2
		L494.5,1168.5L494.5,1168.5z"/>
	<path class="st1" d="M576.9,1217.1v-0.3c0-27.5,21.7-49.9,51.4-49.9s51.2,22.2,51.2,49.6v0.3c0,27.4-21.7,49.9-51.4,49.9
		C598.3,1266.7,576.9,1244.5,576.9,1217.1z M657.3,1217.1v-0.3c0-16.6-12.1-30.3-29.2-30.3c-17.1,0-29,13.5-29,30.1v0.3
		c0,16.6,12.1,30.3,29.2,30.3C645.4,1247.1,657.3,1233.6,657.3,1217.1z"/>
	<path class="st1" d="M692,1168.5h21.2v77.2h48.1v19.3H692L692,1168.5L692,1168.5z"/>
	<path class="st1" d="M770.9,1168.5h21.2v77.2h48.1v19.3h-69.4V1168.5z"/>
	<path class="st1" d="M882.9,1167.8h19.6l41.4,97.2h-22.2l-8.8-21.6H872l-8.8,21.6h-21.6L882.9,1167.8z M905.2,1224.7l-12.8-31.3
		l-12.8,31.3H905.2z"/>
	<path class="st1" d="M952.3,1168.5h22.9l25.4,40.8l25.4-40.8h22.9v96.5h-21.1v-63l-27.2,41.2h-0.6l-26.9-40.8v62.6h-20.8
		L952.3,1168.5L952.3,1168.5z"/>
</g>
<g>
	<g>
		<path class="st1" d="M30.6,1322.7c-3.1,4.8-5.8,9.5-8,14.2c-2.2,4.7-4,9.3-5.4,13.7c-1.4,4.5-2.4,8.8-3,13
			c-0.6,4.2-0.9,8.2-0.9,11.9c0,1.5,0.1,3.1,0.1,4.8c0.1,1.7,0.3,3.4,0.4,5.1c0.2,1.7,0.4,3.4,0.7,5.1c0.3,1.7,0.7,3.3,1.1,4.7
			c0.1,0.4,0.1,0.7,0.1,0.9c0,0.3-0.1,0.5-0.3,0.6c-0.2,0.2-0.5,0.3-1,0.3c-0.4,0.1-1,0.1-1.7,0.1c-0.5,0-0.9,0-1.3,0
			c-0.4,0-0.7-0.1-0.9-0.2c-0.2-0.1-0.4-0.2-0.6-0.3c-0.1-0.1-0.2-0.3-0.3-0.4c-1.1-3.3-1.9-6.8-2.6-10.6c-0.7-3.7-1-7.8-1-12.1
			c0-3.7,0.3-7.6,0.9-11.6c0.6-4,1.6-8.2,3-12.5c1.4-4.3,3.2-8.8,5.5-13.4c2.3-4.6,5.1-9.3,8.5-14.2c0.1-0.2,0.3-0.4,0.5-0.5
			c0.2-0.2,0.4-0.3,0.7-0.4c0.3-0.1,0.7-0.2,1.1-0.2c0.5,0,1-0.1,1.7-0.1c0.7,0,1.2,0,1.6,0.1c0.4,0.1,0.7,0.2,0.9,0.4
			c0.2,0.1,0.3,0.3,0.3,0.6C30.9,1322.2,30.9,1322.4,30.6,1322.7z"/>
		<path class="st1" d="M77.9,1362c-0.7,3.5-1.8,6.6-3.3,9.3c-1.5,2.7-3.3,4.9-5.5,6.6c-2.2,1.8-4.6,3.1-7.3,4
			c-2.7,0.9-5.7,1.3-8.8,1.3c-3.3,0-6.3-0.5-8.7-1.4c-2.5-0.9-4.4-2.3-5.9-4.1c-1.5-1.8-2.5-4.1-2.9-6.7c-0.5-2.7-0.3-5.8,0.4-9.4
			l6.9-34.2c0-0.2,0.1-0.4,0.3-0.6c0.2-0.2,0.4-0.3,0.7-0.4c0.3-0.1,0.7-0.2,1.2-0.2c0.5-0.1,1.1-0.1,1.8-0.1c0.7,0,1.3,0,1.8,0.1
			c0.5,0.1,0.8,0.2,1.1,0.2c0.3,0.1,0.4,0.3,0.5,0.4c0.1,0.2,0.1,0.4,0,0.6l-6.8,34.2c-0.5,2.5-0.6,4.8-0.4,6.7
			c0.2,1.9,0.8,3.5,1.7,4.8c0.9,1.3,2.1,2.2,3.7,2.9c1.6,0.6,3.5,1,5.7,1c2.2,0,4.2-0.3,6-1c1.8-0.7,3.5-1.6,4.9-2.9
			c1.4-1.3,2.6-2.9,3.6-4.8c1-1.9,1.7-4.1,2.2-6.5l6.9-34.2c0-0.2,0.1-0.4,0.3-0.6c0.2-0.2,0.4-0.3,0.7-0.4c0.3-0.1,0.7-0.2,1.2-0.2
			c0.5-0.1,1.1-0.1,1.8-0.1c0.7,0,1.3,0,1.7,0.1c0.5,0.1,0.8,0.2,1.1,0.2c0.3,0.1,0.5,0.3,0.5,0.4c0.1,0.2,0.1,0.4,0.1,0.6
			L77.9,1362z"/>
		<path class="st1" d="M122.6,1350.9c0,1-0.1,2-0.2,3c-0.1,1-0.3,2-0.5,3l-4.9,24.4c-0.1,0.2-0.2,0.4-0.3,0.6
			c-0.1,0.2-0.3,0.3-0.7,0.4c-0.3,0.1-0.7,0.2-1.1,0.3c-0.5,0.1-1.1,0.1-1.8,0.1c-0.7,0-1.3,0-1.7-0.1c-0.5-0.1-0.8-0.1-1-0.3
			c-0.2-0.1-0.4-0.3-0.5-0.4c-0.1-0.2-0.1-0.3-0.1-0.6l4.8-24.1c0.2-0.9,0.3-1.8,0.4-2.6c0.1-0.8,0.1-1.6,0.1-2.2
			c0-1.8-0.4-3.2-1.1-4.3c-0.7-1.1-2-1.6-3.8-1.6c-1.5,0-3.1,0.4-4.7,1.3c-1.6,0.9-3.1,2.1-4.5,3.6c-1.4,1.6-2.6,3.4-3.7,5.5
			c-1.1,2.1-1.9,4.4-2.4,6.9l-3.5,17.4c-0.1,0.2-0.2,0.4-0.3,0.6c-0.1,0.2-0.4,0.3-0.7,0.4c-0.3,0.1-0.7,0.2-1.1,0.3
			c-0.5,0.1-1.1,0.1-1.8,0.1c-0.7,0-1.3,0-1.8-0.1c-0.4-0.1-0.8-0.1-1-0.3c-0.2-0.1-0.4-0.3-0.5-0.4c-0.1-0.2-0.1-0.3,0-0.6l7.8-39
			c0-0.2,0.1-0.4,0.2-0.6c0.1-0.2,0.3-0.3,0.6-0.4c0.3-0.1,0.6-0.2,1-0.2c0.4-0.1,0.9-0.1,1.5-0.1c0.6,0,1.1,0,1.5,0.1
			c0.4,0,0.7,0.1,0.9,0.2c0.2,0.1,0.3,0.3,0.4,0.4c0.1,0.2,0.1,0.4,0,0.6l-1.5,7.5c0.4-1,1.1-2,2.1-3.1c1-1.1,2.2-2.1,3.5-3
			c1.4-0.9,2.9-1.7,4.5-2.3c1.6-0.6,3.3-0.9,5.1-0.9c1.9,0,3.6,0.3,4.9,0.9c1.3,0.6,2.3,1.4,3.2,2.3c0.8,1,1.4,2.1,1.7,3.4
			C122.4,1348.2,122.6,1349.5,122.6,1350.9z"/>
		<path class="st1" d="M159,1381.3c-0.1,0.5-0.4,0.8-0.9,1c-0.5,0.2-1.4,0.3-2.6,0.3c-0.6,0-1.1,0-1.5-0.1c-0.4-0.1-0.7-0.1-0.9-0.2
			c-0.2-0.1-0.4-0.2-0.5-0.4c-0.1-0.2-0.1-0.4,0-0.6l1.4-7.3c-0.4,1-1.1,2-2,3.1c-1,1.1-2.1,2.1-3.5,3c-1.3,0.9-2.8,1.7-4.5,2.3
			c-1.6,0.6-3.3,0.9-5,0.9c-1.7,0-3.2-0.2-4.4-0.7c-1.3-0.4-2.3-1-3.2-1.8c-0.9-0.8-1.6-1.6-2.1-2.6c-0.5-1-1-2-1.3-3.1
			c-0.3-1.1-0.5-2.1-0.6-3.2c-0.1-1.1-0.2-2.1-0.2-3c0-1.7,0.2-3.5,0.5-5.6c0.3-2.1,0.8-4.2,1.5-6.3c0.7-2.1,1.6-4.1,2.7-6.1
			c1.1-2,2.4-3.8,3.9-5.3c1.5-1.5,3.3-2.8,5.3-3.7c2-1,4.3-1.4,6.8-1.4c1.3,0,2.4,0.1,3.5,0.4c1.1,0.3,2.1,0.6,3,1.1
			c0.9,0.5,1.7,1,2.5,1.7c0.8,0.7,1.4,1.4,2,2.1l4.4-22.1c0-0.2,0.1-0.4,0.3-0.6c0.1-0.2,0.4-0.3,0.7-0.4c0.3-0.1,0.7-0.2,1.1-0.3
			c0.5-0.1,1.1-0.1,1.8-0.1c0.7,0,1.3,0,1.7,0.1c0.5,0.1,0.8,0.2,1.1,0.3c0.3,0.1,0.4,0.2,0.5,0.4c0.1,0.2,0.1,0.4,0,0.6L159,1381.3
			z M157.6,1352.6c-1.4-2-2.8-3.5-4.4-4.6c-1.6-1-3.3-1.6-5.3-1.6c-1.5,0-2.9,0.4-4.1,1.1c-1.2,0.7-2.3,1.6-3.3,2.8
			c-1,1.2-1.8,2.5-2.5,4.1c-0.7,1.5-1.3,3.1-1.7,4.7c-0.5,1.6-0.8,3.2-1,4.8c-0.2,1.6-0.3,3.1-0.3,4.4c0,2.8,0.5,4.9,1.4,6.4
			c1,1.5,2.5,2.2,4.6,2.2c1.6,0,3.2-0.4,4.8-1.3c1.6-0.9,3.1-2.1,4.5-3.6c1.4-1.5,2.6-3.3,3.7-5.5c1.1-2.1,1.9-4.4,2.4-6.9
			L157.6,1352.6z"/>
		<path class="st1" d="M205.9,1350.3c0,2-0.5,3.8-1.4,5.4c-0.9,1.6-2.4,2.9-4.3,4.1c-2,1.1-4.5,2-7.5,2.6c-3.1,0.6-6.7,0.9-11,0.9
			h-4.6c-0.2,0.9-0.3,1.9-0.4,2.8c-0.1,0.9-0.1,1.7-0.1,2.5c0,2.9,0.7,5.1,2.1,6.6c1.4,1.5,3.7,2.3,7,2.3c1.9,0,3.5-0.1,5-0.4
			c1.5-0.3,2.8-0.6,3.8-0.9c1.1-0.3,2-0.6,2.7-0.9c0.7-0.3,1.2-0.4,1.4-0.4c0.3,0,0.5,0.1,0.6,0.3c0.1,0.2,0.2,0.5,0.2,0.8
			c0,0.3,0,0.6-0.1,1c-0.1,0.4-0.1,0.8-0.3,1.2c-0.1,0.4-0.3,0.8-0.4,1.2c-0.2,0.4-0.4,0.7-0.6,0.9c-0.4,0.3-1,0.7-1.8,1
			c-0.9,0.3-1.9,0.6-3.1,0.9c-1.2,0.3-2.5,0.5-4,0.7c-1.4,0.2-2.9,0.3-4.3,0.3c-2.6,0-4.8-0.3-6.8-0.9c-1.9-0.6-3.5-1.5-4.8-2.7
			c-1.3-1.2-2.2-2.7-2.9-4.5c-0.6-1.8-0.9-3.9-0.9-6.3c0-1.9,0.2-3.9,0.5-6c0.4-2.2,0.9-4.3,1.7-6.4c0.8-2.1,1.8-4.1,3-6.1
			c1.3-1.9,2.7-3.6,4.4-5.1c1.7-1.5,3.7-2.7,6-3.6c2.3-0.9,4.8-1.3,7.6-1.3c2.4,0,4.5,0.3,6.2,0.9c1.7,0.6,3.1,1.4,4.2,2.3
			c1.1,0.9,1.9,2,2.4,3.2C205.7,1348,205.9,1349.1,205.9,1350.3z M198.6,1350.9c0-1.5-0.6-2.7-1.7-3.6c-1.1-0.9-2.8-1.4-4.9-1.4
			c-1.9,0-3.5,0.3-5,1c-1.4,0.7-2.7,1.5-3.8,2.6c-1.1,1.1-2.1,2.4-2.9,3.8c-0.8,1.5-1.4,3-1.9,4.6h4.4c3,0,5.6-0.2,7.6-0.6
			c2.1-0.4,3.7-0.9,4.9-1.5c1.2-0.7,2.1-1.4,2.6-2.3C198.4,1352.8,198.6,1351.9,198.6,1350.9z"/>
		<path class="st1" d="M237.4,1342.4c0,0.1,0,0.3-0.1,0.7c0,0.3-0.1,0.7-0.2,1.1c0,0.4-0.1,0.9-0.3,1.3c-0.1,0.5-0.3,0.9-0.4,1.3
			c-0.2,0.4-0.3,0.7-0.5,1c-0.2,0.3-0.4,0.4-0.6,0.4c-0.2,0-0.5,0-0.8-0.2c-0.3-0.1-0.6-0.2-0.9-0.4c-0.3-0.1-0.7-0.3-1.2-0.4
			c-0.4-0.1-0.9-0.2-1.5-0.2c-1,0-2.1,0.4-3.4,1.3c-1.3,0.9-2.6,2-3.8,3.5c-1.2,1.5-2.4,3.3-3.4,5.3c-1,2.1-1.8,4.3-2.3,6.7
			l-3.4,17.4c0,0.2-0.2,0.4-0.3,0.6c-0.1,0.2-0.4,0.3-0.7,0.4c-0.3,0.1-0.7,0.2-1.1,0.3c-0.5,0.1-1.1,0.1-1.8,0.1
			c-0.7,0-1.3,0-1.7-0.1c-0.5-0.1-0.8-0.1-1-0.3c-0.2-0.1-0.4-0.3-0.5-0.4c-0.1-0.2-0.1-0.3,0-0.6l7.8-39c0-0.2,0.1-0.4,0.3-0.6
			c0.1-0.2,0.4-0.3,0.6-0.4c0.3-0.1,0.6-0.2,1.1-0.2c0.4-0.1,0.9-0.1,1.5-0.1c0.6,0,1.1,0,1.5,0.1c0.4,0,0.7,0.1,0.9,0.2
			c0.2,0.1,0.4,0.3,0.4,0.4c0.1,0.2,0.1,0.4,0.1,0.6l-1.5,7.1c0.7-1.2,1.5-2.3,2.4-3.4c0.9-1.1,1.9-2.1,3-2.9c1.1-0.8,2.2-1.5,3.3-2
			c1.2-0.5,2.3-0.7,3.4-0.7c0.5,0,1,0,1.5,0.1c0.5,0.1,1,0.2,1.4,0.3c0.4,0.1,0.8,0.2,1.1,0.4c0.3,0.1,0.6,0.3,0.8,0.5
			C237.3,1341.7,237.4,1342,237.4,1342.4z"/>
		<path class="st1" d="M278.8,1342.7c0,0.3,0,0.5,0,0.8c0,0.3-0.1,0.6-0.2,0.9c-0.1,0.3-0.2,0.6-0.4,0.9c-0.1,0.3-0.3,0.6-0.5,0.9
			c-0.1,0.2-0.3,0.4-0.5,0.6c-0.2,0.1-0.4,0.2-0.7,0.2h-10l-4.4,21.7c-0.1,0.6-0.2,1.3-0.3,2c-0.1,0.8-0.1,1.4-0.1,1.9
			c0,1.5,0.3,2.5,0.9,3.2c0.6,0.7,1.6,1,3,1c0.8,0,1.5-0.1,2-0.2c0.6-0.1,1.1-0.3,1.5-0.4c0.4-0.1,0.8-0.3,1.1-0.4
			c0.3-0.1,0.6-0.2,0.8-0.2c0.2,0,0.4,0.1,0.5,0.2c0.1,0.2,0.2,0.5,0.2,0.9c0,0.4,0,0.8-0.1,1.2c-0.1,0.4-0.2,0.9-0.3,1.3
			c-0.1,0.4-0.3,0.8-0.4,1.2c-0.2,0.3-0.4,0.6-0.6,0.8c-0.2,0.2-0.6,0.4-1,0.6c-0.5,0.2-1,0.4-1.6,0.5c-0.6,0.2-1.3,0.3-1.9,0.4
			c-0.7,0.1-1.3,0.1-2,0.1c-1.6,0-3-0.2-4.2-0.5c-1.2-0.4-2.2-0.9-3-1.6c-0.8-0.7-1.4-1.7-1.8-2.8c-0.4-1.1-0.6-2.5-0.6-4
			c0-0.3,0-0.7,0-1.1c0-0.4,0.1-0.9,0.1-1.3c0.1-0.5,0.1-0.9,0.2-1.4c0.1-0.5,0.1-0.9,0.2-1.3l4.4-21.9H254c-0.3,0-0.6-0.1-0.7-0.3
			c-0.2-0.2-0.2-0.6-0.2-1.1c0-0.4,0-0.9,0.1-1.4c0.1-0.5,0.2-1,0.4-1.5c0.2-0.5,0.4-0.9,0.7-1.2c0.3-0.3,0.6-0.5,1-0.5h5.5l1.9-9.3
			c0-0.2,0.1-0.4,0.3-0.6c0.2-0.2,0.4-0.3,0.7-0.4c0.3-0.1,0.7-0.2,1.2-0.3c0.5-0.1,1.1-0.1,1.8-0.1c0.7,0,1.3,0,1.7,0.1
			c0.5,0.1,0.8,0.2,1,0.3c0.2,0.1,0.4,0.3,0.5,0.4c0.1,0.2,0.1,0.4,0.1,0.6l-1.9,9.3h10c0.4,0,0.7,0.2,0.9,0.5
			C278.7,1342,278.8,1342.3,278.8,1342.7z"/>
		<path class="st1" d="M309.7,1381.3c0,0.2-0.2,0.4-0.3,0.6c-0.1,0.2-0.4,0.3-0.7,0.4c-0.3,0.1-0.7,0.2-1.1,0.3
			c-0.5,0.1-1.1,0.1-1.8,0.1c-0.7,0-1.3,0-1.7-0.1c-0.4-0.1-0.8-0.1-1-0.3c-0.2-0.1-0.4-0.3-0.5-0.4c-0.1-0.2-0.1-0.3-0.1-0.6
			l4.8-24.1c0.1-0.8,0.3-1.6,0.4-2.5c0.1-0.9,0.2-1.7,0.2-2.4c0-0.8-0.1-1.6-0.3-2.3c-0.2-0.7-0.5-1.3-0.8-1.8
			c-0.4-0.5-0.9-0.9-1.5-1.2c-0.6-0.3-1.4-0.4-2.3-0.4c-1.5,0-3.1,0.4-4.7,1.3c-1.6,0.9-3.1,2.1-4.5,3.7c-1.4,1.6-2.6,3.4-3.7,5.6
			c-1.1,2.1-1.9,4.4-2.4,6.9l-3.5,17.3c-0.1,0.2-0.2,0.4-0.3,0.6c-0.1,0.2-0.4,0.3-0.6,0.4c-0.3,0.1-0.7,0.2-1.2,0.3
			c-0.5,0.1-1.1,0.1-1.8,0.1c-0.7,0-1.3,0-1.8-0.1c-0.4-0.1-0.8-0.1-1-0.3c-0.2-0.1-0.4-0.3-0.5-0.4c-0.1-0.2-0.1-0.3,0-0.6
			l11.5-57.9c0.1-0.2,0.1-0.4,0.3-0.6c0.1-0.2,0.4-0.3,0.7-0.4c0.3-0.1,0.7-0.2,1.2-0.3c0.5-0.1,1.1-0.1,1.8-0.1
			c0.7,0,1.3,0,1.7,0.1c0.5,0.1,0.8,0.1,1,0.3c0.2,0.1,0.4,0.3,0.4,0.4c0.1,0.2,0.1,0.4,0.1,0.6l-3.5,17.6c-0.1,0.8-0.3,1.5-0.5,2.3
			c-0.2,0.8-0.4,1.5-0.6,2.3c-0.2,0.8-0.4,1.5-0.7,2.2c-0.2,0.7-0.4,1.3-0.6,1.8c0.5-1,1.2-2.1,2.2-3.1c1-1.1,2.1-2.1,3.5-3
			c1.3-0.9,2.8-1.7,4.4-2.3c1.6-0.6,3.3-0.9,5-0.9c1.8,0,3.4,0.3,4.7,0.8c1.3,0.5,2.3,1.3,3.2,2.2c0.8,0.9,1.4,2.1,1.8,3.4
			c0.4,1.3,0.6,2.7,0.6,4.2c0,1-0.1,2-0.2,3c-0.1,1-0.3,2-0.5,3L309.7,1381.3z"/>
		<path class="st1" d="M356.4,1350.3c0,2-0.5,3.8-1.4,5.4c-0.9,1.6-2.4,2.9-4.3,4.1c-2,1.1-4.5,2-7.5,2.6c-3.1,0.6-6.7,0.9-11,0.9
			h-4.6c-0.2,0.9-0.3,1.9-0.4,2.8c-0.1,0.9-0.1,1.7-0.1,2.5c0,2.9,0.7,5.1,2.1,6.6c1.4,1.5,3.7,2.3,7,2.3c1.9,0,3.5-0.1,5-0.4
			c1.5-0.3,2.7-0.6,3.8-0.9c1.1-0.3,2-0.6,2.7-0.9c0.7-0.3,1.2-0.4,1.4-0.4c0.2,0,0.4,0.1,0.6,0.3c0.1,0.2,0.2,0.5,0.2,0.8
			c0,0.3,0,0.6-0.1,1c-0.1,0.4-0.1,0.8-0.3,1.2c-0.1,0.4-0.3,0.8-0.4,1.2c-0.2,0.4-0.4,0.7-0.6,0.9c-0.4,0.3-1,0.7-1.8,1
			c-0.9,0.3-1.9,0.6-3.1,0.9c-1.2,0.3-2.5,0.5-4,0.7c-1.4,0.2-2.9,0.3-4.3,0.3c-2.6,0-4.8-0.3-6.8-0.9c-1.9-0.6-3.6-1.5-4.8-2.7
			c-1.3-1.2-2.2-2.7-2.9-4.5c-0.6-1.8-0.9-3.9-0.9-6.3c0-1.9,0.2-3.9,0.5-6c0.4-2.2,0.9-4.3,1.7-6.4c0.8-2.1,1.8-4.1,3-6.1
			c1.2-1.9,2.7-3.6,4.4-5.1c1.7-1.5,3.7-2.7,6-3.6c2.3-0.9,4.8-1.3,7.6-1.3c2.4,0,4.5,0.3,6.2,0.9c1.7,0.6,3.1,1.4,4.2,2.3
			c1.1,0.9,1.9,2,2.4,3.2C356.2,1348,356.4,1349.1,356.4,1350.3z M349.1,1350.9c0-1.5-0.6-2.7-1.7-3.6c-1.2-0.9-2.8-1.4-4.9-1.4
			c-1.9,0-3.5,0.3-5,1c-1.4,0.7-2.7,1.5-3.8,2.6c-1.1,1.1-2.1,2.4-2.9,3.8c-0.8,1.5-1.4,3-1.9,4.6h4.4c3,0,5.6-0.2,7.6-0.6
			c2.1-0.4,3.7-0.9,4.9-1.5c1.2-0.7,2.1-1.4,2.6-2.3C348.9,1352.8,349.1,1351.9,349.1,1350.9z"/>
		<path class="st1" d="M406.9,1381.3c-0.1,0.5-0.4,0.8-1,1c-0.5,0.2-1.4,0.3-2.6,0.3c-0.6,0-1.1,0-1.4-0.1c-0.4-0.1-0.7-0.1-0.9-0.2
			c-0.2-0.1-0.4-0.2-0.5-0.4c-0.1-0.2-0.1-0.4,0-0.6l1.4-7.4c-0.4,0.9-1,1.9-2,3c-1,1.1-2.1,2.1-3.5,3c-1.4,0.9-2.8,1.7-4.5,2.3
			c-1.6,0.6-3.3,0.9-5,0.9c-2.3,0-4.2-0.4-5.7-1.2c-1.5-0.8-2.7-1.9-3.6-3.2c-0.9-1.3-1.5-2.8-1.8-4.5c-0.3-1.7-0.5-3.4-0.5-5.2
			c0-1.6,0.1-3.4,0.4-5.5c0.3-2.1,0.8-4.1,1.5-6.3c0.7-2.1,1.6-4.2,2.6-6.2c1.1-2,2.4-3.8,3.9-5.4c1.5-1.6,3.3-2.9,5.3-3.8
			c2-1,4.3-1.5,6.9-1.5c2.6,0,4.8,0.5,6.6,1.6c1.8,1,3.5,2.5,4.9,4.3l0.8-3.9c0.1-0.5,0.4-0.8,1-1c0.6-0.2,1.4-0.3,2.6-0.3
			c0.6,0,1.1,0,1.4,0.1c0.4,0,0.7,0.1,0.9,0.2c0.2,0.1,0.4,0.3,0.4,0.4c0,0.2,0.1,0.4,0,0.6L406.9,1381.3z M405.6,1352.5
			c-1.3-2-2.8-3.5-4.4-4.5c-1.6-1-3.4-1.5-5.3-1.5c-1.6,0-3,0.4-4.2,1.1c-1.2,0.7-2.4,1.7-3.3,2.9c-1,1.2-1.8,2.6-2.5,4.1
			c-0.7,1.5-1.3,3.1-1.7,4.8c-0.5,1.6-0.8,3.3-1,4.8c-0.2,1.6-0.3,3-0.3,4.3c0,1,0.1,2,0.2,3c0.2,1,0.5,1.9,0.9,2.7
			c0.4,0.8,1.1,1.5,1.8,2c0.8,0.5,1.8,0.8,3,0.8c1.6,0,3.2-0.4,4.8-1.3c1.6-0.9,3.1-2.1,4.5-3.7c1.4-1.6,2.6-3.4,3.7-5.5
			c1.1-2.1,1.9-4.4,2.4-7L405.6,1352.5z"/>
		<path class="st1" d="M453.9,1350.3c0,2-0.5,3.8-1.4,5.4c-0.9,1.6-2.4,2.9-4.3,4.1c-2,1.1-4.5,2-7.5,2.6c-3.1,0.6-6.7,0.9-11,0.9
			H425c-0.2,0.9-0.4,1.9-0.4,2.8c-0.1,0.9-0.1,1.7-0.1,2.5c0,2.9,0.7,5.1,2.1,6.6c1.4,1.5,3.8,2.3,7,2.3c1.8,0,3.5-0.1,5-0.4
			c1.5-0.3,2.8-0.6,3.8-0.9c1.1-0.3,2-0.6,2.7-0.9c0.7-0.3,1.2-0.4,1.4-0.4c0.3,0,0.5,0.1,0.6,0.3c0.1,0.2,0.2,0.5,0.2,0.8
			c0,0.3,0,0.6-0.1,1c-0.1,0.4-0.1,0.8-0.2,1.2c-0.1,0.4-0.3,0.8-0.5,1.2c-0.2,0.4-0.4,0.7-0.6,0.9c-0.4,0.3-1,0.7-1.8,1
			c-0.9,0.3-1.9,0.6-3.1,0.9c-1.2,0.3-2.5,0.5-4,0.7c-1.5,0.2-2.9,0.3-4.3,0.3c-2.6,0-4.8-0.3-6.8-0.9c-1.9-0.6-3.6-1.5-4.8-2.7
			c-1.3-1.2-2.2-2.7-2.9-4.5c-0.6-1.8-1-3.9-1-6.3c0-1.9,0.2-3.9,0.5-6c0.4-2.2,0.9-4.3,1.7-6.4c0.8-2.1,1.8-4.1,3-6.1
			c1.2-1.9,2.7-3.6,4.4-5.1c1.7-1.5,3.7-2.7,6-3.6c2.3-0.9,4.8-1.3,7.6-1.3c2.4,0,4.5,0.3,6.2,0.9c1.7,0.6,3.1,1.4,4.2,2.3
			c1.1,0.9,1.9,2,2.3,3.2C453.6,1348,453.9,1349.1,453.9,1350.3z M446.6,1350.9c0-1.5-0.6-2.7-1.7-3.6c-1.2-0.9-2.8-1.4-4.9-1.4
			c-1.9,0-3.5,0.3-5,1c-1.4,0.7-2.7,1.5-3.8,2.6c-1.1,1.1-2.1,2.4-2.9,3.8c-0.8,1.5-1.4,3-1.9,4.6h4.4c3,0,5.6-0.2,7.6-0.6
			c2-0.4,3.7-0.9,4.9-1.5c1.2-0.7,2.1-1.4,2.6-2.3C446.3,1352.8,446.6,1351.9,446.6,1350.9z"/>
		<path class="st1" d="M487.2,1384.4c-0.5,2.3-1.2,4.3-2.2,6.1c-1,1.7-2.3,3.2-3.9,4.3c-1.6,1.1-3.5,2-5.7,2.6
			c-2.2,0.6-4.7,0.9-7.4,0.9c-2.4,0-4.6-0.2-6.6-0.7c-2-0.5-3.5-1.1-4.7-1.7c-0.4-0.3-0.7-0.6-0.9-0.8c-0.2-0.3-0.2-0.6-0.2-1.1
			c0-0.2,0-0.4,0-0.7c0-0.3,0-0.6,0.1-0.9c0.1-0.3,0.2-0.7,0.3-1c0.1-0.4,0.2-0.7,0.4-0.9c0.1-0.3,0.3-0.5,0.6-0.7
			c0.2-0.1,0.5-0.2,0.7-0.2c0.3,0,0.8,0.2,1.3,0.5c0.5,0.3,1.2,0.6,2.1,1c0.9,0.4,1.9,0.7,3.2,1c1.3,0.3,2.9,0.5,4.7,0.5
			c1.6,0,3-0.2,4.2-0.5c1.2-0.3,2.3-0.8,3.3-1.5c0.9-0.6,1.7-1.4,2.3-2.4c0.6-1,1-2.1,1.3-3.5c0.5-2.6,1-4.8,1.5-6.5
			c0.5-1.7,0.9-3.1,1.2-4c-0.5,1.1-1.2,2.1-2.2,3.2c-1,1.1-2.2,2.1-3.5,3c-1.3,0.9-2.8,1.6-4.4,2.2c-1.6,0.6-3.2,0.8-4.8,0.8
			c-2.2,0-4-0.4-5.5-1.1c-1.5-0.7-2.7-1.7-3.6-3c-0.9-1.3-1.6-2.7-2-4.5c-0.4-1.7-0.6-3.6-0.6-5.6c0-1.7,0.2-3.6,0.5-5.7
			c0.3-2.1,0.8-4.2,1.5-6.3c0.7-2.1,1.6-4.2,2.7-6.2c1.1-2,2.4-3.8,3.9-5.4c1.5-1.6,3.3-2.8,5.3-3.8c2-1,4.3-1.4,6.8-1.4
			c2.6,0,4.8,0.5,6.6,1.6c1.8,1,3.5,2.5,4.9,4.3l0.8-3.9c0.1-0.5,0.4-0.8,1-1c0.5-0.2,1.4-0.3,2.6-0.3c0.6,0,1.1,0,1.4,0.1
			c0.4,0,0.7,0.1,0.9,0.2c0.2,0.1,0.4,0.3,0.4,0.4c0.1,0.2,0.1,0.4,0,0.6L487.2,1384.4z M486.5,1352.5c-1.4-2-2.8-3.5-4.4-4.5
			c-1.6-1-3.3-1.5-5.3-1.5c-1.6,0-3,0.4-4.2,1.1c-1.2,0.7-2.3,1.7-3.3,2.9c-1,1.2-1.8,2.6-2.5,4.1c-0.7,1.6-1.3,3.2-1.7,4.8
			c-0.5,1.6-0.8,3.2-1,4.9c-0.2,1.6-0.3,3-0.3,4.3c0,1.2,0.1,2.4,0.3,3.4c0.2,1,0.6,1.9,1,2.7c0.5,0.8,1.1,1.3,1.9,1.8
			c0.8,0.4,1.7,0.7,2.8,0.7c1.6,0,3.2-0.4,4.8-1.3c1.6-0.9,3.1-2.1,4.5-3.7c1.4-1.6,2.6-3.4,3.7-5.5c1.1-2.1,1.9-4.4,2.4-7
			L486.5,1352.5z"/>
		<path class="st1" d="M504.7,1381.3c-0.1,0.2-0.2,0.4-0.3,0.6c-0.2,0.2-0.4,0.3-0.7,0.4c-0.3,0.1-0.7,0.2-1.1,0.3
			c-0.5,0.1-1.1,0.1-1.8,0.1c-0.7,0-1.3,0-1.7-0.1c-0.5-0.1-0.8-0.1-1-0.3c-0.3-0.1-0.4-0.3-0.5-0.4c-0.1-0.2-0.1-0.3,0-0.6l7.8-39
			c0-0.2,0.1-0.4,0.3-0.6c0.2-0.2,0.4-0.3,0.7-0.4c0.3-0.1,0.7-0.2,1.2-0.3c0.5-0.1,1.1-0.1,1.8-0.1c0.7,0,1.3,0,1.7,0.1
			c0.4,0.1,0.8,0.2,1,0.3c0.2,0.1,0.4,0.3,0.5,0.4c0.1,0.2,0.1,0.4,0,0.6L504.7,1381.3z M515.9,1329.2c-0.1,0.8-0.3,1.5-0.6,2
			c-0.3,0.5-0.6,1-1,1.3c-0.4,0.3-0.9,0.6-1.5,0.7c-0.6,0.1-1.3,0.2-2.2,0.2c-0.8,0-1.5-0.1-2.1-0.2c-0.5-0.1-1-0.4-1.2-0.7
			c-0.3-0.3-0.4-0.8-0.4-1.3c0-0.5,0-1.2,0.2-2c0.2-0.8,0.4-1.5,0.7-2c0.3-0.5,0.6-1,1-1.4c0.4-0.3,0.9-0.6,1.5-0.7
			c0.6-0.1,1.3-0.2,2.2-0.2c0.8,0,1.5,0.1,2.1,0.2c0.5,0.1,0.9,0.4,1.2,0.7c0.3,0.4,0.4,0.8,0.5,1.4
			C516.2,1327.7,516.1,1328.4,515.9,1329.2z"/>
		<path class="st1" d="M543.9,1344.4c0,0.3,0,0.7-0.1,1.1c-0.1,0.5-0.2,1-0.4,1.4c-0.2,0.5-0.3,0.8-0.6,1.2
			c-0.2,0.3-0.5,0.5-0.7,0.5c-0.3,0-0.8-0.1-1.2-0.4c-0.5-0.3-1.1-0.6-1.8-0.9c-0.7-0.3-1.5-0.7-2.5-0.9c-1-0.3-2.1-0.4-3.5-0.4
			c-1.3,0-2.4,0.2-3.4,0.5c-1,0.4-1.8,0.9-2.5,1.5c-0.7,0.6-1.2,1.3-1.5,2.1c-0.3,0.8-0.5,1.6-0.5,2.5c0,1.1,0.4,2.1,1.2,2.9
			c0.8,0.8,1.7,1.5,2.9,2.1c1.1,0.6,2.4,1.2,3.8,1.8c1.3,0.6,2.6,1.3,3.7,2.2c1.1,0.9,2.1,1.9,2.9,3.1c0.8,1.2,1.1,2.7,1.1,4.5
			c0,2-0.4,3.9-1.2,5.6c-0.8,1.8-1.9,3.3-3.4,4.5c-1.5,1.3-3.3,2.2-5.4,3c-2.1,0.7-4.5,1.1-7.1,1.1c-1.4,0-2.6-0.1-3.8-0.3
			c-1.2-0.2-2.3-0.5-3.2-0.8c-1-0.3-1.8-0.7-2.5-1c-0.7-0.4-1.2-0.8-1.6-1.1c-0.2-0.2-0.4-0.5-0.5-0.7c-0.1-0.2-0.1-0.5-0.1-0.9
			c0-0.2,0-0.5,0-0.8c0-0.3,0.1-0.7,0.2-1c0.1-0.3,0.2-0.7,0.3-1c0.1-0.3,0.2-0.6,0.4-0.9c0.1-0.3,0.3-0.5,0.4-0.6
			c0.1-0.2,0.3-0.3,0.5-0.3c0.3,0,0.8,0.2,1.2,0.6c0.5,0.4,1.1,0.8,1.9,1.2c0.8,0.4,1.8,0.9,3,1.3c1.2,0.4,2.7,0.6,4.4,0.6
			c1.6,0,3-0.2,4.1-0.6c1.1-0.4,2.1-0.9,2.8-1.6c0.8-0.7,1.3-1.4,1.7-2.3c0.4-0.9,0.5-1.8,0.5-2.7c0-1.2-0.4-2.2-1.1-3
			c-0.8-0.8-1.7-1.5-2.8-2.1c-1.1-0.6-2.4-1.2-3.7-1.9c-1.3-0.6-2.6-1.3-3.7-2.1c-1.1-0.8-2.1-1.8-2.9-3c-0.8-1.2-1.2-2.7-1.2-4.6
			c0-1.9,0.4-3.7,1.1-5.3c0.8-1.6,1.8-3.1,3.2-4.2c1.4-1.2,3-2.1,4.9-2.8c1.9-0.7,4.1-1,6.4-1c1.1,0,2.2,0.1,3.2,0.2
			c1,0.2,2,0.4,2.8,0.7c0.9,0.3,1.6,0.6,2.3,0.9c0.6,0.3,1.1,0.6,1.4,0.9C543.8,1343.4,543.9,1343.8,543.9,1344.4z"/>
		<path class="st1" d="M601.4,1355.2c0,2.1-0.2,4.3-0.6,6.5c-0.4,2.2-1,4.4-1.8,6.4c-0.8,2.1-1.9,4-3.1,5.8
			c-1.3,1.8-2.8,3.4-4.5,4.8c-1.7,1.4-3.7,2.4-5.8,3.2c-2.2,0.8-4.6,1.2-7.3,1.2c-2.8,0-5.2-0.3-7.1-1c-2-0.7-3.6-1.6-4.9-2.9
			c-1.3-1.3-2.2-2.8-2.8-4.7c-0.6-1.8-0.9-3.9-0.9-6.3c0-2.1,0.2-4.3,0.6-6.5c0.4-2.2,1-4.4,1.8-6.4c0.8-2.1,1.9-4,3.1-5.8
			c1.3-1.8,2.7-3.4,4.5-4.8c1.7-1.4,3.7-2.4,5.9-3.2c2.2-0.8,4.6-1.2,7.3-1.2c2.8,0,5.2,0.3,7.1,1c2,0.7,3.6,1.6,4.9,2.9
			c1.3,1.3,2.2,2.8,2.8,4.7C601.1,1350.8,601.4,1352.9,601.4,1355.2z M593.9,1355.7c0-1.5-0.1-2.8-0.5-3.9c-0.3-1.1-0.8-2.1-1.5-2.9
			c-0.7-0.8-1.6-1.4-2.8-1.8c-1.2-0.4-2.5-0.7-4.1-0.7c-1.7,0-3.3,0.3-4.7,0.9c-1.4,0.6-2.7,1.5-3.8,2.5c-1.1,1-2.1,2.3-2.9,3.7
			c-0.8,1.4-1.5,2.9-2,4.5c-0.5,1.6-0.9,3.2-1.2,4.9c-0.3,1.7-0.4,3.3-0.4,5c0,1.4,0.1,2.7,0.5,3.9c0.3,1.1,0.8,2.1,1.5,2.9
			c0.7,0.8,1.6,1.4,2.8,1.9c1.1,0.4,2.5,0.7,4.1,0.7c1.8,0,3.3-0.3,4.8-0.9c1.4-0.6,2.7-1.5,3.8-2.5c1.1-1.1,2.1-2.3,2.9-3.7
			c0.8-1.4,1.5-2.9,2-4.6c0.5-1.6,0.9-3.3,1.2-4.9C593.7,1358.9,593.9,1357.3,593.9,1355.7z"/>
		<path class="st1" d="M636.5,1324.5c0,0.1,0,0.3,0,0.5c0,0.2-0.1,0.5-0.1,0.8c0,0.3-0.1,0.6-0.2,0.9c-0.1,0.3-0.2,0.7-0.3,0.9
			c-0.1,0.3-0.2,0.5-0.4,0.7c-0.1,0.2-0.3,0.3-0.5,0.3c-0.2,0-0.5-0.1-0.8-0.2c-0.3-0.1-0.7-0.2-1.1-0.4c-0.4-0.1-0.9-0.3-1.4-0.4
			c-0.5-0.1-1.2-0.2-1.8-0.2c-1.2,0-2.3,0.2-3.2,0.6c-0.9,0.4-1.6,1-2.3,1.7c-0.6,0.8-1.2,1.8-1.6,3c-0.4,1.2-0.8,2.7-1.1,4.3
			l-0.7,3.9h8.7c0.3,0,0.6,0.1,0.8,0.3c0.2,0.2,0.3,0.6,0.3,1.1c0,0.3,0,0.7-0.1,1c-0.1,0.3-0.1,0.7-0.2,1c-0.1,0.3-0.2,0.6-0.3,1
			c-0.1,0.3-0.3,0.6-0.4,0.8c-0.2,0.2-0.3,0.4-0.5,0.6c-0.2,0.1-0.4,0.2-0.6,0.2h-8.8l-7.4,36.9c-0.5,2.4-1.2,4.5-2,6.3
			c-0.8,1.8-1.9,3.2-3.1,4.4c-1.2,1.2-2.6,2-4.2,2.6c-1.6,0.5-3.4,0.8-5.4,0.8c-1.3,0-2.4-0.1-3.2-0.3c-0.8-0.2-1.3-0.4-1.5-0.6
			c-0.1-0.1-0.2-0.3-0.3-0.5c-0.1-0.2-0.1-0.4-0.1-0.7c0-0.1,0-0.3,0.1-0.6c0-0.3,0.1-0.6,0.2-0.9c0.1-0.3,0.1-0.6,0.2-0.9
			c0.1-0.3,0.2-0.7,0.3-0.9c0.1-0.3,0.3-0.5,0.4-0.7c0.1-0.2,0.3-0.3,0.5-0.3c0.2,0,0.4,0,0.6,0.1c0.2,0,0.4,0.1,0.6,0.1
			c0.2,0,0.5,0.1,0.8,0.1c0.3,0.1,0.7,0.1,1.2,0.1c1.2,0,2.3-0.2,3.1-0.6c0.9-0.4,1.6-1,2.3-1.8c0.6-0.8,1.1-1.8,1.6-3
			c0.4-1.2,0.8-2.7,1.1-4.4l7.1-35.4H607c-0.3,0-0.5-0.1-0.7-0.3c-0.2-0.2-0.2-0.5-0.2-1.1c0-0.2,0-0.5,0-0.8c0-0.3,0.1-0.7,0.1-1
			c0.1-0.3,0.2-0.7,0.3-1c0.1-0.3,0.3-0.6,0.4-0.9c0.2-0.3,0.4-0.5,0.6-0.6c0.2-0.2,0.4-0.2,0.7-0.2h5.5l1.1-5.4
			c0.5-2.4,1.1-4.4,2-6.2c0.9-1.8,1.9-3.2,3.1-4.4c1.2-1.2,2.6-2,4.2-2.6c1.6-0.6,3.4-0.9,5.3-0.9c0.6,0,1.3,0,2,0.1
			c0.7,0.1,1.3,0.2,1.9,0.3c0.6,0.1,1.1,0.3,1.6,0.4c0.4,0.2,0.8,0.4,0.9,0.5c0.2,0.1,0.3,0.3,0.4,0.6
			C636.4,1324,636.5,1324.2,636.5,1324.5z"/>
		<path class="st1" d="M690.5,1327.8c0,0.2,0,0.4,0,0.7c0,0.3-0.1,0.6-0.1,1c-0.1,0.3-0.2,0.7-0.3,1.1c-0.1,0.4-0.3,0.7-0.4,1
			c-0.2,0.3-0.4,0.5-0.6,0.7c-0.2,0.2-0.5,0.3-0.8,0.3h-15.8l-9.8,48.6c-0.1,0.2-0.2,0.4-0.3,0.6c-0.2,0.2-0.4,0.3-0.7,0.4
			c-0.3,0.1-0.7,0.2-1.2,0.3c-0.5,0.1-1.1,0.1-1.8,0.1c-0.7,0-1.3,0-1.8-0.1c-0.5-0.1-0.8-0.2-1.1-0.3c-0.3-0.1-0.4-0.2-0.5-0.4
			c-0.1-0.2-0.1-0.4,0-0.6l9.7-48.6h-15.7c-0.4,0-0.7-0.1-0.8-0.4c-0.1-0.3-0.2-0.6-0.2-1.1c0-0.2,0-0.5,0.1-0.8
			c0-0.3,0.1-0.6,0.2-1c0.1-0.4,0.2-0.7,0.3-1.1c0.1-0.3,0.3-0.7,0.4-1c0.2-0.3,0.4-0.6,0.6-0.7c0.2-0.2,0.5-0.3,0.8-0.3h39
			c0.4,0,0.6,0.1,0.8,0.4C690.4,1327,690.5,1327.4,690.5,1327.8z"/>
		<path class="st1" d="M716.2,1381.3c-0.1,0.2-0.2,0.4-0.3,0.6c-0.2,0.2-0.4,0.3-0.7,0.4c-0.3,0.1-0.7,0.2-1.2,0.3
			c-0.5,0.1-1.1,0.1-1.8,0.1c-0.7,0-1.3,0-1.7-0.1c-0.5-0.1-0.8-0.1-1-0.3c-0.3-0.1-0.4-0.3-0.5-0.4c-0.1-0.2-0.1-0.3-0.1-0.6
			l4.8-24.1c0.1-0.8,0.3-1.6,0.4-2.5c0.1-0.9,0.1-1.7,0.1-2.4c0-0.8-0.1-1.6-0.3-2.3c-0.2-0.7-0.5-1.3-0.8-1.8
			c-0.4-0.5-0.9-0.9-1.5-1.2c-0.6-0.3-1.4-0.4-2.3-0.4c-1.5,0-3.1,0.4-4.7,1.3c-1.6,0.9-3.1,2.1-4.5,3.7c-1.4,1.6-2.6,3.4-3.7,5.6
			c-1.1,2.1-1.9,4.4-2.4,6.9l-3.5,17.3c-0.1,0.2-0.2,0.4-0.3,0.6c-0.1,0.2-0.4,0.3-0.7,0.4c-0.3,0.1-0.7,0.2-1.1,0.3
			c-0.5,0.1-1.1,0.1-1.8,0.1c-0.7,0-1.3,0-1.8-0.1c-0.4-0.1-0.8-0.1-1-0.3c-0.3-0.1-0.4-0.3-0.5-0.4c-0.1-0.2-0.1-0.3,0-0.6
			l11.5-57.9c0.1-0.2,0.1-0.4,0.3-0.6c0.1-0.2,0.4-0.3,0.7-0.4c0.3-0.1,0.7-0.2,1.2-0.3c0.5-0.1,1.1-0.1,1.8-0.1
			c0.7,0,1.3,0,1.7,0.1c0.4,0.1,0.8,0.1,1,0.3c0.2,0.1,0.4,0.3,0.5,0.4c0.1,0.2,0.1,0.4,0,0.6l-3.5,17.6c-0.1,0.8-0.3,1.5-0.5,2.3
			c-0.2,0.8-0.4,1.5-0.6,2.3c-0.2,0.8-0.4,1.5-0.7,2.2c-0.2,0.7-0.4,1.3-0.6,1.8c0.5-1,1.2-2.1,2.2-3.1c1-1.1,2.1-2.1,3.5-3
			c1.3-0.9,2.8-1.7,4.4-2.3c1.6-0.6,3.2-0.9,5-0.9c1.8,0,3.4,0.3,4.7,0.8c1.3,0.5,2.4,1.3,3.2,2.2c0.8,0.9,1.4,2.1,1.8,3.4
			c0.4,1.3,0.6,2.7,0.6,4.2c0,1-0.1,2-0.2,3c-0.1,1-0.3,2-0.5,3L716.2,1381.3z"/>
		<path class="st1" d="M763,1350.3c0,2-0.5,3.8-1.4,5.4c-0.9,1.6-2.4,2.9-4.3,4.1c-2,1.1-4.5,2-7.5,2.6c-3.1,0.6-6.7,0.9-11,0.9
			h-4.6c-0.2,0.9-0.3,1.9-0.4,2.8c-0.1,0.9-0.1,1.7-0.1,2.5c0,2.9,0.7,5.1,2.2,6.6c1.4,1.5,3.7,2.3,6.9,2.3c1.8,0,3.5-0.1,5-0.4
			c1.5-0.3,2.8-0.6,3.8-0.9c1.1-0.3,2-0.6,2.7-0.9c0.7-0.3,1.2-0.4,1.4-0.4c0.3,0,0.5,0.1,0.6,0.3c0.1,0.2,0.2,0.5,0.2,0.8
			c0,0.3,0,0.6-0.1,1c-0.1,0.4-0.1,0.8-0.3,1.2c-0.1,0.4-0.3,0.8-0.5,1.2c-0.2,0.4-0.4,0.7-0.6,0.9c-0.3,0.3-1,0.7-1.8,1
			c-0.9,0.3-1.9,0.6-3.1,0.9c-1.2,0.3-2.5,0.5-4,0.7c-1.4,0.2-2.9,0.3-4.3,0.3c-2.6,0-4.8-0.3-6.8-0.9c-1.9-0.6-3.6-1.5-4.8-2.7
			c-1.3-1.2-2.3-2.7-2.9-4.5c-0.6-1.8-1-3.9-1-6.3c0-1.9,0.2-3.9,0.5-6c0.4-2.2,0.9-4.3,1.7-6.4c0.8-2.1,1.8-4.1,3-6.1
			c1.2-1.9,2.7-3.6,4.4-5.1c1.7-1.5,3.7-2.7,6-3.6c2.3-0.9,4.8-1.3,7.6-1.3c2.4,0,4.5,0.3,6.2,0.9c1.7,0.6,3.1,1.4,4.2,2.3
			c1.1,0.9,1.9,2,2.4,3.2C762.7,1348,763,1349.1,763,1350.3z M755.7,1350.9c0-1.5-0.6-2.7-1.7-3.6c-1.2-0.9-2.8-1.4-4.9-1.4
			c-1.9,0-3.5,0.3-5,1c-1.4,0.7-2.7,1.5-3.8,2.6c-1.1,1.1-2.1,2.4-2.9,3.8c-0.8,1.5-1.4,3-1.9,4.6h4.4c3,0,5.6-0.2,7.6-0.6
			c2-0.4,3.7-0.9,4.9-1.5c1.2-0.7,2.1-1.4,2.6-2.3C755.4,1352.8,755.7,1351.9,755.7,1350.9z"/>
		<path class="st1" d="M831.2,1346.5c0,1.9-0.1,3.8-0.4,5.9c-0.3,2-0.7,4.1-1.2,6.1c-0.6,2-1.3,4-2.2,6c-0.9,2-2,3.8-3.3,5.6
			c-1.3,1.8-2.8,3.4-4.5,4.9c-1.7,1.5-3.6,2.8-5.8,3.9c-2.2,1.1-4.6,2-7.2,2.6c-2.7,0.6-5.9,0.9-9.6,0.9h-12.4c-0.4,0-0.7,0-1.1-0.2
			c-0.3-0.1-0.6-0.3-0.8-0.5c-0.2-0.2-0.4-0.5-0.5-0.9c-0.1-0.4-0.1-0.9,0.1-1.5l10-50c0.2-1.1,0.7-1.9,1.3-2.4
			c0.7-0.4,1.5-0.7,2.3-0.7h11.8c4.3,0,7.9,0.4,10.7,1.4c2.8,0.9,5.2,2.2,7.1,4c1.9,1.7,3.3,3.8,4.2,6.3
			C830.7,1340.5,831.2,1343.3,831.2,1346.5z M823.3,1347.2c0-2.1-0.3-4.1-0.9-5.9c-0.6-1.8-1.5-3.3-2.8-4.6c-1.3-1.3-2.9-2.3-4.9-3
			c-2-0.7-4.6-1.1-7.9-1.1h-7.8l-8.7,43.6h7.7c3.5,0,6.5-0.4,8.8-1.3c2.4-0.8,4.5-2,6.3-3.5c1.8-1.5,3.4-3.2,4.6-5.1
			c1.3-1.9,2.3-4,3.1-6.1c0.8-2.1,1.4-4.3,1.8-6.6C823.1,1351.4,823.3,1349.2,823.3,1347.2z"/>
		<path class="st1" d="M875.4,1339.5c0,1.5-0.2,3.1-0.5,4.8c-0.4,1.7-0.9,3.3-1.7,4.9c-0.8,1.6-1.8,3.1-3,4.6
			c-1.2,1.4-2.7,2.7-4.4,3.8c-1.7,1.1-3.7,2-5.9,2.6c-2.2,0.6-4.8,0.9-7.8,0.9h-7.7l-4,20.2c-0.1,0.2-0.1,0.4-0.3,0.6
			c-0.1,0.2-0.4,0.3-0.7,0.4c-0.3,0.1-0.7,0.2-1.2,0.3c-0.5,0.1-1.1,0.1-1.8,0.1c-0.7,0-1.2,0-1.7-0.1c-0.5-0.1-0.8-0.1-1.1-0.2
			c-0.3-0.1-0.5-0.2-0.6-0.4c-0.1-0.2-0.1-0.4-0.1-0.6l10.3-51.8c0.2-1.1,0.7-2,1.4-2.5c0.7-0.5,1.6-0.7,2.5-0.7h11.1
			c1.4,0,2.7,0,3.8,0.2c1.1,0.1,2.2,0.3,3.2,0.5c1.6,0.3,3,0.9,4.2,1.6c1.3,0.7,2.3,1.6,3.2,2.7c0.9,1,1.5,2.3,2,3.7
			C875.2,1336.3,875.4,1337.8,875.4,1339.5z M867.5,1340.3c0-1.8-0.4-3.3-1.3-4.6c-0.9-1.3-2.3-2.2-4.1-2.7
			c-0.7-0.2-1.5-0.3-2.3-0.4c-0.8-0.1-1.7-0.1-2.7-0.1h-7l-4.4,22.5h7.1c2.1,0,3.8-0.2,5.2-0.7c1.4-0.5,2.7-1.1,3.7-1.8
			c1.1-0.8,2-1.6,2.7-2.6c0.7-1,1.3-2.1,1.8-3.1c0.5-1.1,0.8-2.2,1-3.3C867.4,1342.3,867.5,1341.2,867.5,1340.3z"/>
		<path class="st1" d="M911.5,1330.6c0,0.2,0,0.5,0,0.8c0,0.3-0.1,0.6-0.2,1c-0.1,0.3-0.2,0.7-0.3,1c-0.1,0.4-0.2,0.7-0.4,1
			c-0.1,0.3-0.3,0.5-0.5,0.7c-0.2,0.2-0.4,0.3-0.6,0.3c-0.3,0-0.8-0.2-1.3-0.6c-0.6-0.4-1.3-0.8-2.2-1.2c-0.9-0.4-1.9-0.8-3.1-1.2
			c-1.2-0.4-2.6-0.6-4.2-0.6c-1.8,0-3.3,0.3-4.6,0.8c-1.3,0.5-2.4,1.3-3.3,2.2c-0.9,0.9-1.6,1.9-2,3.1c-0.5,1.2-0.7,2.4-0.7,3.6
			c0,1.3,0.3,2.4,0.8,3.3c0.6,1,1.3,1.8,2.2,2.6c0.9,0.8,2,1.5,3.1,2.2c1.2,0.7,2.4,1.4,3.6,2.1c1.2,0.7,2.4,1.5,3.6,2.3
			c1.2,0.8,2.2,1.8,3.1,2.9c0.9,1.1,1.7,2.3,2.2,3.7c0.6,1.4,0.8,3,0.8,4.9c0,2.4-0.5,4.7-1.5,6.9c-1,2.1-2.4,4-4.3,5.6
			c-1.9,1.6-4.1,2.9-6.7,3.8c-2.6,0.9-5.6,1.4-8.8,1.4c-1.8,0-3.4-0.2-4.9-0.5c-1.5-0.3-2.9-0.7-4.1-1.1c-1.2-0.4-2.2-0.9-3.1-1.4
			c-0.8-0.5-1.5-0.9-1.8-1.3c-0.4-0.4-0.6-0.9-0.6-1.7c0-0.2,0-0.4,0.1-0.7c0.1-0.3,0.1-0.7,0.2-1c0.1-0.4,0.2-0.7,0.3-1.1
			c0.1-0.4,0.2-0.7,0.4-1c0.2-0.3,0.3-0.5,0.5-0.7c0.2-0.2,0.4-0.3,0.7-0.3c0.5,0,1,0.2,1.7,0.7c0.7,0.5,1.6,1,2.6,1.5
			c1,0.5,2.2,1,3.7,1.5c1.4,0.4,3.1,0.7,5,0.7c2,0,3.8-0.3,5.4-0.8c1.6-0.6,2.9-1.3,4-2.3c1.1-1,1.9-2.1,2.5-3.4
			c0.6-1.3,0.9-2.7,0.9-4.2c0-1.3-0.3-2.4-0.8-3.4c-0.5-1-1.3-1.8-2.2-2.6c-0.9-0.8-1.9-1.5-3.1-2.2c-1.2-0.7-2.4-1.4-3.6-2.1
			c-1.2-0.7-2.4-1.5-3.5-2.3c-1.2-0.8-2.2-1.8-3.1-2.9c-0.9-1.1-1.6-2.3-2.2-3.7c-0.6-1.4-0.9-3-0.9-4.9c0-2.3,0.5-4.4,1.3-6.4
			c0.9-2,2.2-3.7,3.8-5.2c1.6-1.5,3.6-2.7,6-3.6c2.3-0.9,5-1.3,7.8-1.3c1.4,0,2.7,0.1,4,0.3c1.2,0.2,2.4,0.5,3.4,0.8
			c1,0.3,1.9,0.7,2.6,1.1c0.7,0.4,1.2,0.7,1.5,1c0.2,0.3,0.4,0.5,0.6,0.8C911.5,1329.8,911.5,1330.2,911.5,1330.6z"/>
		<path class="st1" d="M964.6,1330.6c0,0.2,0,0.5,0,0.8c0,0.3-0.1,0.6-0.1,1c-0.1,0.3-0.2,0.7-0.3,1c-0.1,0.4-0.2,0.7-0.4,1
			c-0.1,0.3-0.3,0.5-0.5,0.7c-0.2,0.2-0.4,0.3-0.6,0.3c-0.3,0-0.8-0.2-1.3-0.6c-0.6-0.4-1.3-0.8-2.2-1.2c-0.9-0.4-1.9-0.8-3.1-1.2
			c-1.2-0.4-2.6-0.6-4.2-0.6c-1.8,0-3.3,0.3-4.6,0.8c-1.3,0.5-2.4,1.3-3.3,2.2c-0.9,0.9-1.6,1.9-2,3.1c-0.5,1.2-0.7,2.4-0.7,3.6
			c0,1.3,0.3,2.4,0.8,3.3c0.6,1,1.3,1.8,2.2,2.6c0.9,0.8,1.9,1.5,3.1,2.2c1.2,0.7,2.4,1.4,3.6,2.1c1.2,0.7,2.4,1.5,3.6,2.3
			c1.2,0.8,2.2,1.8,3.1,2.9c0.9,1.1,1.6,2.3,2.2,3.7c0.6,1.4,0.8,3,0.8,4.9c0,2.4-0.5,4.7-1.5,6.9c-1,2.1-2.4,4-4.3,5.6
			c-1.9,1.6-4.1,2.9-6.7,3.8c-2.6,0.9-5.6,1.4-8.8,1.4c-1.8,0-3.4-0.2-4.9-0.5c-1.5-0.3-2.9-0.7-4.1-1.1c-1.2-0.4-2.2-0.9-3.1-1.4
			c-0.8-0.5-1.5-0.9-1.8-1.3c-0.4-0.4-0.6-0.9-0.6-1.7c0-0.2,0-0.4,0.1-0.7c0-0.3,0.1-0.7,0.2-1c0.1-0.4,0.2-0.7,0.3-1.1
			c0.1-0.4,0.2-0.7,0.4-1c0.2-0.3,0.3-0.5,0.5-0.7c0.2-0.2,0.4-0.3,0.7-0.3c0.5,0,1,0.2,1.7,0.7c0.7,0.5,1.6,1,2.6,1.5
			c1,0.5,2.2,1,3.7,1.5c1.4,0.4,3.1,0.7,5,0.7c2,0,3.8-0.3,5.4-0.8c1.6-0.6,2.9-1.3,4-2.3c1.1-1,1.9-2.1,2.5-3.4
			c0.6-1.3,0.9-2.7,0.9-4.2c0-1.3-0.3-2.4-0.8-3.4c-0.5-1-1.3-1.8-2.2-2.6c-0.9-0.8-1.9-1.5-3.1-2.2c-1.2-0.7-2.4-1.4-3.6-2.1
			c-1.2-0.7-2.4-1.5-3.5-2.3c-1.2-0.8-2.2-1.8-3.1-2.9c-0.9-1.1-1.6-2.3-2.2-3.7c-0.6-1.4-0.8-3-0.8-4.9c0-2.3,0.5-4.4,1.3-6.4
			c0.9-2,2.2-3.7,3.8-5.2c1.6-1.5,3.6-2.7,6-3.6c2.3-0.9,5-1.3,7.9-1.3c1.4,0,2.7,0.1,4,0.3c1.3,0.2,2.4,0.5,3.4,0.8
			c1,0.3,1.9,0.7,2.6,1.1c0.7,0.4,1.2,0.7,1.5,1c0.3,0.3,0.5,0.5,0.6,0.8C964.6,1329.8,964.6,1330.2,964.6,1330.6z"/>
		<path class="st1" d="M1003.6,1355.2c0,2.1-0.2,4.3-0.6,6.5c-0.4,2.2-1,4.4-1.8,6.4c-0.8,2.1-1.9,4-3.1,5.8
			c-1.3,1.8-2.8,3.4-4.5,4.8c-1.7,1.4-3.7,2.4-5.9,3.2c-2.2,0.8-4.6,1.2-7.3,1.2c-2.8,0-5.1-0.3-7.1-1c-2-0.7-3.6-1.6-4.9-2.9
			c-1.3-1.3-2.2-2.8-2.8-4.7c-0.6-1.8-0.9-3.9-0.9-6.3c0-2.1,0.2-4.3,0.6-6.5c0.4-2.2,1-4.4,1.8-6.4c0.8-2.1,1.9-4,3.1-5.8
			c1.3-1.8,2.7-3.4,4.5-4.8c1.7-1.4,3.7-2.4,5.9-3.2c2.2-0.8,4.6-1.2,7.3-1.2c2.8,0,5.1,0.3,7.1,1c2,0.7,3.6,1.6,4.9,2.9
			c1.3,1.3,2.2,2.8,2.8,4.7C1003.3,1350.8,1003.6,1352.9,1003.6,1355.2z M996.1,1355.7c0-1.5-0.1-2.8-0.4-3.9
			c-0.3-1.1-0.8-2.1-1.5-2.9c-0.7-0.8-1.6-1.4-2.8-1.8c-1.1-0.4-2.5-0.7-4.1-0.7c-1.7,0-3.3,0.3-4.7,0.9c-1.4,0.6-2.7,1.5-3.8,2.5
			c-1.1,1-2.1,2.3-2.9,3.7c-0.8,1.4-1.5,2.9-2,4.5c-0.5,1.6-0.9,3.2-1.2,4.9c-0.3,1.7-0.4,3.3-0.4,5c0,1.4,0.2,2.7,0.5,3.9
			c0.3,1.1,0.8,2.1,1.5,2.9c0.7,0.8,1.6,1.4,2.8,1.9c1.1,0.4,2.5,0.7,4.1,0.7c1.8,0,3.3-0.3,4.7-0.9c1.4-0.6,2.7-1.5,3.8-2.5
			c1.1-1.1,2.1-2.3,2.9-3.7c0.8-1.4,1.5-2.9,2-4.6c0.5-1.6,0.9-3.3,1.2-4.9C996,1358.9,996.1,1357.3,996.1,1355.7z"/>
		<path class="st1" d="M1040.3,1345.7c0,0.5,0,1.1-0.1,1.6c-0.1,0.5-0.3,1.1-0.5,1.5c-0.2,0.5-0.4,0.9-0.7,1.2
			c-0.3,0.3-0.6,0.5-0.9,0.5c-0.4,0-0.8-0.2-1.3-0.6c-0.4-0.4-1-0.9-1.7-1.4c-0.7-0.5-1.6-1-2.7-1.4c-1.1-0.4-2.5-0.7-4.1-0.7
			c-1.8,0-3.5,0.4-4.9,1.1c-1.4,0.8-2.7,1.8-3.7,3c-1.1,1.2-1.9,2.6-2.6,4.2c-0.7,1.6-1.2,3.1-1.7,4.7c-0.4,1.6-0.7,3.1-0.9,4.6
			c-0.2,1.5-0.3,2.8-0.3,3.9c0,3,0.7,5.2,2,6.8c1.3,1.5,3.2,2.3,5.8,2.3c1.9,0,3.5-0.2,4.8-0.7c1.3-0.5,2.5-1,3.4-1.6
			c0.9-0.6,1.7-1.1,2.3-1.6c0.6-0.5,1.1-0.7,1.6-0.7c0.2,0,0.4,0.1,0.5,0.3c0.1,0.2,0.2,0.5,0.2,0.9c0,0.4,0,0.8-0.1,1.2
			c-0.1,0.5-0.1,1-0.3,1.5c-0.1,0.5-0.3,1-0.5,1.4c-0.2,0.4-0.5,0.8-0.8,1.2c-0.3,0.4-1,0.8-1.8,1.3c-0.9,0.5-1.9,1-3,1.4
			c-1.1,0.4-2.4,0.8-3.7,1c-1.3,0.3-2.7,0.4-4.1,0.4c-4.7,0-8.1-1.2-10.4-3.6c-2.3-2.4-3.5-5.9-3.5-10.6c0-1.8,0.2-3.7,0.5-5.8
			c0.3-2.1,0.8-4.2,1.5-6.3c0.7-2.1,1.6-4.2,2.8-6.2c1.1-2,2.5-3.8,4.2-5.3c1.6-1.6,3.5-2.8,5.7-3.7c2.2-0.9,4.6-1.4,7.4-1.4
			c1.2,0,2.3,0.1,3.3,0.3c1.1,0.2,2.1,0.4,3,0.8c0.9,0.3,1.8,0.7,2.6,1.2c0.8,0.5,1.4,0.9,1.8,1.3c0.4,0.4,0.7,0.7,0.8,1
			C1040.3,1345.1,1040.3,1345.4,1040.3,1345.7z"/>
		<path class="st1" d="M1046.6,1381.3c-0.1,0.2-0.1,0.4-0.3,0.6c-0.1,0.2-0.4,0.3-0.7,0.4c-0.3,0.1-0.7,0.2-1.1,0.3
			c-0.5,0.1-1.1,0.1-1.8,0.1c-0.7,0-1.3,0-1.7-0.1c-0.5-0.1-0.8-0.1-1-0.3c-0.3-0.1-0.4-0.3-0.5-0.4c-0.1-0.2-0.1-0.3,0-0.6l7.8-39
			c0-0.2,0.1-0.4,0.3-0.6c0.1-0.2,0.4-0.3,0.6-0.4c0.3-0.1,0.7-0.2,1.2-0.3c0.5-0.1,1.1-0.1,1.8-0.1c0.7,0,1.3,0,1.7,0.1
			c0.4,0.1,0.8,0.2,1,0.3c0.2,0.1,0.4,0.3,0.5,0.4c0.1,0.2,0.1,0.4,0.1,0.6L1046.6,1381.3z M1057.9,1329.2c-0.1,0.8-0.3,1.5-0.6,2
			c-0.3,0.5-0.6,1-1,1.3c-0.4,0.3-0.9,0.6-1.5,0.7c-0.6,0.1-1.3,0.2-2.2,0.2c-0.8,0-1.5-0.1-2.1-0.2c-0.5-0.1-1-0.4-1.2-0.7
			c-0.3-0.3-0.4-0.8-0.4-1.3c0-0.5,0-1.2,0.2-2c0.2-0.8,0.4-1.5,0.7-2c0.3-0.5,0.6-1,1-1.4c0.4-0.3,0.9-0.6,1.5-0.7
			c0.6-0.1,1.3-0.2,2.2-0.2c0.8,0,1.5,0.1,2.1,0.2c0.5,0.1,0.9,0.4,1.2,0.7c0.3,0.4,0.4,0.8,0.5,1.4
			C1058.1,1327.7,1058.1,1328.4,1057.9,1329.2z"/>
		<path class="st1" d="M1093.6,1350.3c0,2-0.5,3.8-1.4,5.4c-0.9,1.6-2.4,2.9-4.3,4.1c-2,1.1-4.5,2-7.5,2.6c-3.1,0.6-6.7,0.9-11,0.9
			h-4.6c-0.2,0.9-0.3,1.9-0.4,2.8c-0.1,0.9-0.1,1.7-0.1,2.5c0,2.9,0.7,5.1,2.2,6.6c1.4,1.5,3.7,2.3,6.9,2.3c1.8,0,3.5-0.1,5-0.4
			c1.5-0.3,2.8-0.6,3.8-0.9c1.1-0.3,2-0.6,2.7-0.9c0.7-0.3,1.2-0.4,1.4-0.4c0.3,0,0.5,0.1,0.6,0.3c0.1,0.2,0.2,0.5,0.2,0.8
			c0,0.3,0,0.6-0.1,1c-0.1,0.4-0.1,0.8-0.2,1.2c-0.1,0.4-0.3,0.8-0.5,1.2c-0.2,0.4-0.4,0.7-0.6,0.9c-0.3,0.3-1,0.7-1.8,1
			c-0.9,0.3-1.9,0.6-3.2,0.9c-1.2,0.3-2.5,0.5-4,0.7c-1.5,0.2-2.9,0.3-4.3,0.3c-2.6,0-4.8-0.3-6.8-0.9c-1.9-0.6-3.5-1.5-4.8-2.7
			c-1.3-1.2-2.3-2.7-2.9-4.5c-0.6-1.8-1-3.9-1-6.3c0-1.9,0.2-3.9,0.5-6c0.4-2.2,0.9-4.3,1.7-6.4c0.8-2.1,1.8-4.1,3-6.1
			c1.2-1.9,2.7-3.6,4.4-5.1c1.7-1.5,3.7-2.7,6-3.6c2.3-0.9,4.8-1.3,7.6-1.3c2.4,0,4.5,0.3,6.2,0.9c1.7,0.6,3.1,1.4,4.2,2.3
			c1.1,0.9,1.9,2,2.4,3.2C1093.3,1348,1093.6,1349.1,1093.6,1350.3z M1086.3,1350.9c0-1.5-0.6-2.7-1.7-3.6c-1.2-0.9-2.8-1.4-4.9-1.4
			c-1.9,0-3.5,0.3-5,1c-1.4,0.7-2.7,1.5-3.8,2.6c-1.1,1.1-2.1,2.4-2.9,3.8c-0.8,1.5-1.4,3-1.9,4.6h4.4c3,0,5.6-0.2,7.6-0.6
			c2-0.4,3.7-0.9,4.9-1.5c1.2-0.7,2.1-1.4,2.6-2.3C1086,1352.8,1086.3,1351.9,1086.3,1350.9z"/>
		<path class="st1" d="M1122.6,1342.7c0,0.3,0,0.5,0,0.8c0,0.3-0.1,0.6-0.2,0.9c-0.1,0.3-0.2,0.6-0.4,0.9c-0.1,0.3-0.3,0.6-0.4,0.9
			c-0.2,0.2-0.4,0.4-0.5,0.6c-0.2,0.1-0.4,0.2-0.7,0.2h-10l-4.4,21.7c-0.1,0.6-0.2,1.3-0.3,2c-0.1,0.8-0.1,1.4-0.1,1.9
			c0,1.5,0.3,2.5,0.9,3.2c0.6,0.7,1.6,1,3,1c0.8,0,1.5-0.1,2-0.2c0.6-0.1,1.1-0.3,1.5-0.4c0.4-0.1,0.8-0.3,1.1-0.4
			c0.3-0.1,0.6-0.2,0.8-0.2c0.2,0,0.4,0.1,0.5,0.2c0.1,0.2,0.2,0.5,0.2,0.9c0,0.4,0,0.8-0.1,1.2c-0.1,0.4-0.2,0.9-0.3,1.3
			c-0.1,0.4-0.3,0.8-0.4,1.2c-0.2,0.3-0.4,0.6-0.6,0.8c-0.2,0.2-0.6,0.4-1,0.6c-0.5,0.2-1,0.4-1.6,0.5c-0.6,0.2-1.3,0.3-1.9,0.4
			c-0.7,0.1-1.3,0.1-2,0.1c-1.6,0-3-0.2-4.2-0.5c-1.2-0.4-2.2-0.9-3-1.6c-0.8-0.7-1.4-1.7-1.8-2.8c-0.4-1.1-0.6-2.5-0.6-4
			c0-0.3,0-0.7,0-1.1c0-0.4,0.1-0.9,0.2-1.3c0.1-0.5,0.1-0.9,0.2-1.4c0.1-0.5,0.1-0.9,0.2-1.3l4.4-21.9h-5.4c-0.3,0-0.6-0.1-0.7-0.3
			c-0.2-0.2-0.2-0.6-0.2-1.1c0-0.4,0-0.9,0.1-1.4c0.1-0.5,0.2-1,0.4-1.5c0.2-0.5,0.4-0.9,0.7-1.2c0.3-0.3,0.6-0.5,1-0.5h5.5l1.9-9.3
			c0-0.2,0.1-0.4,0.3-0.6c0.2-0.2,0.4-0.3,0.7-0.4c0.3-0.1,0.7-0.2,1.2-0.3c0.5-0.1,1.1-0.1,1.8-0.1c0.7,0,1.3,0,1.7,0.1
			c0.4,0.1,0.8,0.2,1,0.3c0.2,0.1,0.4,0.3,0.5,0.4c0.1,0.2,0.1,0.4,0.1,0.6l-1.9,9.3h10c0.4,0,0.7,0.2,0.9,0.5
			C1122.5,1342,1122.6,1342.3,1122.6,1342.7z"/>
		<path class="st1" d="M1158.4,1342c0,0.3,0,0.6-0.1,1c-0.1,0.3-0.2,0.6-0.3,0.9c-1,2.6-2,5.4-3.1,8.2c-1.1,2.9-2.4,5.8-3.9,8.9
			c-1.5,3.1-3.3,6.3-5.3,9.7c-2,3.4-4.4,6.9-7.2,10.7l-11.2,15.3c-0.2,0.2-0.4,0.4-0.7,0.6c-0.3,0.2-0.6,0.3-1,0.5
			c-0.4,0.1-0.8,0.2-1.4,0.3c-0.5,0-1.2,0.1-1.9,0.1c-0.8,0-1.4,0-1.9-0.1c-0.5-0.1-0.9-0.2-1.2-0.4c-0.3-0.2-0.4-0.4-0.3-0.7
			c0-0.3,0.2-0.6,0.5-1l10.6-13.6l-6.5-38.1c-0.1-0.3-0.1-0.7-0.1-0.9c0-0.3,0-0.5,0-0.7c0-0.3,0.1-0.6,0.2-0.8
			c0.1-0.2,0.3-0.4,0.6-0.5c0.3-0.1,0.7-0.2,1.1-0.3c0.5-0.1,1.1-0.1,1.8-0.1c0.8,0,1.4,0,1.8,0.1c0.4,0,0.8,0.1,1,0.2
			c0.2,0.1,0.4,0.3,0.5,0.4c0.1,0.2,0.2,0.5,0.2,0.7l5.1,31.8h0.1c1.8-2.5,3.4-5.1,4.9-7.7c1.5-2.6,2.8-5.2,4-7.9
			c1.2-2.7,2.3-5.4,3.4-8.1c1-2.7,2-5.5,2.9-8.3c0.1-0.2,0.2-0.4,0.3-0.6c0.2-0.2,0.4-0.3,0.7-0.4c0.3-0.1,0.7-0.2,1.2-0.2
			c0.5-0.1,1.2-0.1,2-0.1c1.3,0,2.2,0.1,2.6,0.3C1158.2,1341.4,1158.4,1341.7,1158.4,1342z"/>
		<path class="st1" d="M1226.3,1376.6c-0.1,0.6-0.2,1.1-0.5,1.5c-0.3,0.4-0.6,0.8-0.9,1c-0.3,0.3-0.7,0.4-1.1,0.6
			c-0.4,0.1-0.8,0.2-1.1,0.2h-2.8c-0.8,0-1.4-0.1-1.9-0.3c-0.5-0.2-1-0.5-1.4-0.9c-0.4-0.4-0.7-1-1-1.7c-0.3-0.7-0.6-1.5-1-2.5
			l-10.5-29.9c-0.7-2.1-1.4-4.3-2.1-6.4c-0.7-2.1-1.4-4.2-2.1-6.4h-0.1c-0.4,2.4-0.8,4.7-1.2,7.1c-0.4,2.3-0.9,4.7-1.3,7l-6.5,32.7
			c-0.1,0.2-0.2,0.4-0.3,0.6c-0.2,0.2-0.4,0.3-0.7,0.4c-0.3,0.1-0.7,0.2-1.2,0.3c-0.5,0.1-1,0.1-1.7,0.1c-0.7,0-1.2,0-1.7-0.1
			c-0.4-0.1-0.8-0.2-1-0.3c-0.2-0.1-0.4-0.2-0.5-0.4c-0.1-0.2-0.1-0.4,0-0.6l10.3-51.7c0.2-1.2,0.7-2,1.5-2.5
			c0.7-0.5,1.5-0.7,2.2-0.7h3.4c0.7,0,1.3,0.1,1.8,0.2c0.5,0.1,1,0.4,1.3,0.8c0.4,0.4,0.7,0.9,1,1.5c0.3,0.6,0.6,1.3,1,2.3
			l10.6,30.3c0.7,1.9,1.3,3.7,2,5.6c0.7,1.9,1.3,3.8,1.9,5.7h0.1c0.4-2.4,0.8-4.8,1.3-7.4c0.5-2.5,0.9-5,1.4-7.4l6.1-30.4
			c0.1-0.2,0.2-0.4,0.3-0.6c0.1-0.2,0.4-0.3,0.7-0.4c0.3-0.1,0.7-0.2,1.1-0.3c0.4-0.1,1-0.1,1.7-0.1c0.7,0,1.2,0,1.7,0.1
			c0.4,0.1,0.8,0.2,1,0.3c0.3,0.1,0.4,0.2,0.5,0.4c0.1,0.2,0.1,0.4,0.1,0.6L1226.3,1376.6z"/>
		<path class="st1" d="M1273.8,1347.5c0,2-0.5,3.8-1.4,5.4c-0.9,1.6-2.4,2.9-4.3,4.1c-2,1.1-4.5,2-7.5,2.6c-3.1,0.6-6.7,0.9-11,0.9
			h-4.6c-0.2,0.9-0.3,1.9-0.4,2.8c-0.1,0.9-0.1,1.7-0.1,2.5c0,2.9,0.7,5.1,2.1,6.6c1.4,1.5,3.8,2.3,7,2.3c1.8,0,3.5-0.1,5-0.4
			c1.5-0.3,2.8-0.6,3.8-0.9c1.1-0.3,2-0.6,2.7-0.9c0.7-0.3,1.2-0.4,1.4-0.4c0.3,0,0.5,0.1,0.6,0.3c0.1,0.2,0.2,0.5,0.2,0.8
			c0,0.3,0,0.6-0.1,1c-0.1,0.4-0.1,0.8-0.3,1.2c-0.1,0.4-0.3,0.8-0.5,1.2c-0.2,0.4-0.4,0.7-0.6,0.9c-0.3,0.4-1,0.7-1.8,1
			c-0.9,0.3-1.9,0.7-3.1,0.9c-1.2,0.3-2.5,0.5-4,0.7c-1.4,0.2-2.9,0.3-4.3,0.3c-2.6,0-4.8-0.3-6.8-0.9c-1.9-0.6-3.6-1.5-4.8-2.7
			c-1.3-1.2-2.3-2.7-2.9-4.5c-0.6-1.8-0.9-3.9-0.9-6.3c0-1.9,0.2-3.9,0.5-6.1c0.4-2.1,0.9-4.3,1.7-6.4c0.8-2.1,1.8-4.1,3-6.1
			c1.2-1.9,2.7-3.6,4.4-5.1c1.7-1.5,3.7-2.7,6-3.6c2.3-0.9,4.8-1.3,7.6-1.3c2.4,0,4.5,0.3,6.2,0.9c1.7,0.6,3.1,1.4,4.2,2.3
			c1.1,1,1.9,2,2.4,3.2C1273.5,1345.2,1273.8,1346.4,1273.8,1347.5z M1266.4,1348.2c0-1.5-0.6-2.7-1.7-3.6c-1.2-0.9-2.8-1.4-4.9-1.4
			c-1.9,0-3.5,0.3-5,1c-1.5,0.7-2.7,1.5-3.8,2.6c-1.1,1.1-2.1,2.4-2.9,3.8c-0.8,1.5-1.4,3-1.9,4.6h4.4c3,0,5.6-0.2,7.6-0.6
			c2-0.4,3.7-0.9,4.9-1.5c1.2-0.7,2.1-1.4,2.6-2.3C1266.2,1350.1,1266.4,1349.2,1266.4,1348.2z"/>
		<path class="st1" d="M1335.9,1339.2c0,0.3,0,0.6-0.1,1c-0.1,0.3-0.2,0.6-0.2,0.8c-1.1,3.1-2.3,6.3-3.6,9.6
			c-1.3,3.2-2.8,6.4-4.3,9.6c-1.6,3.2-3.3,6.3-5.1,9.4c-1.8,3.1-3.8,6.1-5.9,8.9c-0.2,0.3-0.5,0.6-0.8,0.7c-0.3,0.2-0.7,0.3-1,0.4
			c-0.4,0.1-0.8,0.2-1.3,0.2c-0.5,0-1,0-1.7,0c-0.8,0-1.4,0-1.9-0.1c-0.5-0.1-0.9-0.1-1.2-0.3c-0.3-0.1-0.5-0.3-0.7-0.5
			c-0.1-0.2-0.2-0.5-0.2-0.7l-2.9-28.6l-13.1,28.5c-0.1,0.3-0.3,0.6-0.6,0.8c-0.2,0.2-0.5,0.4-0.9,0.5c-0.4,0.1-0.8,0.2-1.4,0.3
			c-0.6,0.1-1.2,0.1-2.1,0.1c-0.8,0-1.5,0-2.1-0.1c-0.6-0.1-1-0.1-1.4-0.3c-0.4-0.1-0.6-0.3-0.8-0.5c-0.2-0.2-0.3-0.5-0.3-0.7
			l-4.1-37.1c0-0.3-0.1-0.5-0.1-0.8c0-0.3,0-0.5,0-0.6c0-0.4,0-0.6,0.2-0.8c0.1-0.2,0.3-0.4,0.6-0.5c0.3-0.1,0.6-0.2,1.1-0.3
			c0.5-0.1,1.1-0.1,1.8-0.1c0.7,0,1.4,0,1.8,0.1c0.4,0,0.8,0.1,1,0.2c0.3,0.1,0.4,0.3,0.5,0.4c0.1,0.2,0.1,0.4,0.2,0.7l3,32.3v0.4
			l0.2-0.4l14.8-32.3c0.1-0.2,0.2-0.4,0.4-0.6c0.1-0.2,0.4-0.3,0.6-0.5c0.3-0.1,0.6-0.2,1-0.2c0.4-0.1,1-0.1,1.6-0.1
			c0.7,0,1.2,0,1.7,0.1c0.4,0,0.8,0.1,1.1,0.2c0.3,0.1,0.4,0.3,0.6,0.4c0.1,0.2,0.2,0.4,0.2,0.6l3.2,32.1v0.3l0.2-0.3
			c1.3-2.1,2.7-4.4,4-6.9c1.3-2.5,2.6-5.2,3.9-8c1.2-2.8,2.4-5.6,3.5-8.6c1.1-2.9,2.1-5.8,3.1-8.6c0.1-0.3,0.2-0.5,0.3-0.7
			c0.2-0.2,0.4-0.3,0.7-0.4c0.3-0.1,0.7-0.2,1.2-0.2c0.5-0.1,1.1-0.1,1.9-0.1c0.7,0,1.3,0,1.7,0.1c0.4,0,0.8,0.1,1,0.2
			c0.2,0.1,0.4,0.2,0.5,0.3C1335.8,1338.9,1335.9,1339.1,1335.9,1339.2z"/>
		<path class="st1" d="M1401.3,1343.8c0,1.9-0.1,3.8-0.4,5.9c-0.3,2-0.7,4.1-1.2,6.1c-0.6,2-1.3,4-2.2,6c-0.9,2-2,3.8-3.3,5.6
			c-1.3,1.8-2.8,3.4-4.5,4.9c-1.7,1.5-3.6,2.8-5.8,3.9c-2.2,1.1-4.6,2-7.2,2.6c-2.7,0.6-5.8,0.9-9.6,0.9h-12.4c-0.4,0-0.7,0-1.1-0.2
			c-0.3-0.1-0.6-0.3-0.8-0.5c-0.2-0.2-0.4-0.5-0.5-0.9c-0.1-0.4-0.1-0.9,0.1-1.5l10-50c0.2-1.1,0.6-1.9,1.3-2.4
			c0.7-0.4,1.4-0.7,2.3-0.7h11.8c4.3,0,7.9,0.4,10.7,1.4c2.8,0.9,5.2,2.2,7.1,4c1.9,1.7,3.3,3.8,4.2,6.3
			C1400.9,1337.8,1401.3,1340.6,1401.3,1343.8z M1393.4,1344.4c0-2.1-0.3-4.1-0.9-5.9c-0.6-1.8-1.5-3.3-2.8-4.6
			c-1.3-1.3-2.9-2.3-4.9-3c-2-0.7-4.6-1.1-7.9-1.1h-7.8l-8.7,43.7h7.7c3.5,0,6.5-0.4,8.8-1.3c2.4-0.8,4.5-2,6.3-3.5
			c1.8-1.5,3.4-3.2,4.6-5.1c1.3-1.9,2.3-4,3.1-6.1c0.8-2.1,1.4-4.3,1.8-6.6C1393.2,1348.7,1393.4,1346.5,1393.4,1344.4z"/>
		<path class="st1" d="M1439.6,1347.5c0,2-0.5,3.8-1.4,5.4c-0.9,1.6-2.4,2.9-4.3,4.1c-2,1.1-4.5,2-7.5,2.6c-3.1,0.6-6.7,0.9-11,0.9
			h-4.6c-0.2,0.9-0.3,1.9-0.4,2.8c-0.1,0.9-0.1,1.7-0.1,2.5c0,2.9,0.7,5.1,2.1,6.6c1.4,1.5,3.7,2.3,7,2.3c1.8,0,3.5-0.1,5-0.4
			c1.5-0.3,2.8-0.6,3.8-0.9c1.1-0.3,2-0.6,2.7-0.9c0.7-0.3,1.2-0.4,1.4-0.4c0.2,0,0.5,0.1,0.6,0.3c0.1,0.2,0.2,0.5,0.2,0.8
			c0,0.3,0,0.6-0.1,1c-0.1,0.4-0.1,0.8-0.3,1.2c-0.1,0.4-0.3,0.8-0.4,1.2c-0.2,0.4-0.4,0.7-0.6,0.9c-0.4,0.4-1,0.7-1.8,1
			c-0.9,0.3-1.9,0.7-3.1,0.9c-1.2,0.3-2.5,0.5-4,0.7c-1.4,0.2-2.9,0.3-4.3,0.3c-2.6,0-4.8-0.3-6.8-0.9c-1.9-0.6-3.5-1.5-4.8-2.7
			c-1.3-1.2-2.3-2.7-2.9-4.5c-0.6-1.8-0.9-3.9-0.9-6.3c0-1.9,0.2-3.9,0.5-6.1c0.4-2.1,0.9-4.3,1.7-6.4c0.8-2.1,1.8-4.1,3-6.1
			c1.2-1.9,2.7-3.6,4.4-5.1c1.7-1.5,3.7-2.7,6-3.6c2.2-0.9,4.8-1.3,7.6-1.3c2.4,0,4.5,0.3,6.2,0.9c1.7,0.6,3.1,1.4,4.2,2.3
			c1.1,1,1.9,2,2.3,3.2C1439.3,1345.2,1439.6,1346.4,1439.6,1347.5z M1432.2,1348.2c0-1.5-0.6-2.7-1.7-3.6c-1.1-0.9-2.8-1.4-4.9-1.4
			c-1.9,0-3.5,0.3-5,1c-1.4,0.7-2.7,1.5-3.8,2.6c-1.1,1.1-2.1,2.4-2.9,3.8c-0.8,1.5-1.4,3-1.9,4.6h4.4c3,0,5.6-0.2,7.6-0.6
			c2-0.4,3.7-0.9,4.9-1.5c1.2-0.7,2.1-1.4,2.6-2.3C1432,1350.1,1432.2,1349.2,1432.2,1348.2z"/>
		<path class="st1" d="M1448.3,1378.6c-0.1,0.2-0.2,0.4-0.3,0.6c-0.1,0.2-0.4,0.3-0.7,0.4c-0.3,0.1-0.7,0.2-1.1,0.3
			c-0.5,0.1-1.1,0.1-1.8,0.1c-0.7,0-1.3,0-1.8-0.1c-0.5-0.1-0.8-0.1-1-0.3c-0.2-0.1-0.4-0.3-0.5-0.4c-0.1-0.1-0.1-0.4,0-0.6
			l11.5-57.9c0.1-0.2,0.1-0.4,0.3-0.6c0.1-0.2,0.3-0.3,0.7-0.4c0.3-0.1,0.7-0.2,1.2-0.3c0.5-0.1,1.1-0.1,1.8-0.1
			c0.7,0,1.3,0,1.7,0.1c0.4,0.1,0.8,0.1,1,0.3c0.2,0.1,0.4,0.3,0.5,0.4c0.1,0.2,0.1,0.4,0,0.6L1448.3,1378.6z"/>
		<path class="st1" d="M1490.5,1378.6c-0.1,0.2-0.1,0.4-0.3,0.6c-0.1,0.2-0.4,0.3-0.7,0.4c-0.3,0.1-0.7,0.2-1.1,0.3
			c-0.5,0.1-1.1,0.1-1.8,0.1c-0.7,0-1.3,0-1.7-0.1c-0.4-0.1-0.8-0.1-1-0.3c-0.2-0.1-0.4-0.3-0.5-0.4c-0.1-0.1-0.1-0.4-0.1-0.6
			l4.8-24.1c0.1-0.8,0.3-1.6,0.4-2.5c0.1-0.9,0.1-1.8,0.1-2.5c0-0.8-0.1-1.6-0.2-2.3c-0.2-0.7-0.5-1.3-0.8-1.8
			c-0.4-0.5-0.9-0.9-1.5-1.2s-1.4-0.4-2.3-0.4c-1.5,0-3.1,0.5-4.7,1.3c-1.6,0.9-3.1,2.1-4.5,3.7c-1.4,1.6-2.6,3.4-3.7,5.6
			c-1.1,2.1-1.9,4.5-2.4,6.9l-3.5,17.3c-0.1,0.2-0.2,0.4-0.3,0.6c-0.2,0.2-0.4,0.3-0.7,0.4c-0.3,0.1-0.7,0.2-1.1,0.3
			c-0.5,0.1-1.1,0.1-1.8,0.1c-0.7,0-1.3,0-1.7-0.1c-0.5-0.1-0.8-0.1-1-0.3c-0.3-0.1-0.4-0.3-0.5-0.4c-0.1-0.1-0.1-0.4,0-0.6
			l11.5-57.9c0.1-0.2,0.2-0.4,0.3-0.6c0.1-0.2,0.3-0.3,0.7-0.4c0.3-0.1,0.7-0.2,1.2-0.3c0.5-0.1,1.1-0.1,1.8-0.1
			c0.7,0,1.3,0,1.7,0.1c0.4,0.1,0.8,0.1,1,0.3c0.2,0.1,0.4,0.3,0.5,0.4c0,0.2,0.1,0.4,0,0.6l-3.5,17.6c-0.1,0.8-0.3,1.5-0.5,2.3
			c-0.2,0.8-0.4,1.6-0.6,2.3c-0.2,0.8-0.4,1.5-0.6,2.2c-0.2,0.7-0.4,1.3-0.6,1.8c0.5-1,1.2-2.1,2.2-3.1c1-1.1,2.1-2.1,3.5-3
			c1.3-0.9,2.8-1.7,4.4-2.3c1.6-0.6,3.2-0.9,5-0.9c1.8,0,3.4,0.3,4.7,0.8c1.3,0.5,2.4,1.3,3.2,2.2c0.8,0.9,1.4,2.1,1.8,3.4
			c0.4,1.3,0.6,2.7,0.6,4.2c0,1-0.1,2.1-0.2,3c-0.1,1-0.3,2-0.5,3L1490.5,1378.6z"/>
		<path class="st1" d="M1507.2,1378.6c-0.1,0.2-0.2,0.4-0.3,0.6c-0.1,0.2-0.4,0.3-0.7,0.4c-0.3,0.1-0.7,0.2-1.2,0.3
			c-0.5,0.1-1.1,0.1-1.8,0.1c-0.7,0-1.3,0-1.8-0.1c-0.4-0.1-0.8-0.1-1-0.3c-0.2-0.1-0.4-0.3-0.5-0.4c-0.1-0.1-0.1-0.4,0-0.6l7.8-39
			c0-0.2,0.1-0.4,0.3-0.6c0.1-0.2,0.4-0.3,0.7-0.4c0.3-0.1,0.7-0.2,1.2-0.3c0.5-0.1,1.1-0.1,1.8-0.1c0.7,0,1.3,0,1.7,0.1
			c0.4,0.1,0.8,0.1,1,0.3c0.2,0.1,0.4,0.3,0.5,0.4c0.1,0.2,0.1,0.4,0.1,0.6L1507.2,1378.6z M1518.4,1326.4c-0.1,0.8-0.3,1.5-0.6,2
			c-0.3,0.5-0.6,1-1,1.3c-0.4,0.3-0.9,0.5-1.5,0.7c-0.6,0.1-1.3,0.2-2.2,0.2c-0.8,0-1.5-0.1-2.1-0.2c-0.5-0.2-0.9-0.4-1.2-0.7
			c-0.3-0.3-0.4-0.8-0.4-1.3c0-0.5,0-1.2,0.2-2c0.2-0.8,0.4-1.5,0.7-2c0.3-0.5,0.6-1,1-1.3c0.4-0.4,0.9-0.6,1.5-0.7
			c0.6-0.1,1.3-0.2,2.2-0.2c0.8,0,1.5,0.1,2.1,0.2c0.5,0.1,0.9,0.4,1.2,0.7c0.3,0.4,0.4,0.8,0.5,1.3
			C1518.7,1325,1518.6,1325.6,1518.4,1326.4z"/>
		<path class="st1" d="M1516.5,1392.8c3.1-4.7,5.8-9.4,8-14.1c2.2-4.7,4-9.3,5.4-13.8c1.4-4.5,2.4-8.9,3-13c0.6-4.2,1-8.2,1-11.9
			c0-1.6-0.1-3.2-0.1-4.8c-0.1-1.7-0.3-3.4-0.4-5.1c-0.2-1.7-0.4-3.4-0.7-5.1c-0.3-1.7-0.7-3.3-1.1-4.8c-0.1-0.3-0.1-0.6-0.1-0.8
			c0-0.3,0.1-0.5,0.3-0.6c0.2-0.2,0.5-0.3,0.9-0.4c0.4-0.1,1-0.1,1.7-0.1c0.5,0,1,0,1.3,0.1c0.4,0.1,0.7,0.1,0.9,0.2
			c0.3,0.1,0.4,0.2,0.6,0.3c0.1,0.1,0.2,0.2,0.3,0.4c1.1,3.3,1.9,6.8,2.6,10.5c0.7,3.7,1,7.8,1,12.2c0,3.7-0.3,7.6-0.9,11.6
			c-0.6,4-1.6,8.2-3,12.5c-1.4,4.3-3.2,8.8-5.5,13.4c-2.3,4.6-5.1,9.4-8.5,14.2c-0.1,0.2-0.3,0.3-0.5,0.5c-0.2,0.1-0.4,0.3-0.7,0.4
			c-0.3,0.1-0.7,0.2-1.2,0.2c-0.5,0-1,0.1-1.7,0.1c-0.7,0-1.2,0-1.6-0.1c-0.4-0.1-0.7-0.2-0.9-0.3c-0.2-0.1-0.3-0.3-0.3-0.5
			C1516.2,1393.4,1516.3,1393.1,1516.5,1392.8z"/>
		<g>
			<path class="st1" d="M1154.7,1392.8c2-5.3,4.4-14.8,5.3-21.3l8.7-0.9c-2.1,7.6-6,17.5-8.5,21.6L1154.7,1392.8z"/>
		</g>
	</g>
</g>
</svg>
